<?xml version='1.0' encoding='utf-8'?>
<svg xmlns="http://www.w3.org/2000/svg" id="Layer_1" data-name="Layer 1" viewBox="0 0 378.7 220.08"><defs><style>.cls-1{fill:#6d3814;}.cls-2{fill:#a76b42;}.cls-3{fill:#9a5d31;}.cls-4{fill:#7d4119;}.cls-5{fill:#5d2f12;}.cls-6{fill:#4b2412;}.cls-7{fill:#723b15;}</style></defs><path class="cls-1" d="M171.44,195.61s37.88,4.55,64.91,4.75,62.39-1.85,73.53-2.62S323,196.9,323,196.9l-.29-3.13s-15.4-1.56-55.82-3.94-73.31-2.21-73.31-2.21l-21.79,4.43Z" transform="translate(-67.06 -175.58)"/><path class="cls-2" d="M231.51,191.49l25.16.29s1.62,83,1.31,107.18,2.14,54.93,2.14,54.93a69.57,69.57,0,0,1-18.87-.21S221.2,263.34,231.51,191.49Z" transform="translate(-67.06 -175.58)"/><path class="cls-2" d="M379.09,187.16,394,185.47C405.13,204.91,404.23,206,407,230.94c2.77,25.26,18.38,87-34.85,105.23l-12.16,3.11s30.31-24.7,32.93-46.14S379.09,187.16,379.09,187.16Z" transform="translate(-67.06 -175.58)"/><path class="cls-2" d="M149.92,187.56l22.17,1.81s-15.74,126.09,14.46,157.88c0,0-19.63-2.12-27.64-12.17C144.71,317.26,142.68,222.93,149.92,187.56Z" transform="translate(-67.06 -175.58)"/><path class="cls-2" d="M116.8,185.45s-25,81.16-7.12,126.26c0,0-16.35-10.27-18.67-19.08S86.09,217.25,102.77,184Z" transform="translate(-67.06 -175.58)"/><path class="cls-2" d="M322.45,191l23.34-1.18s4,67.39,3.09,95.36-29.71,64.08-35.44,65.64-16.21-.18-16.21-.18,23-7.88,27.09-55S322.45,191,322.45,191Z" transform="translate(-67.06 -175.58)"/><path class="cls-3" d="M192.69,197.81c-5.42.23-12.26.6-21.4.49-14.12-.16-29.46-2.32-33.35-4.22-6.9-.27-15.93-.66-23.33-1.12l-1,4.2s9.5,1.81,21.78,4,21.27,3.33,39.44,3.13,42.91,0,55,1.68l.57-5.71C217.87,199.91,203.9,198.84,192.69,197.81Z" transform="translate(-67.06 -175.58)"/><path class="cls-3" d="M257.13,205.46s38.76,0,58-.23,28.4-.25,41.06-2.63a244.89,244.89,0,0,1,25.19-3.21l-1-5.58L361,195.38s-27.86,5-53.25,2.51l-50.91,2.27Z" transform="translate(-67.06 -175.58)"/><path class="cls-1" d="M98.17,195.36s-4.64,1.81-5.71,4.21-1.64,6.83,18.46,7.3S147,209.3,147,209.3l.66-6.25-20.43-3.36S98.27,198.73,98.17,195.36Z" transform="translate(-67.06 -175.58)"/><path class="cls-4" d="M170.57,210.93s16.64.29,29.2,1.79,24,3.21,48.77,2.86,35.82-2.73,50.6-3.19,25-.46,25-.46l-.48-6.82s-40.66.33-44.31.33-22.82,2.17-37.34,2-21.69-2.16-32.53-2.9S171,204.3,171,204.3Z" transform="translate(-67.06 -175.58)"/><path class="cls-4" d="M346.9,210.62s31-2.22,42.83-2.84,17.21-1.39,20.47-3.76,3.2-8.52,3.2-8.52l-10.15,1s-4.64,2.67-13.75,3.3-17.25.44-17.25.44S349.55,203,346.57,204Z" transform="translate(-67.06 -175.58)"/><path class="cls-4" d="M92.13,202c-1.5-1.23-2.54-2.71-1.14-3.9,3-2.54,3.63-3,3.63-3l-4.33-.83-3.16.74s-5.76,1.4-6.94,5,1,8.13,14.29,9.28L95.91,205C93.41,204.08,92.41,203,92.13,202Z" transform="translate(-67.06 -175.58)"/><path class="cls-3" d="M110.19,211.74a291,291,0,0,0,51.44,7.44c29.18,1.63,67.25,1.31,67.25,1.31l.3-5.42s-23.93-2.5-31-2.53-16.24-.08-33.33-.38-36.67-4.53-36.67-4.53l-17.25-.76Z" transform="translate(-67.06 -175.58)"/><path class="cls-3" d="M257.59,221.08s.8,0,1.26,0c5.4-.11,39.86-.84,53.66-.91,15-.07,26.63,0,43.36-2.67s27.86-4.84,27.86-4.84l-.87-4.94s-20.19,1.48-25.76,2.75c-4.92,1.11-19.14,2.51-30.24,2.3s-16.18-.67-16.88-.65-11.06,0-20,.8-29.89,2.36-32.9,2.46Z" transform="translate(-67.06 -175.58)"/><path class="cls-3" d="M412.07,201.69s7.33,0,12.86-1.84,2.6-6.45,2.6-6.45l4-1.08s1.53,5.53,2.5,8.63-2.43,4.65-8.7,5.74-20.84,3.52-20.84,3.52l-.79-3.75S411,205.24,412.07,201.69Z" transform="translate(-67.06 -175.58)"/><path class="cls-1" d="M90,208.65s-1.69,2.88-1.56,5.25.6,4.76,21.25,6.15,36.85,2.43,36.85,2.43l-.05-4.68s-18.6-2.18-23.17-3.27c0,0-27.12-.45-28.88-5.31Z" transform="translate(-67.06 -175.58)"/><path class="cls-4" d="M169.12,223.88s33.88,5.77,63.69,5.7,27.9-.09,47-2.23,45.14-1.68,45.14-1.68l.31-5.61-48.54.65c-2.29,0-14.45,3.15-33.31,2.87a200.52,200.52,0,0,1-33-3.1s-36.61-.72-41-.92Z" transform="translate(-67.06 -175.58)"/><path class="cls-4" d="M347.53,223.89a272.86,272.86,0,0,1,29.09-2.35c14.3-.24,28.47-1.3,34.05-3.43s5.23-5.31,5.23-5.31l-.82-4.37-7.93,1.33s-2,3.57-11.77,4.35a75.26,75.26,0,0,1-17-.46s-26.75,4.56-31.07,5Z" transform="translate(-67.06 -175.58)"/><path class="cls-3" d="M429.43,205.78s.14,6.75-13.62,7.82c0,0-.75,4.23-9.95,5.76l-.17,3s24.38-4,28.76-6.67,1.66-9.18-1.61-11.41Z" transform="translate(-67.06 -175.58)"/><path class="cls-3" d="M81.41,205s-5.33,2.12-5.06,6.6,16.21,8,16.21,8l.32-2s-5.21-.28-4.35-4.8l.22-1.1s-6.43-1.33-3.74-4.49A24.3,24.3,0,0,1,81.41,205Z" transform="translate(-67.06 -175.58)"/><path class="cls-3" d="M107.92,223.33s20.85,6.21,41.2,8.15,34.6,2.42,48,1.68,31.42.85,31.42.85l-.2-4.66s-25.79-.71-43.66-3.22c0,0-21.36-.18-33.62-1.62s-15.62-2.75-15.62-2.75L108.54,220Z" transform="translate(-67.06 -175.58)"/><path class="cls-3" d="M257.43,233.69s31.4,0,54,0,30.68.11,41.92-2.29,32.72-5,32.72-5l-.84-5.06-15.62.51s-8,3.72-24.27,4.59a263.44,263.44,0,0,1-33.45-.72s-18.87.27-28.4,1.31-22.47,2.72-25.79,2.38Z" transform="translate(-67.06 -175.58)"/><path class="cls-4" d="M92.56,219.67s-3.24,1.94-3.59,5.17,5.61,5.55,22.67,6.79,34,2.93,34,2.93l.41-3.41s-18.5-2.92-29.77-5.59-.7-.18-.7-.18S92.14,225.11,92.56,219.67Z" transform="translate(-67.06 -175.58)"/><path class="cls-4" d="M168.46,236.39s31.82,3.05,51.15,5.06,36.48,2.51,53,.08,29.34-3,37.63-3.53,15.16-.49,15.16-.49l-.13-3.9-45.84.08a221.1,221.1,0,0,1-28.18,1.62c-17.83.1-39.11-2.23-39.11-2.23a175.84,175.84,0,0,0-19.15.27,216.47,216.47,0,0,1-24.37-.19Z" transform="translate(-67.06 -175.58)"/><path class="cls-4" d="M348.08,237.08s24.16-1.16,43-2.72,20.37-3.13,22.8-5.34,2.89-8.68,2.89-8.68l-8.47,1.57s-2.82,4.32-12.09,4.81-14.1.12-14.59.19-19.35,2.67-25.39,3.86-8.38,1.59-8.38,1.59Z" transform="translate(-67.06 -175.58)"/><path class="cls-3" d="M435.53,214.82s3.29,7.16.49,9.44-23.61,6-23.61,6,2.78-2.4,3.35-4.54c0,0,14.49-4.31,14.9-5.72a3.22,3.22,0,0,0-.68-2.68S434.84,215.81,435.53,214.82Z" transform="translate(-67.06 -175.58)"/><path class="cls-4" d="M80.2,215.45s-6.73,1.87-6.18,6.21c.18,1.43,2.07,2.76,4.52,3.9a68.51,68.51,0,0,0,12.24,3.85l.55-1.42s-3.5-2.06-2.07-4.39c0,0-8-1.93-8.24-4.06s2.08-2.77,2.08-2.77Z" transform="translate(-67.06 -175.58)"/><path class="cls-3" d="M106.26,233.37s21.53,4.58,30.55,7.54,17.1,4.16,34.15,4.24,30.8.3,41.9.48,15.81.6,15.81.6l.22-3.92-26.16-2.57s-18.66.44-31.07.11-23.19-1.6-29.58-3.11a128.37,128.37,0,0,1-12.34-3.65l-23.15-1.89Z" transform="translate(-67.06 -175.58)"/><path class="cls-3" d="M257.59,246.07s25.68-.62,45.56-.58,41.64,1.09,57.44-2.21,27.22-5.74,27.22-5.74l-1.09-2.83L367.17,236s-1.37,1.59-21.82,3-44.18-.51-44.18-.51-15.3,1.19-21.34,2-17,2.23-22.07,2.41Z" transform="translate(-67.06 -175.58)"/><path class="cls-4" d="M421.06,228.58s-5.72,13.1-12.44,14.69-18.28,2.24-29.85,2.23A169.41,169.41,0,0,1,356.88,244l25.93-5.36a56.62,56.62,0,0,0,19.2-2c9.5-2.88,11.83-6.31,11.83-6.31Z" transform="translate(-67.06 -175.58)"/><path class="cls-4" d="M168.45,248.61s22.23,2.61,40.61,4.94,37.66,4.58,52.41,2.47,34.81-4.32,45.79-5.26,18.42-.85,18.42-.85l.23-4.23-36-.14s-42.12,6.8-71.39.21l-49.86-.62Z" transform="translate(-67.06 -175.58)"/><path class="cls-4" d="M87.62,228.65s-3.7,9.08,3,11.76,16.53,3.48,29.72,4.1,25.5,2.47,25.5,2.47l.18-3.35s-5.29-1.79-12.3-3.66-12.63-3.25-12.63-3.25-14.56-.69-20.83-2a17.18,17.18,0,0,1-9.49-5.33Z" transform="translate(-67.06 -175.58)"/><path class="cls-3" d="M89.6,239.9s-15.22-2.61-17.36-5.39-1.74-8.34,4.65-9.8l4.37,2s-2.53,3.35-.71,5,6.06,1.78,6.06,1.78S86.26,238.58,89.6,239.9Z" transform="translate(-67.06 -175.58)"/><path class="cls-4" d="M77,236.9s-5.74,1.5-6.5,5.07,3.41,9.3,18.44,10.45l.73-2.51s-3-2.37-3-3.6c0,0-8.63-1.19-9-3.46s1.75-5.23,1.75-5.23Z" transform="translate(-67.06 -175.58)"/><path class="cls-4" d="M75.28,249.06s-5,.88-4.32,5,10.82,9.24,18.31,10.3l.08-4.88s-12.87-3.16-13.12-5,1.93-4.14,1.93-4.14Z" transform="translate(-67.06 -175.58)"/><path class="cls-4" d="M89.6,278.46S77.11,273.3,73,271.05s-4.27-6.08-2.67-7.69A12,12,0,0,1,75,261s-2.37,4.44,1,6.44S89.38,272,89.38,272Z" transform="translate(-67.06 -175.58)"/><path class="cls-4" d="M90.51,289.88S78.68,286.06,77,281.73a9.94,9.94,0,0,1,.45-8.05l1.94.4s3.33,8.13,10.52,9.51Z" transform="translate(-67.06 -175.58)"/><path class="cls-3" d="M110.54,243.94s18.85,12.12,47.12,14.39,35.19,1.3,50.19,1.06,21.32.9,21.32.9l-.2-4.46-28.61-3.37s-15.11,1.15-38.79-1-31.09-6.25-31.09-6.25Z" transform="translate(-67.06 -175.58)"/><path class="cls-3" d="M257.78,260.61s19.31-.19,44.51.18,39.83,1.81,53.8-2.69,33.27-10,33.27-10l.16-2.76s-16.29.72-20.94.09c0,0-15.15,6.06-30,7.2s-41.55-.85-41.55-.85-29.15,3.19-39.27,4.71Z" transform="translate(-67.06 -175.58)"/><path class="cls-4" d="M433.81,225.32s5.08,6.52,2.56,10-24.6,6.44-24.6,6.44a41,41,0,0,0,5.77-6.65s15.15-2.32,15-4.55a7.84,7.84,0,0,0-1.88-4.22Z" transform="translate(-67.06 -175.58)"/><path class="cls-4" d="M348.87,263.11s12.31-2.22,25.8-3.69,34-4.9,39.13-9.07a20.54,20.54,0,0,0,6.6-10l-6.1,1.14s-1,5.33-15.44,7.93a215.94,215.94,0,0,1-24.59,3.12l-25.47,7.43Z" transform="translate(-67.06 -175.58)"/><path class="cls-4" d="M324.81,265.28s-16.48,1-35.6,2.36-38.26,3-57.24,1.9S168,263,168,263l.22-3.91a272.73,272.73,0,0,0,34.79.39s13.37,3.42,42.42,3.42,41-2.46,41-2.46l39.29.83Z" transform="translate(-67.06 -175.58)"/><path class="cls-4" d="M146.1,260.73s-39.17-3.49-45.93-5.55S83,247.68,87,239.41l2.59.49s6.25,10.6,33.93,10.78c0,0,16.39,5.77,21.77,6Z" transform="translate(-67.06 -175.58)"/><path class="cls-3" d="M103.57,258.86s18.19,10.69,45.67,14.18,46.53.53,62.21.71,18.6.46,18.6.46l-.34-4.82-37.34-3.6a235.43,235.43,0,0,1-32,.38,86.79,86.79,0,0,1-27.77-6.73L103.75,256Z" transform="translate(-67.06 -175.58)"/><path class="cls-3" d="M257.93,274.28s43.72-1.38,66.41-.71,34.07-4.22,41.47-7.24,24.95-7.84,24.95-7.84l.08-1.35-30.6,4.15s-1.89,2.83-14.22,4.15-28.14.34-28.14.34l-60,3.85Z" transform="translate(-67.06 -175.58)"/><path class="cls-3" d="M410.1,255s21.68-3.34,25.48-5.65,3.64-5.76,2-7.6-7.08-3.68-7.08-3.68,3.38,3.53.59,6.19-14.2,3-14.2,3-1.51,2.61-7,5.47Z" transform="translate(-67.06 -175.58)"/><path class="cls-4" d="M88.86,253.07s-2,7.55,9.46,13.13,48.46,9.24,48.46,9.24l.15-2.72s-25-4.38-38.5-11.37c0,0-13.36-3.32-14.67-8.22l-4.14-3.22Z" transform="translate(-67.06 -175.58)"/><path class="cls-4" d="M168.42,278.14s40.44,7.21,68.63,7.61,45.11-2.58,62.84-4.33,25.33-1.82,25.33-1.82l.34-6s-14.1-.39-22.94.06-22,4.21-46.08,3.94a324.07,324.07,0,0,1-45.09-3.85l-22.43.74c-6.06.19-20.74.23-20.74.23Z" transform="translate(-67.06 -175.58)"/><path class="cls-4" d="M349.41,276s12.95-1.64,28.93-3.57,27.58-4.33,34.69-8.56,11.74-11.51,11.74-11.51l-10.92,2s-6.05,5.38-23.33,8.52-23.47,3.33-23.47,3.33-12.44,4.58-18.06,5.53Z" transform="translate(-67.06 -175.58)"/><path class="cls-4" d="M433.66,251.47s5.43,2.45,4.28,6.2-13.73,6.46-18.93,7.22-8,1.2-8,1.2l-.56-.88a45.56,45.56,0,0,0,7.09-4.67s13.95-1.85,15.47-3.87S433.66,251.47,433.66,251.47Z" transform="translate(-67.06 -175.58)"/><path class="cls-3" d="M258,288.59s32.65.29,54,.21,35.68-1.14,44.74-5.51,35.49-11.68,35.49-11.68l-.12-1.22-26,3.62a119.49,119.49,0,0,1-24,7.08c-12.11,2-42.17.33-42.17.33s-18.77,2.13-23.32,2.57S258,285.41,258,285.41Z" transform="translate(-67.06 -175.58)"/><path class="cls-3" d="M231.38,289.18s-35.09.17-51.3-.09-27.39-2-42.85-6.27A71.39,71.39,0,0,1,112,270.27l13.93,2.5a166,166,0,0,0,42.69,9.6c22.66,1.72,30.83.38,30.83.38s23.39,3.11,31.56,2.82Z" transform="translate(-67.06 -175.58)"/><path class="cls-4" d="M86.15,263.76S84.76,276,103.56,281.55s44.24,7.18,44.24,7.18l-.3-3.32s-21.21-5-25.26-8.54c0,0-21.7-3.17-26.57-7.53s-6.4-4.95-6.4-4.95Z" transform="translate(-67.06 -175.58)"/><path class="cls-4" d="M169.38,292.22s23.19,3.6,41.54,6.57a205.79,205.79,0,0,0,60.44.69c20.63-2.94,53.1-6.39,53.1-6.39l.38-4.5-29.78.42a213.4,213.4,0,0,1-38.49,3.88c-22.23.31-52.88-3.53-52.88-3.53s-27.78-.13-34.11-.71Z" transform="translate(-67.06 -175.58)"/><path class="cls-3" d="M103.79,284.58s27.89,12.17,50.4,16.49,47.6,3.23,60.31,3.05,18.57,0,18.57,0l-.34-2.81s-27.3-2.34-34.49-4.51a356.2,356.2,0,0,1-37.74-1.39c-19.29-1.85-27.15-8.09-27.15-8.09s-20.14-2.78-29.79-5.73Z" transform="translate(-67.06 -175.58)"/><path class="cls-4" d="M87.16,277.44s-.61,12.86,11,16.9,36.14,6.86,51,6.57l-.12-.93-17.65-5s-21.72-2.45-29.56-5.63a20.68,20.68,0,0,1-10.73-10.28Z" transform="translate(-67.06 -175.58)"/><path class="cls-3" d="M258,303.39s60.6.53,81.77-2.72,30.68-9.33,35.59-12a132.66,132.66,0,0,1,14.08-5.86l-28.45,4.31s-15.4,7.15-32,8.34a217.28,217.28,0,0,1-28.58.3s-15.92,1.91-24.58,3.07-17.65,2-17.65,2Z" transform="translate(-67.06 -175.58)"/><path class="cls-4" d="M367.07,279.29s18-1.86,32.55-5.84,15-7.92,15-7.92l8.73-1.43s-6.07,10.37-15,14-50,10.66-59.8,10.75l.24-2.86a48,48,0,0,0,7.89-2.71C362,281.12,367.07,279.29,367.07,279.29Z" transform="translate(-67.06 -175.58)"/><path class="cls-3" d="M435.94,259.85s6,4.73,3.07,9.25c-1.3,2-7,4-12.94,5.6-7.3,1.95-14.91,3.27-14.91,3.27l.07-1.2s5.83-4.56,7.16-6.08c0,0,11-2.52,13.37-4.36s1.43-5.07,1.43-5.07Z" transform="translate(-67.06 -175.58)"/><path class="cls-4" d="M345.42,302.55s39-4.14,56.83-10,23.82-17.81,23.82-17.81l-10.66,2.46s-7.56,6.8-24.11,11-22.6,4-22.6,4-14,5.82-22.13,7.24Z" transform="translate(-67.06 -175.58)"/><path class="cls-3" d="M435.68,271.86a8,8,0,0,1,3.5,5.89c.19,3.8-14.46,11-29.32,13.14l.07-1.33a57.24,57.24,0,0,0,8-5.55s14.76-3,16.53-6.31a5,5,0,0,0-.24-5.61Z" transform="translate(-67.06 -175.58)"/><path class="cls-4" d="M171,306s36.68,9,64.54,9.11,42.51-3.25,62.59-6,24.82-3.7,24.82-3.7l.6-3.06s-26.31.84-29.48.89c0,0-19.11,4.87-36.46,5.57s-48.28-4.21-48.28-4.21-16.21,0-24.31-.35-14.68-.89-14.68-.89Z" transform="translate(-67.06 -175.58)"/><path class="cls-3" d="M113.45,297.94s14.36,13.49,32.88,16.87,88.48,2.13,88.48,2.13l.1-1.85s-23.63-.54-38.95-4c0,0-23.2,1.54-40.82-1.91s-24.7-9-24.7-9Z" transform="translate(-67.06 -175.58)"/><path class="cls-3" d="M258.15,316.91s52.18,1.39,72.73-.24,35.51-7.49,43-11.47,18.46-9,18.46-9l.24-1.07s-22.43,5.21-33.78,5.77c0,0-9,6-29,7.84s-30.16.17-30.16.17-32.52,5.3-41.28,5.36Z" transform="translate(-67.06 -175.58)"/><path class="cls-4" d="M424.35,287.3s-6.14,11.58-17.93,16.57-52.55,8.91-52.55,8.91,15.85-4.16,22.22-8.75c0,0,34.43-5,38.45-13.66Z" transform="translate(-67.06 -175.58)"/><path class="cls-4" d="M173.59,319.22s35.06,8.82,68.58,9.29,77.93-9.61,77.93-9.61l.49-1.71s-21.68.36-27.84.28a285.6,285.6,0,0,1-44.72,5,136.36,136.36,0,0,1-40.27-5.19l-34.71-.39Z" transform="translate(-67.06 -175.58)"/><path class="cls-3" d="M95.87,293.36s8.41,9.5,27.27,11.88c0,0,12,6.88,17.6,8.22,0,0-3.9-.25-9.42-1C117.12,310.56,92.25,305.46,95.87,293.36Z" transform="translate(-67.06 -175.58)"/><path class="cls-3" d="M214.81,326.57a305.52,305.52,0,0,1-39,.55c-17.89-1.12-35.36-5-42.91-14.45l7.86.79s4.34,5.56,23,7.73S188,322.33,188,322.33,211.24,326.17,214.81,326.57Z" transform="translate(-67.06 -175.58)"/><path class="cls-3" d="M276.58,326.31s27.15,2.82,51.81.17,53.89-17.24,53.89-17.24L361.48,312s-9.52,6.16-28.16,8.3-25.73,1.18-25.73,1.18S281,325.8,276.58,326.31Z" transform="translate(-67.06 -175.58)"/><path class="cls-4" d="M433.32,283.35s2.14,6.61-.53,9.43-18.3,6.15-18.3,6.15a57.64,57.64,0,0,0,6-6S432.8,287.09,433.32,283.35Z" transform="translate(-67.06 -175.58)"/><path class="cls-4" d="M412,300.78s-4.1,7.6-7.49,10.63-21,7.24-32.59,8.9-24.75,2.36-24.75,2.36,14.52-4.56,20.11-6.86C367.3,315.81,405.75,309,412,300.78Z" transform="translate(-67.06 -175.58)"/><path class="cls-4" d="M185.32,327.48s21.42,7.95,53.46,8.88,73.84-8.64,73.84-8.64-23-.42-27.45-.74A222.91,222.91,0,0,1,246,330.83c-22.48.31-34.93-4-34.93-4S188,327.54,185.32,327.48Z" transform="translate(-67.06 -175.58)"/><path class="cls-4" d="M146,321.47s-16.4-2.22-28.47-5.61-13.2-7.94-13.2-7.94l-.5-2.58s15.18,7.33,30.2,8.6C134,313.94,140.46,319.62,146,321.47Z" transform="translate(-67.06 -175.58)"/><path class="cls-4" d="M215.05,334.32s-20.71,2.15-36.89,1.37-32.83-10.75-37.83-15.07l5.63.85s10.46,5.9,26.39,7.95,20.6.4,20.6.4S209.43,333.59,215.05,334.32Z" transform="translate(-67.06 -175.58)"/><path class="cls-3" d="M279.24,333.64s27.18,2.72,48.89,1.44S366.41,321,366.41,321l-10.76,1.06s-13.94,5.83-28.11,7-22.09.13-22.09.13S283.93,333.76,279.24,333.64Z" transform="translate(-67.06 -175.58)"/><path class="cls-4" d="M401.85,313.32s2.42,4.83-10.83,8.91-39.55,7.14-39.55,7.14l12.28-6.51S395.53,317.07,401.85,313.32Z" transform="translate(-67.06 -175.58)"/><path class="cls-3" d="M424.9,295.52s4.51,4.38-1.39,6.75A99.19,99.19,0,0,1,409,306.34l1.6-3s5.61-3.19,7.44-5.18Z" transform="translate(-67.06 -175.58)"/><path class="cls-3" d="M402,314.8s10.76-2.16,14.28-5.17,2.51-5.73,2.51-5.73l-7,1.84s-3.6,6.67-9.89,7.58Z" transform="translate(-67.06 -175.58)"/><path class="cls-3" d="M113.47,314.56s3.34,5.28,13.54,8.89,28.55,6.26,28.55,6.26-10.17-5.28-13.18-7.49c0,0-14-1.93-16.57-4.31Z" transform="translate(-67.06 -175.58)"/><path class="cls-4" d="M192.28,335.77s25.35,6.61,47.89,7.19,64.47-5.44,72.8-7.54c0,0-20.29,0-25-1.06,0,0-26,4.62-48.36,3.55s-28.28-3.25-28.28-3.25Z" transform="translate(-67.06 -175.58)"/><path class="cls-3" d="M150.88,329s6.68,9.39,20.85,11.42,38.76-.75,38.76-.75-14.34-2.93-14.9-3.07a66.1,66.1,0,0,1-25.79-2s-10.22-2.69-14.24-4.83Z" transform="translate(-67.06 -175.58)"/><path class="cls-3" d="M123.44,322s1.58,5.33,12.84,8.95a110,110,0,0,0,21.94,4.51l-7.34-6.5S129.91,325.92,123.44,322Z" transform="translate(-67.06 -175.58)"/><path class="cls-4" d="M192,341.23s17.51,5,43.3,7.37,71.4-6.06,71.4-6.06L286.84,341s-17.11,3.15-32.28,3.3a143.16,143.16,0,0,1-26.47-2.11l-17.6-2.52Z" transform="translate(-67.06 -175.58)"/><path class="cls-3" d="M358.73,328.44c-.54.07-8.27,4.59-17,8.29A68.34,68.34,0,0,1,329,341c-12.13,2.44-33.94,1.43-45.82-.52l-.84-.33,17.34-2.33a61.54,61.54,0,0,0,18.34,1c10.45-.94,15.47-4.28,15.47-4.28s14.1-2.25,18-5.16Z" transform="translate(-67.06 -175.58)"/><path class="cls-3" d="M396.66,320.37s-4,8.05-15.59,10.36c-6.63,1.32-19.21,3.38-28.78,4.91-7.19,1.14-12.67,2-12.67,2l15.2-7.2S385.84,325.4,396.66,320.37Z" transform="translate(-67.06 -175.58)"/><path class="cls-3" d="M280.12,346.5s11.13,3.83,30.56,3.26,32.76-9.35,38.84-13.68l-9.33,1.46s-8.27,2.38-13.14,3.8a48.8,48.8,0,0,1-14.63,4,53.64,53.64,0,0,1-16.13-1Z" transform="translate(-67.06 -175.58)"/><path class="cls-3" d="M163.35,339.2a91.51,91.51,0,0,0,36.91,4.06L214.4,346s-14.86,1.45-26.84,1.3S163.35,339.2,163.35,339.2Z" transform="translate(-67.06 -175.58)"/><path class="cls-4" d="M299.27,349.63s-28.92,5.47-52.89,5.28-45.64-8-45.64-8l13.66-1s20.5,3,23.85,3c0,0,7.7,1.09,23.08.37s21.82-2,21.82-2S293.86,349.46,299.27,349.63Z" transform="translate(-67.06 -175.58)"/><path class="cls-4" d="M334.61,344.54s27-3.75,37.49-8.37l10.51-4.62s-27.85,5.71-34.5,6.37Z" transform="translate(-67.06 -175.58)"/><path class="cls-5" d="M85.29,211.33l2.81,18.38S78.34,248,75.4,256.28s-2.74,42.38-2.74,42.38,1.32,12.15,3,16.23,33.46,37.05,49.65,47.65S154,374,154,374s10.57,12.63,35.26,12.2,27.93-1.52,27.93-1.52,4.64,7.91,25.21,7.64S289.23,389,289.23,389s42.84-4.23,59.15-8.25,34-11.68,34-11.68l11-14s14.93-3.74,17.42-8.84l2.48-5.1s17.22-7.18,16.59-10.56.56-9.92.56-9.92,4-4.91,2.31-8.92l-1.7-4s4.91-5.74,2.63-10.33c0,0-1.15-9.48-3.36-11,0,0,3.13-9.55-2.46-13.31,0,0,5.91-7.14,3.77-10l-2.13-2.89s4.6-7.58-.31-10.68a134.61,134.61,0,0,0,.84-14.77c-.2-5.48-3.84-10.08-3.84-10.08s.49-6.74-4.59-8.28-6-2.21-6-2.21Z" transform="translate(-67.06 -175.58)"/><path class="cls-1" d="M169.24,231.1s37.87,4.69,64.9,4.88,62.4-1.94,73.55-2.73,13.11-.88,13.11-.88l-.29-3.23s-15.4-1.6-55.82-4-73.3-2.25-73.3-2.25l-21.8,4.58Z" transform="translate(-67.06 -175.58)"/><path class="cls-2" d="M229.33,226.82l25.16.28s1.46,85.75,1.1,110.74,2,56.76,2,56.76a67.28,67.28,0,0,1-18.87-.21S218.88,301.06,229.33,226.82Z" transform="translate(-67.06 -175.58)"/><path class="cls-2" d="M376.91,222.29l14.91-1.75c11.1,20.07,10.19,21.23,12.88,47,2.71,26.1,18.21,89.85-35.05,108.74l-12.18,3.22s30.36-25.54,33-47.69S376.91,222.29,376.91,222.29Z" transform="translate(-67.06 -175.58)"/><path class="cls-2" d="M147.74,222.79l22.17,1.86s-16,130.28,14.16,163.12c0,0-19.63-2.19-27.62-12.57C142.28,356.8,140.43,259.34,147.74,222.79Z" transform="translate(-67.06 -175.58)"/><path class="cls-2" d="M114.62,220.62s-25.18,83.87-7.35,130.46c0,0-16.34-10.61-18.64-19.71s-4.78-77.89,12-112.23Z" transform="translate(-67.06 -175.58)"/><path class="cls-2" d="M320.26,226.25,343.61,225s3.83,69.63,2.91,98.53S316.69,389.76,311,391.38s-16.22-.19-16.22-.19,23.05-8.14,27.2-56.83S320.26,226.25,320.26,226.25Z" transform="translate(-67.06 -175.58)"/><path class="cls-3" d="M190.49,233.37c-5.42.23-12.26.61-21.41.51-14.11-.16-29.44-2.39-33.33-4.35-6.91-.28-15.93-.68-23.33-1.15l-1,4.34s9.49,1.87,21.77,4.11,21.26,3.43,39.44,3.22,42.91,0,55,1.72l.57-5.9C215.67,235.52,201.69,234.42,190.49,233.37Z" transform="translate(-67.06 -175.58)"/><path class="cls-3" d="M254.92,241.24s38.75,0,58-.26,28.4-.27,41.06-2.73a236.4,236.4,0,0,1,25.2-3.33l-1-5.76-19.36,1.63s-27.87,5.15-53.26,2.61l-50.91,2.37Z" transform="translate(-67.06 -175.58)"/><path class="cls-1" d="M402.3,225.16s12.53-.29,18.05-2.06,2.94-4.09,2.94-4.09,4.75-2.56,7.89-.66,5.26,7.62-4.08,10-29.2,3.9-29.2,3.9l-1.82-4.64S400.32,227.21,402.3,225.16Z" transform="translate(-67.06 -175.58)"/><path class="cls-1" d="M96,230.87s-4.64,1.87-5.72,4.35-1.65,7.05,18.45,7.53,36.09,2.5,36.09,2.5l.67-6.46L125,235.33S96.06,234.35,96,230.87Z" transform="translate(-67.06 -175.58)"/><path class="cls-4" d="M168.35,246.92s16.63.3,29.19,1.85,24,3.3,48.76,2.93,35.84-2.83,50.61-3.31,25-.49,25-.49l-.46-7.05s-40.66.36-44.31.37-22.83,2.24-37.35,2.08-21.68-2.22-32.52-3-38.53-.24-38.53-.24Z" transform="translate(-67.06 -175.58)"/><path class="cls-4" d="M344.68,246.54s31-2.31,42.83-2.95,17.22-1.44,20.48-3.89,3.22-8.81,3.22-8.81l-10.15,1.05s-4.65,2.76-13.76,3.41-17.25.46-17.25.46-22.71,2.89-25.69,3.93Z" transform="translate(-67.06 -175.58)"/><path class="cls-4" d="M89.91,237.68c-1.49-1.28-2.52-2.81-1.12-4,3-2.62,3.63-3.08,3.63-3.08l-4.32-.85-3.17.77s-5.76,1.44-7,5.12,1,8.41,14.27,9.59l1.45-4.4C91.19,239.87,90.19,238.76,89.91,237.68Z" transform="translate(-67.06 -175.58)"/><path class="cls-3" d="M108,247.79a282.21,282.21,0,0,0,51.42,7.66c29.18,1.68,67.26,1.33,67.26,1.33l.31-5.6s-23.92-2.58-31-2.6-16.25-.07-33.34-.38S126,243.54,126,243.54l-17.25-.79Z" transform="translate(-67.06 -175.58)"/><path class="cls-3" d="M255.35,257.38h1.26c5.4-.12,39.86-.89,53.66-1,15-.08,26.63,0,43.36-2.78s27.87-5,27.87-5l-.85-5.11s-20.2,1.54-25.77,2.85c-4.92,1.16-19.15,2.61-30.24,2.4s-16.19-.69-16.89-.67-11.06,0-20,.84-29.89,2.45-32.9,2.55Z" transform="translate(-67.06 -175.58)"/><path class="cls-3" d="M409.87,237.28s7.33,0,12.86-1.9,2.61-6.66,2.61-6.66l4-1.12s1.52,5.71,2.48,8.91-2.43,4.81-8.71,5.93-20.84,3.65-20.84,3.65l-.79-3.87S408.78,241,409.87,237.28Z" transform="translate(-67.06 -175.58)"/><path class="cls-1" d="M87.82,244.6s-1.7,3-1.58,5.43.59,4.91,21.24,6.34,36.85,2.5,36.85,2.5l0-4.83s-18.6-2.25-23.17-3.38c0,0-27.12-.45-28.87-5.47Z" transform="translate(-67.06 -175.58)"/><path class="cls-4" d="M166.87,260.31s33.87,5.95,63.68,5.86,27.9-.1,47-2.32,45.15-1.75,45.15-1.75l.32-5.8s-46.24.64-48.54.69-14.46,3.26-33.31,3a195.18,195.18,0,0,1-33-3.19s-36.62-.73-41-.94Z" transform="translate(-67.06 -175.58)"/><path class="cls-4" d="M345.28,260.25a263.19,263.19,0,0,1,29.1-2.44c14.3-.25,28.47-1.35,34.06-3.56s5.23-5.49,5.23-5.49l-.81-4.51-7.93,1.38s-2,3.69-11.78,4.5a73.48,73.48,0,0,1-17-.47s-26.76,4.72-31.08,5.2Z" transform="translate(-67.06 -175.58)"/><path class="cls-3" d="M427.22,241.51s.13,7-13.63,8.08c0,0-.77,4.37-10,5.95l-.18,3.11s24.39-4.18,28.77-6.9,1.68-9.5-1.59-11.79Z" transform="translate(-67.06 -175.58)"/><path class="cls-3" d="M79.2,240.86s-5.35,2.18-5.08,6.81S90.31,256,90.31,256l.33-2.07s-5.21-.28-4.34-5l.22-1.14s-6.43-1.37-3.73-4.64A24.25,24.25,0,0,1,79.2,240.86Z" transform="translate(-67.06 -175.58)"/><path class="cls-3" d="M105.67,259.76s20.84,6.41,41.18,8.4,34.6,2.5,48.05,1.73,31.41.86,31.41.86l-.19-4.81s-25.79-.73-43.66-3.31c0,0-21.36-.19-33.61-1.67s-15.62-2.83-15.62-2.83l-26.93-1.85Z" transform="translate(-67.06 -175.58)"/><path class="cls-3" d="M255.16,270.4s31.4,0,54,0,30.67.09,41.92-2.38,32.72-5.19,32.72-5.19l-.82-5.23-15.62.53s-8,3.85-24.28,4.75a257.19,257.19,0,0,1-33.45-.72s-18.87.28-28.4,1.35-22.48,2.82-25.8,2.47Z" transform="translate(-67.06 -175.58)"/><path class="cls-4" d="M90.31,256s-3.24,2-3.59,5.35,5.6,5.73,22.66,7,33.93,3,33.93,3l.42-3.53s-18.49-3-29.75-5.76-.7-.18-.7-.18S89.88,261.6,90.31,256Z" transform="translate(-67.06 -175.58)"/><path class="cls-4" d="M166.18,273.23s31.82,3.14,51.15,5.21,36.47,2.58,53,.07,29.34-3.14,37.64-3.67,15.16-.51,15.16-.51l-.13-4-45.84.1S266.79,272,249,272.09s-39.1-2.3-39.1-2.3a173.48,173.48,0,0,0-19.16.29,208.73,208.73,0,0,1-24.37-.19Z" transform="translate(-67.06 -175.58)"/><path class="cls-4" d="M345.81,273.88s24.16-1.2,43.05-2.83,20.37-3.24,22.8-5.53,2.91-9,2.91-9l-8.48,1.63s-2.82,4.47-12.09,5-14.1.13-14.6.19-19.34,2.77-25.38,4-8.39,1.64-8.39,1.64Z" transform="translate(-67.06 -175.58)"/><path class="cls-3" d="M433.3,250.84s3.28,7.4.47,9.76-23.61,6.23-23.61,6.23,2.77-2.48,3.35-4.69c0,0,14.5-4.46,14.91-5.93a3.35,3.35,0,0,0-.67-2.76S432.61,251.87,433.3,250.84Z" transform="translate(-67.06 -175.58)"/><path class="cls-4" d="M78,251.63s-6.73,1.93-6.19,6.41c.18,1.48,2.07,2.86,4.52,4a67,67,0,0,0,12.22,4l.56-1.46s-3.49-2.14-2.06-4.54c0,0-8-2-8.23-4.2S80.86,253,80.86,253Z" transform="translate(-67.06 -175.58)"/><path class="cls-3" d="M104,270.14s21.53,4.72,30.54,7.78,17.09,4.29,34.14,4.36,30.8.3,41.9.48,15.8.62,15.8.62l.23-4.06-26.15-2.64s-18.66.46-31.07.12-23.19-1.63-29.58-3.2a125.77,125.77,0,0,1-12.33-3.77l-23.14-1.94Z" transform="translate(-67.06 -175.58)"/><path class="cls-3" d="M255.3,283.2s25.69-.65,45.56-.61,41.65,1.1,57.44-2.31,27.24-5.95,27.24-5.95l-1.09-2.92-19.55,1.38s-1.37,1.64-21.82,3.13-44.18-.5-44.18-.5-15.31,1.23-21.35,2.07-17,2.31-22.07,2.49Z" transform="translate(-67.06 -175.58)"/><path class="cls-4" d="M418.81,265.07s-5.75,13.54-12.47,15.17-18.29,2.33-29.85,2.32A163,163,0,0,1,354.6,281l25.94-5.55a54.94,54.94,0,0,0,19.2-2.05c9.51-3,11.85-6.54,11.85-6.54Z" transform="translate(-67.06 -175.58)"/><path class="cls-4" d="M166.15,285.86s22.23,2.69,40.61,5.09,37.65,4.71,52.4,2.53S294,289,305,288s18.41-.89,18.41-.89l.25-4.37-36-.13s-42.13,7-71.39.25l-49.86-.63Z" transform="translate(-67.06 -175.58)"/><path class="cls-4" d="M85.36,265.26s-3.71,9.39,3,12.15,16.53,3.59,29.72,4.23,25.49,2.54,25.49,2.54l.2-3.46s-5.3-1.84-12.3-3.77-12.63-3.36-12.63-3.36-14.55-.7-20.83-2a17.1,17.1,0,0,1-9.48-5.5Z" transform="translate(-67.06 -175.58)"/><path class="cls-3" d="M87.32,276.89S72.1,274.2,70,271.32s-1.72-8.61,4.67-10.13l4.36,2s-2.53,3.46-.72,5.16,6.06,1.83,6.06,1.83S84,275.52,87.32,276.89Z" transform="translate(-67.06 -175.58)"/><path class="cls-4" d="M74.67,273.8s-5.74,1.54-6.51,5.23,3.4,9.62,18.43,10.8l.73-2.6s-3-2.45-3-3.72c0,0-8.63-1.22-9-3.57s1.76-5.4,1.76-5.4Z" transform="translate(-67.06 -175.58)"/><path class="cls-4" d="M73,286.36s-5,.91-4.33,5.2,10.8,9.53,18.3,10.63l.08-5s-12.87-3.26-13.11-5.2,1.94-4.27,1.94-4.27Z" transform="translate(-67.06 -175.58)"/><path class="cls-4" d="M87.24,316.73s-12.48-5.32-16.58-7.66-4.26-6.28-2.65-7.94a11.89,11.89,0,0,1,4.65-2.47s-2.38,4.6,1,6.65S87,310,87,310Z" transform="translate(-67.06 -175.58)"/><path class="cls-4" d="M88.13,328.52s-11.82-3.93-13.51-8.41a10.6,10.6,0,0,1,.47-8.31l1.94.41s3.32,8.4,10.5,9.82Z" transform="translate(-67.06 -175.58)"/><path class="cls-3" d="M108.25,281.06s18.83,12.51,47.09,14.85,35.19,1.32,50.2,1.07,21.31.92,21.31.92l-.19-4.61-28.6-3.46s-15.11,1.18-38.79-1-31.08-6.45-31.08-6.45Z" transform="translate(-67.06 -175.58)"/><path class="cls-3" d="M255.46,298.23s19.32-.21,44.51.17,39.83,1.84,53.81-2.81,33.29-10.38,33.29-10.38l.16-2.85s-16.29.74-20.94.1c0,0-15.16,6.27-30,7.44S294.7,289,294.7,289s-29.16,3.31-39.28,4.89Z" transform="translate(-67.06 -175.58)"/><path class="cls-4" d="M431.56,261.69s5.07,6.74,2.54,10.29-24.61,6.65-24.61,6.65a41.57,41.57,0,0,0,5.78-6.87s15.16-2.4,15.07-4.7a8.26,8.26,0,0,0-1.88-4.36Z" transform="translate(-67.06 -175.58)"/><path class="cls-4" d="M346.55,300.77s12.32-2.29,25.8-3.82,34-5.08,39.15-9.39a21.4,21.4,0,0,0,6.62-10.38l-6.1,1.17s-1,5.51-15.45,8.2a208.58,208.58,0,0,1-24.6,3.24l-25.48,7.68Z" transform="translate(-67.06 -175.58)"/><path class="cls-4" d="M322.48,303s-16.48,1.07-35.6,2.45-38.27,3.16-57.25,2-63.94-6.73-63.94-6.73l.22-4s18.61,1.56,34.79.4c0,0,13.36,3.52,42.41,3.52s41-2.57,41-2.57l39.3.84Z" transform="translate(-67.06 -175.58)"/><path class="cls-4" d="M143.78,298.39s-39.16-3.6-45.92-5.72-17.19-7.74-13.13-16.29l2.59.51s6.23,10.95,33.9,11.12c0,0,16.38,6,21.77,6.18Z" transform="translate(-67.06 -175.58)"/><path class="cls-3" d="M101.25,296.47s18.17,11,45.65,14.63,46.53.54,62.21.71,18.6.47,18.6.47l-.34-5L190,303.6a227.38,227.38,0,0,1-32,.41,84.67,84.67,0,0,1-27.76-6.95l-28.86-3.59Z" transform="translate(-67.06 -175.58)"/><path class="cls-3" d="M255.58,312.34s43.73-1.43,66.42-.75,34.08-4.38,41.49-7.5,25-8.11,25-8.11l.08-1.39-30.61,4.29s-1.89,2.93-14.22,4.3-28.15.36-28.15.36l-60,4Z" transform="translate(-67.06 -175.58)"/><path class="cls-3" d="M407.8,292.31s21.68-3.45,25.48-5.84,3.66-6,2-7.85-7.07-3.8-7.07-3.8,3.38,3.64.58,6.39-14.21,3.1-14.21,3.1-1.51,2.7-7,5.65Z" transform="translate(-67.06 -175.58)"/><path class="cls-4" d="M86.55,290.5s-2,7.79,9.44,13.55,48.44,9.54,48.44,9.54l.16-2.81s-25-4.52-38.48-11.74c0,0-13.35-3.43-14.65-8.48l-4.14-3.33Z" transform="translate(-67.06 -175.58)"/><path class="cls-4" d="M166.07,316.37s40.42,7.43,68.61,7.84,45.12-2.68,62.86-4.5,25.33-1.89,25.33-1.89l.35-6.2s-14.1-.4-22.94.07-22,4.36-46.09,4.08a312,312,0,0,1-45.08-4s-16.38.59-22.43.78-20.75.25-20.75.25Z" transform="translate(-67.06 -175.58)"/><path class="cls-4" d="M347.07,314.06s12.95-1.7,28.94-3.71,27.58-4.48,34.71-8.85,11.75-11.9,11.75-11.9l-10.92,2.08s-6.07,5.56-23.35,8.81S364.73,304,364.73,304s-12.46,4.73-18.08,5.72Z" transform="translate(-67.06 -175.58)"/><path class="cls-4" d="M431.36,288.71s5.43,2.53,4.28,6.41-13.75,6.68-18.95,7.46-8,1.25-8,1.25l-.57-.92a46,46,0,0,0,7.11-4.82s13.95-1.92,15.48-4S431.36,288.71,431.36,288.71Z" transform="translate(-67.06 -175.58)"/><path class="cls-3" d="M255.64,327.13s32.65.29,54,.2,35.68-1.19,44.76-5.71,35.51-12.09,35.51-12.09l-.12-1.25-26,3.75a116.31,116.31,0,0,1-24,7.32c-12.1,2-42.16.36-42.16.36s-18.78,2.21-23.33,2.66-18.57,1.48-18.57,1.48Z" transform="translate(-67.06 -175.58)"/><path class="cls-3" d="M229,327.75s-35.09.19-51.3-.08-27.39-2.07-42.84-6.45a70.49,70.49,0,0,1-25.19-13l13.93,2.58s20,8.13,42.67,9.9,30.83.38,30.83.38,23.39,3.2,31.55,2.9Z" transform="translate(-67.06 -175.58)"/><path class="cls-4" d="M83.83,301.54s-1.42,12.69,17.37,18.37,44.23,7.41,44.23,7.41l-.29-3.44s-21.2-5.15-25.25-8.8c0,0-21.7-3.27-26.56-7.78S87,302.19,87,302.19Z" transform="translate(-67.06 -175.58)"/><path class="cls-4" d="M167,330.92s23.19,3.71,41.53,6.77a199.55,199.55,0,0,0,60.45.69c20.62-3,53.1-6.62,53.1-6.62l.4-4.66-29.79.45a206.17,206.17,0,0,1-38.5,4c-22.23.34-52.87-3.62-52.87-3.62s-27.78-.13-34.11-.72Z" transform="translate(-67.06 -175.58)"/><path class="cls-3" d="M101.42,323s27.88,12.57,50.37,17,47.6,3.31,60.31,3.12,18.57-.05,18.57-.05l-.34-2.9s-27.29-2.4-34.47-4.65a347.11,347.11,0,0,1-37.74-1.41c-19.29-1.9-27.14-8.36-27.14-8.36s-20.14-2.86-29.78-5.91Z" transform="translate(-67.06 -175.58)"/><path class="cls-4" d="M84.81,315.68s-.63,13.28,11,17.45,36.12,7.08,51,6.77l-.13-1L129,333.77s-21.72-2.53-29.55-5.81a21,21,0,0,1-10.72-10.61Z" transform="translate(-67.06 -175.58)"/><path class="cls-3" d="M255.55,342.43s60.6.52,81.78-2.85,30.69-9.65,35.61-12.37A130,130,0,0,1,387,321.15l-28.46,4.47s-15.41,7.38-32.05,8.62a210.51,210.51,0,0,1-28.58.33s-15.93,2-24.59,3.18-17.65,2.08-17.65,2.08Z" transform="translate(-67.06 -175.58)"/><path class="cls-4" d="M364.72,317.48s18-1.92,32.56-6,15.06-8.19,15.06-8.19l8.73-1.48s-6.09,10.71-15,14.47-50,11.05-59.83,11.13l.24-2.95a46.11,46.11,0,0,0,7.91-2.8C359.61,319.37,364.72,317.48,364.72,317.48Z" transform="translate(-67.06 -175.58)"/><path class="cls-3" d="M433.63,297.37s6,4.88,3.05,9.56c-1.3,2.09-7,4.15-12.95,5.78-7.3,2-14.92,3.4-14.92,3.4l.07-1.25s5.85-4.71,7.18-6.28c0,0,11-2.61,13.38-4.51s1.43-5.24,1.43-5.24Z" transform="translate(-67.06 -175.58)"/><path class="cls-4" d="M343,341.53s39.05-4.3,56.86-10.4,23.85-18.42,23.85-18.42l-10.67,2.55s-7.57,7-24.13,11.37-22.6,4.19-22.6,4.19-14,6-22.15,7.49Z" transform="translate(-67.06 -175.58)"/><path class="cls-3" d="M433.35,309.78a8.3,8.3,0,0,1,3.48,6.09c.19,3.92-14.48,11.39-29.34,13.57l.07-1.37a56.61,56.61,0,0,0,8-5.73s14.76-3.08,16.55-6.53a5.25,5.25,0,0,0-.24-5.8Z" transform="translate(-67.06 -175.58)"/><path class="cls-4" d="M168.63,345.13s36.66,9.33,64.52,9.39,42.51-3.38,62.6-6.26,24.83-3.83,24.83-3.83l.61-3.15s-26.31.87-29.49.93c0,0-19.11,5-36.46,5.76S207,343.64,207,343.64s-16.22,0-24.31-.35-14.68-.91-14.68-.91Z" transform="translate(-67.06 -175.58)"/><path class="cls-3" d="M111.06,336.85s14.33,13.93,32.85,17.41,88.47,2.17,88.47,2.17l.11-1.91s-23.63-.55-39-4.15c0,0-23.2,1.59-40.81-2S128,339.08,128,339.08Z" transform="translate(-67.06 -175.58)"/><path class="cls-3" d="M255.73,356.39s52.18,1.43,72.73-.28,35.53-7.74,43-11.86S389.93,335,389.93,335l.24-1.11s-22.44,5.39-33.79,6c0,0-9,6.24-29.05,8.11s-30.16.18-30.16.18-32.53,5.49-41.29,5.56Z" transform="translate(-67.06 -175.58)"/><path class="cls-4" d="M422,325.73s-6.17,12-18,17.13-52.56,9.22-52.56,9.22,15.85-4.3,22.23-9c0,0,34.45-5.19,38.48-14.13Z" transform="translate(-67.06 -175.58)"/><path class="cls-4" d="M171.16,358.81s35,9.11,68.57,9.57,77.94-10,77.94-10l.5-1.76s-21.68.37-27.85.3a276.69,276.69,0,0,1-44.72,5.18,132.13,132.13,0,0,1-40.26-5.34l-34.71-.4Z" transform="translate(-67.06 -175.58)"/><path class="cls-3" d="M93.49,332.12s8.39,9.82,27.25,12.26c0,0,12,7.11,17.58,8.5,0,0-3.9-.27-9.41-1C114.71,349.88,89.84,344.63,93.49,332.12Z" transform="translate(-67.06 -175.58)"/><path class="cls-3" d="M212.36,366.39a294.4,294.4,0,0,1-39,.58c-17.89-1.14-35.35-5.12-42.88-14.91l7.86.82s4.33,5.74,23,8S185.52,362,185.52,362,208.8,366,212.36,366.39Z" transform="translate(-67.06 -175.58)"/><path class="cls-3" d="M274.14,366.1s27.14,2.9,51.81.16,53.92-17.84,53.92-17.84l-20.81,2.83s-9.52,6.37-28.17,8.59-25.73,1.22-25.73,1.22S278.52,365.57,274.14,366.1Z" transform="translate(-67.06 -175.58)"/><path class="cls-4" d="M431,321.65s2.13,6.83-.55,9.74-18.3,6.37-18.3,6.37a58,58,0,0,0,6-6.19S430.44,325.51,431,321.65Z" transform="translate(-67.06 -175.58)"/><path class="cls-4" d="M409.63,339.67s-4.11,7.85-7.5,11-21.06,7.49-32.62,9.21-24.75,2.46-24.75,2.46,14.53-4.73,20.12-7.11C364.88,355.21,403.35,348.11,409.63,339.67Z" transform="translate(-67.06 -175.58)"/><path class="cls-4" d="M182.88,367.34s21.4,8.2,53.44,9.15,73.86-8.95,73.86-8.95-23-.43-27.45-.75a216.56,216.56,0,0,1-39.14,4c-22.48.33-34.92-4.07-34.92-4.07S185.54,367.41,182.88,367.34Z" transform="translate(-67.06 -175.58)"/><path class="cls-4" d="M143.52,361.15s-16.38-2.29-28.46-5.79-13.18-8.2-13.18-8.2l-.49-2.67s15.16,7.57,30.18,8.88C131.57,353.37,138,359.23,143.52,361.15Z" transform="translate(-67.06 -175.58)"/><path class="cls-4" d="M212.6,374.39s-20.72,2.24-36.9,1.44-32.81-11.1-37.8-15.56l5.62.88s10.45,6.09,26.38,8.2,20.6.4,20.6.4S207,373.64,212.6,374.39Z" transform="translate(-67.06 -175.58)"/><path class="cls-3" d="M276.79,373.67s27.17,2.8,48.89,1.47S364,360.6,364,360.6l-10.76,1.1s-14,6-28.13,7.26-22.08.14-22.08.14S281.47,373.79,276.79,373.67Z" transform="translate(-67.06 -175.58)"/><path class="cls-4" d="M399.43,352.63s2.41,5-10.84,9.21-39.57,7.4-39.57,7.4l12.3-6.74S393.11,356.5,399.43,352.63Z" transform="translate(-67.06 -175.58)"/><path class="cls-3" d="M422.52,334.23s4.5,4.52-1.4,7a95.83,95.83,0,0,1-14.53,4.21l1.59-3.14s5.62-3.31,7.46-5.36Z" transform="translate(-67.06 -175.58)"/><path class="cls-3" d="M399.58,354.15s10.76-2.23,14.29-5.34,2.52-5.92,2.52-5.92l-7.05,1.9s-3.61,6.9-9.91,7.84Z" transform="translate(-67.06 -175.58)"/><path class="cls-3" d="M111.05,354s3.32,5.46,13.52,9.19,28.54,6.46,28.54,6.46-10.16-5.46-13.17-7.73c0,0-14-2-16.55-4.46Z" transform="translate(-67.06 -175.58)"/><path class="cls-4" d="M189.82,375.9s25.34,6.82,47.88,7.42,64.49-5.65,72.82-7.83c0,0-20.29,0-25-1.08,0,0-26,4.79-48.36,3.69s-28.27-3.34-28.27-3.34Z" transform="translate(-67.06 -175.58)"/><path class="cls-3" d="M148.44,368.89s6.66,9.7,20.82,11.8S208,379.9,208,379.9s-14.33-3-14.89-3.17a63.77,63.77,0,0,1-25.79-2.09s-10.21-2.77-14.23-5Z" transform="translate(-67.06 -175.58)"/><path class="cls-3" d="M121,361.71s1.58,5.51,12.83,9.25a106.68,106.68,0,0,0,21.93,4.64l-7.32-6.71S127.47,365.75,121,361.71Z" transform="translate(-67.06 -175.58)"/><path class="cls-4" d="M189.5,381.55s17.5,5.2,43.29,7.59,71.42-6.29,71.42-6.29l-19.84-1.6s-17.11,3.25-32.29,3.41a138.67,138.67,0,0,1-26.46-2.17L208,379.9Z" transform="translate(-67.06 -175.58)"/><path class="cls-3" d="M356.29,368.26c-.55.08-8.28,4.75-17,8.58a68.1,68.1,0,0,1-12.8,4.41c-12.14,2.52-33.95,1.49-45.82-.52l-.84-.34L297.2,378a59.47,59.47,0,0,0,18.33,1C326,378,331,374.57,331,374.57s14.1-2.33,18-5.33Z" transform="translate(-67.06 -175.58)"/><path class="cls-3" d="M394.24,359.92s-4,8.31-15.62,10.71c-6.63,1.37-19.22,3.5-28.79,5.08-7.19,1.18-12.67,2.06-12.67,2.06l15.21-7.44S383.41,365.12,394.24,359.92Z" transform="translate(-67.06 -175.58)"/><path class="cls-3" d="M277.65,387s11.11,4,30.54,3.35,32.78-9.67,38.87-14.15l-9.33,1.51s-8.27,2.46-13.15,3.93a47.37,47.37,0,0,1-14.64,4.1,51.92,51.92,0,0,1-16.12-1.06Z" transform="translate(-67.06 -175.58)"/><path class="cls-3" d="M160.88,379.45a88.73,88.73,0,0,0,36.91,4.19l14.13,2.78s-14.86,1.51-26.84,1.36S160.88,379.45,160.88,379.45Z" transform="translate(-67.06 -175.58)"/><path class="cls-4" d="M296.79,390.18s-28.94,5.67-52.91,5.48-45.62-8.21-45.62-8.21l13.66-1s20.49,3.05,23.85,3.07c0,0,7.69,1.13,23.07.38s21.83-2.05,21.83-2.05S291.38,390,296.79,390.18Z" transform="translate(-67.06 -175.58)"/><path class="cls-4" d="M332.13,384.91s27-3.88,37.52-8.66l10.51-4.78s-27.86,5.91-34.51,6.6Z" transform="translate(-67.06 -175.58)"/><path class="cls-6" d="M95.38,194s21.4-9,111.57-9.65,171.21,3.14,179.3,9.48,39.32,17-51.26,21.83S69.18,203.17,95.38,194Z" transform="translate(-67.06 -175.58)"/><path class="cls-4" d="M344,232.17s10.42-1,26.91-2.46,28.17-1.2,31.41-4.55l3.23-3.34s-10-1.26-28.18.49-33.06,4.39-33.06,4.39Z" transform="translate(-67.06 -175.58)"/><path class="cls-7" d="M96.47,203.93s-22.67-6-16.33-14.83,49.2-11.19,66.49-10.15c0,0,38.06-3.62,55.91-1.27,0,0,52.63-5.7,92.73,1.68,0,0,45.48-2.79,66.11,2.69,0,0,16.55-1.28,27.28,3.34,0,0,21.66-1.44,28.07,4,0,0,12.16,1.07,14.82,2.58a5.37,5.37,0,0,1,2.87,3.81s10.25.91,10.79,3.48l.54,2.57s-1.2,3.08-5.83,6-12.67,5.5-12.67,5.5,4.24-2.1,2.42-6.29c0,0-9.95-.94-13.76-3l-3.81-2s-7.18-.63-17.75-1.82-14-1.65-14-1.65S366,198,361.3,195.64c0,0-16.17.62-34.3-.52s-35.23-2.42-35.23-2.42-8,1.79-43.34,1.39-51.73-1.94-51.73-1.94-14.39-.5-34.35.31-29.91.71-29.91.71.23,2-13.6,3.75a209.3,209.3,0,0,1-22.42,1.76S99,204.68,96.47,203.93Z" transform="translate(-67.06 -175.58)"/><path class="cls-5" d="M259.38,182.54s-61.25-.5-81.71,1.49a171.12,171.12,0,0,1,47-6.51c25.74.17,40.08,1.49,40.08,1.49Z" transform="translate(-67.06 -175.58)"/><path class="cls-5" d="M96.42,198.68s2.53,6,0,5.25c0,0-22.67-6-16.33-14.83s49.2-11.19,66.49-10.15l.88-.08C65.56,186.61,96.42,198.68,96.42,198.68Z" transform="translate(-67.06 -175.58)"/><path class="cls-4" d="M139.31,178.73l1.71,0Z" transform="translate(-67.06 -175.58)"/><path class="cls-4" d="M146.63,179l-1.52-.08Z" transform="translate(-67.06 -175.58)"/><path class="cls-4" d="M138.68,178.72h0Z" transform="translate(-67.06 -175.58)"/><path class="cls-4" d="M134.66,178.74h0l2,0Z" transform="translate(-67.06 -175.58)"/><path class="cls-4" d="M96.82,199.71h0v0Z" transform="translate(-67.06 -175.58)"/><path class="cls-4" d="M142.91,178.79l-1.75,0Z" transform="translate(-67.06 -175.58)"/><path class="cls-4" d="M147.14,185.4s-.89-1.23-28.41,2.7c-23.1,3.3-20.55,8.81-19.14,10.49-2,.08-3.17.09-3.17.09s-6.77-2.65-5.54-6.26c.16-.33.34-.66.55-1,2.93-3.93,16-8.75,56.08-12.53,5.75-.52,38.77-3.33,55-1.19C183.73,178.61,147.14,185.4,147.14,185.4Z" transform="translate(-67.06 -175.58)"/><path class="cls-4" d="M96.74,199.49Z" transform="translate(-67.06 -175.58)"/><path class="cls-4" d="M144.63,178.85l-1.21,0Z" transform="translate(-67.06 -175.58)"/><path class="cls-4" d="M146.79,178.93h0Z" transform="translate(-67.06 -175.58)"/><path class="cls-4" d="M147.12,178.9l-.19,0Z" transform="translate(-67.06 -175.58)"/><path class="cls-5" d="M99.59,198.59c-1.41-1.68-4-7.19,19.14-10.49,27.52-3.93,28.41-2.7,28.41-2.7-7.58,2.13-27.73,9.17-37.06,12.47-5.16.47-9,.67-11.33.75h0Z" transform="translate(-67.06 -175.58)"/><path class="cls-3" d="M261.8,180.85c-56.6-5.49-129.36,12.32-129.36,12.32l-.2.36c-.62.66-3.14,2.1-13.4,3.39q-4,.5-7.44.82l-.16,0c29.65-16.16,89.43-20.16,89.83-20.19l1.47.17s51.48-5.57,91.4,1.44l.13.22C287.4,178.91,261.8,180.85,261.8,180.85Z" transform="translate(-67.06 -175.58)"/><path class="cls-1" d="M168.17,192.26c7.44-.71,29.57-2.83,45.08-4.4,18.9-1.9,57-6,72-7.33,3.64-.32,8.12-.79,12.8-1.32,10.18-.5,45.76-1.83,63.33,2.84-2,.1-17.35,1.75-17.35,1.75-17.8-4-71.43,1.92-97.63,5.17a443.81,443.81,0,0,1-49.7,3.18S185,191.74,168.17,192.26Z" transform="translate(-67.06 -175.58)"/><path class="cls-5" d="M326.6,178.69h0s-38,2.3-80.29,7c-25.92,2.89-58.52,5.86-76.09,6.48-2.51.07-5.15.15-7.89.26-20,.82-29.91.71-29.91.71l16.75-3.6s22.76,0,64.68-3.57,47.93-5.15,47.93-5.15,24.66-2,33.47-1.49C295.27,179.36,310.06,178.45,326.6,178.69Z" transform="translate(-67.06 -175.58)"/><path class="cls-5" d="M380.36,198.54s-1.56-.06-3.83-.23c4.61-.44,9.11-.88,9.48-.95.78-.13,19.55.37,21.62.25s28.7,2.48,30.23,2.7a49.46,49.46,0,0,1,7.88,1.49v0s-1.2,3.08-5.83,6c-.53.33-1.1.66-1.7,1-.8-1.35-3.27-3.52-10.91-4.09C416,203.9,412.1,202,412.1,202s-7.18-.63-17.75-1.82S380.36,198.54,380.36,198.54Z" transform="translate(-67.06 -175.58)"/><path class="cls-5" d="M199.79,192.39a2.9,2.9,0,0,1,.59-.09l.34.13h-.39Z" transform="translate(-67.06 -175.58)"/><path class="cls-5" d="M388.66,185.39l1,0,.11.07s-41.78,1.27-65.08,3.42-70.55,5-85.76,5.11c-19.68-.36-32.19-1.07-38.13-1.48l-.08,0c2.67,0,12.25-.35,43-1.9,52.42-2.63,93.21-6,100.29-6.73s17.35-1.75,17.35-1.75S377.93,180.77,388.66,185.39Z" transform="translate(-67.06 -175.58)"/><path class="cls-4" d="M361.3,195.64s-3.54.14-9.16.16l.26-.53s22.5-1.73,24.05-1.91,31.17-.15,48.68-.15c3,0,5.73.07,8.14.19a4.76,4.76,0,0,1,1.15,2.4s10.25.91,10.79,3.48l.54,2.57a5,5,0,0,1-.42.8c-.79-1.69-13.43-1.8-31.15-2.5s-33.82-1.61-33.82-1.61S366,198,361.3,195.64Z" transform="translate(-67.06 -175.58)"/><path class="cls-3" d="M405.3,188.64c4.18.08,7.81.22,11,.41a4.17,4.17,0,0,1,.47.36s12.16,1.07,14.82,2.58a5.37,5.37,0,0,1,2.87,3.81c-7.29-.12-15.32-.75-34.67,0s-38.45-.13-38.45-.13l-29-.24c-1.73-.08-3.49-.17-5.27-.28-18.13-1.15-35.23-2.42-35.23-2.42S378.55,188.13,405.3,188.64Z" transform="translate(-67.06 -175.58)"/><path class="cls-4" d="M416.73,189.41l1,.1c-13.45-.64-48.42,2-75,3s-51,.23-51,.23-8,1.79-43.34,1.39c-4.25-.05-8.21-.12-11.92-.2.13,0,68.86-4.37,96.77-6.51s55.38-2,55.38-2S410.32,184,416.73,189.41Z" transform="translate(-67.06 -175.58)"/><path class="cls-7" d="M87.68,191.69s-24,6.88-18.65,18.07,49,15.24,66.9,14.39c0,0,38.58,5.5,57.19,3,0,0,53.26,8.47,95.33.31,0,0,46.29,4.66,68.16-1.64,0,0,16.82,2,28.41-3.47,0,0,22,2.36,29.31-4.28,0,0,12.61-1,15.53-2.84a7.65,7.65,0,0,0,3.44-4.68s10.62-.87,11.51-4.06l.89-3.19s-.84-3.88-5.22-7.62-15-4.26-15-4.26,6.83-.21,4.42,5c0,0-10.32.92-14.49,3.38l-4.18,2.46s-7.44.58-18.44,1.8-14.55,1.69-14.55,1.69-14.83.33-19.93,3.13a319.26,319.26,0,0,0-35.25-.23c-18.75,1-36.45,2.1-36.45,2.1s-8-2.44-44.27-2.86S189,209,189,209s-14.82.25-35.19-1.28S123.2,206,123.2,206s.49-2.51-13.47-5A172.74,172.74,0,0,0,87,198.24S90.32,190.82,87.68,191.69Z" transform="translate(-67.06 -175.58)"/><path class="cls-1" d="M94.1,220.81s-2.78,5.49,8.35,6.77,44.08,2.35,44.08,2.35l.69-4.38-20.77-3.45Z" transform="translate(-67.06 -175.58)"/><path class="cls-5" d="M252.05,222.6s-62.9-1-83.63-4A140.72,140.72,0,0,0,215.78,228c26.42.46,41.3-.82,41.3-.82Z" transform="translate(-67.06 -175.58)"/><path class="cls-5" d="M87,198.24s3.36-7.42.72-6.55c0,0-24,6.88-18.65,18.07s49,15.24,66.9,14.39l.9.12C53.76,212.49,87,198.24,87,198.24Z" transform="translate(-67.06 -175.58)"/><path class="cls-4" d="M128.39,224.24l1.77,0Z" transform="translate(-67.06 -175.58)"/><path class="cls-4" d="M135.93,224.15l-1.57.06Z" transform="translate(-67.06 -175.58)"/><path class="cls-4" d="M127.75,224.23l-1.41,0Z" transform="translate(-67.06 -175.58)"/><path class="cls-4" d="M123.63,224.1h0l2,.07Z" transform="translate(-67.06 -175.58)"/><path class="cls-4" d="M87.5,197h0s0,0,0,0S87.5,197,87.5,197Z" transform="translate(-67.06 -175.58)"/><path class="cls-4" d="M132.09,224.25h0Z" transform="translate(-67.06 -175.58)"/><path class="cls-4" d="M137.29,216.12s-1.08,1.5-28.8-4.11c-23.28-4.71-19.95-11.52-18.29-13.58-2.09-.16-3.24-.19-3.24-.19s-7.28,3.13-6.49,7.66c.12.41.27.84.44,1.28,2.5,5,15.32,11.34,55.91,17.09,5.83.8,39.35,5.16,56.3,2.91C174,225.53,137.29,216.12,137.29,216.12Z" transform="translate(-67.06 -175.58)"/><path class="cls-4" d="M87.39,197.23Z" transform="translate(-67.06 -175.58)"/><path class="cls-4" d="M133.87,224.22l-1.25,0Z" transform="translate(-67.06 -175.58)"/><path class="cls-4" d="M136.1,224.17h0Z" transform="translate(-67.06 -175.58)"/><path class="cls-4" d="M136.43,224.22l-.2,0Z" transform="translate(-67.06 -175.58)"/><path class="cls-5" d="M90.2,198.43c-1.66,2.06-5,8.87,18.29,13.58,27.72,5.61,28.8,4.11,28.8,4.11C129.78,213.27,110,204,100.87,199.6c-5.23-.72-9.2-1.07-11.53-1.23h0Z" transform="translate(-67.06 -175.58)"/><path class="cls-3" d="M254.31,224.76C195.55,230.15,123.2,206,123.2,206l-.16-.46c-.55-.83-3-2.7-13.31-4.56-2.72-.49-5.23-.89-7.52-1.22l-.18,0c28.35,20.92,89.15,27.47,89.56,27.51l1.53-.17s52.09,8.29,93.94.57l.16-.27C280.32,227.85,254.31,224.76,254.31,224.76Z" transform="translate(-67.06 -175.58)"/><path class="cls-1" d="M159.73,208.11c7.54,1.07,30,4.29,45.68,6.64,19.15,2.87,57.68,9,72.91,11,3.7.5,8.23,1.2,13,2,10.37.88,46.7,3.46,65.32-1.9-2.05-.19-17.57-2.64-17.57-2.64-18.78,4.57-73-4.24-99.48-9A367.11,367.11,0,0,0,189,209S177,209.18,159.73,208.11Z" transform="translate(-67.06 -175.58)"/><path class="cls-5" d="M320.51,229.14h0s-38.64-3.86-81.45-10.85c-26.22-4.28-59.28-8.83-77.22-10.06-2.57-.15-5.26-.32-8.06-.53C133.42,206.16,123.2,206,123.2,206L139.92,211s23.35.55,65.89,6.13,48.5,7.66,48.5,7.66,25,3.2,34.14,2.73C288.45,227.49,303.51,229,320.51,229.14Z" transform="translate(-67.06 -175.58)"/><path class="cls-5" d="M378.2,205.76s-1.62,0-4,.19c4.66.67,9.22,1.34,9.6,1.43.78.19,20.1.05,22.2.25s29.76-2.35,31.36-2.59a44.49,44.49,0,0,0,8.28-1.64c0-.07,0-.07,0-.07s-.84-3.88-5.22-7.62c-.5-.43-1-.85-1.62-1.27-1,1.66-3.8,4.31-11.71,4.81-11.68.75-16,3-16,3s-7.44.58-18.44,1.8S378.2,205.76,378.2,205.76Z" transform="translate(-67.06 -175.58)"/><path class="cls-5" d="M192.18,208.75c0,.05.6.14.6.14l.36-.16h-.4Z" transform="translate(-67.06 -175.58)"/><path class="cls-5" d="M385,222.38l1,.09.13-.08s-42.7-2.66-66.32-6-71.73-8.08-87.32-8.59c-20.24-.06-33.15.5-39.3.85l-.09,0c2.74.09,12.53.76,43.89,3.49,53.43,4.64,94.84,9.87,102,11s17.57,2.64,17.57,2.64S373.43,227.87,385,222.38Z" transform="translate(-67.06 -175.58)"/><path class="cls-4" d="M358.27,208.89s-3.61-.26-9.37-.44l.19.67s22.86,2.74,24.43,3,32,1,49.91,1.45c3.11.08,5.88.06,8.37,0a7.27,7.27,0,0,0,1.5-3s10.62-.87,11.51-4.06l.89-3.19a9,9,0,0,0-.33-1c-1,2.09-14,1.9-32.28,2.32s-34.89,1.12-34.89,1.12S363.37,206.09,358.27,208.89Z" transform="translate(-67.06 -175.58)"/><path class="cls-3" d="M402.5,218.76c4.3,0,8-.07,11.3-.22a5.62,5.62,0,0,0,.53-.44s12.61-1,15.53-2.84a7.65,7.65,0,0,0,3.44-4.68c-7.49,0-15.82.54-35.58-.86s-39.45-.83-39.45-.83l-29.81-.46c-1.78.06-3.6.13-5.44.23-18.75,1-36.45,2.1-36.45,2.1S375,218.7,402.5,218.76Z" transform="translate(-67.06 -175.58)"/><path class="cls-4" d="M414.33,218.1l1.08-.1c-13.88.45-49.42-3.69-76.56-5.63s-52.28-1.61-52.28-1.61-8-2.44-44.27-2.86c-4.37,0-8.44-.07-12.25-.07.13,0,70.06,7.25,98.42,10.64S385,222.38,385,222.38,407.06,224.74,414.33,218.1Z" transform="translate(-67.06 -175.58)"/><path class="cls-4" d="M85,218.72s-5.38,1.69-5.62,4.25,4.67,7.38,16.57,7.9l1.37-4s-4.82-3.93-3.24-6.06Z" transform="translate(-67.06 -175.58)"/><circle class="cls-6" cx="68.09" cy="40.05" r="5.56"/><circle class="cls-6" cx="306.31" cy="40.05" r="5.56"/></svg>