<?xml version="1.0" encoding="UTF-8"?>
<!DOCTYPE svg  PUBLIC '-//W3C//DTD SVG 1.1//EN'  'http://www.w3.org/Graphics/SVG/1.1/DTD/svg11.dtd'>
<svg enable-background="new 0 0 83 62.8" version="1.1" viewBox="0 0 83 62.8" xml:space="preserve" xmlns="http://www.w3.org/2000/svg" xmlns:xlink="http://www.w3.org/1999/xlink">
<symbol id="u" viewBox="0 -12.7 8.75 12.7">
		<path d="m6-1.55c0.1 0.633 0.317 1.15 0.65 1.55-0.233-0.7-0.35-1.317-0.35-1.85s0.05-0.883 0.15-1.05c0.133-0.1 0.383 0.067 0.75 0.5s0.633 0.9 0.8 1.4c-0.1-0.5-0.267-1-0.5-1.5s-0.567-0.8-1-0.9l0.15-2.55c0.467 0.1 0.883 0.417 1.25 0.95 0.367 0.567 0.65 1.133 0.85 1.7-0.333-1.267-0.667-2.15-1-2.65-0.367-0.5-0.733-0.716-1.1-0.65l-0.55-1.95-0.15-0.4c-0.1-0.2 0.167-0.05 0.8 0.45 0.448 0.336 0.814 0.669 1.1 1-0.717-0.97-1.234-1.57-1.55-1.8-0.4-0.267-0.667-0.4-0.8-0.4-0.433-0.7-1.183-1.316-2.25-1.85-1.033-0.567-2.117-0.95-3.25-1.15 1.5 0.4 2.7 1.034 3.6 1.9l1.4 1.3c-0.933 0.033-1.683 0.283-2.25 0.75-0.367 0.3-0.683 0.667-0.95 1.1l-0.25 0.55 0.45-0.5c0.367-0.367 0.717-0.617 1.05-0.75 0.533-0.267 1.267-0.45 2.2-0.55 0.167 0.267 0.35 0.683 0.55 1.25l0.3 1.1c-1.167 0.167-2 0.483-2.5 0.95-0.533 0.5-0.934 1-1.2 1.5 0.667-0.8 1.4-1.316 2.2-1.55 0.8-0.233 1.3-0.333 1.5-0.3 0.033 0.8 0.033 1.417 0 1.85v0.6c-0.767 0-1.367 0.15-1.8 0.45l-0.95 0.75 0.55-0.25c0.467-0.2 0.85-0.317 1.15-0.35l0.95-0.1c-0.1 0.367-0.1 0.85 0 1.45z" clip-rule="evenodd" fill-rule="evenodd"/>
</symbol>
<symbol id="v" viewBox="0 -17.45 11.65 17.45">
		<path d="m10.3-8.15c-0.466-0.667-0.95-0.967-1.45-0.9l-0.95-3.25c-0.133-0.267 0.233-0.05 1.1 0.65 0.637 0.489 1.153 0.989 1.55 1.5-1.021-1.44-1.754-2.324-2.2-2.65-0.5-0.367-0.833-0.55-1-0.55-0.633-0.933-1.65-1.767-3.05-2.5-1.4-0.767-2.833-1.3-4.3-1.6 1.967 0.567 3.567 1.434 4.8 2.6l1.8 1.8c-1.2 0.066-2.2 0.417-3 1.05-0.5 0.4-0.9 0.9-1.2 1.5l-0.35 0.75 0.6-0.7c0.467-0.5 0.934-0.85 1.4-1.05 0.7-0.333 1.667-0.583 2.9-0.75 0.233 0.4 0.483 1 0.75 1.8l0.4 1.45c-1.567 0.233-2.683 0.683-3.35 1.35-0.433 0.4-0.833 0.867-1.2 1.4l-0.4 0.65c0.867-1.133 1.85-1.85 2.95-2.15 1.066-0.333 1.75-0.467 2.05-0.4 0.033 1.066 0.033 1.9 0 2.5l-0.05 0.85c-1.033 0-1.833 0.2-2.4 0.6l-1.3 1.05 0.8-0.35c0.6-0.267 1.1-0.433 1.5-0.5 0.633-0.1 1.05-0.133 1.25-0.1-0.133 0.467-0.133 1.133 0 2 0.167 0.867 0.467 1.567 0.9 2.1-0.3-0.967-0.45-1.817-0.45-2.55 0-0.7 0.05-1.184 0.15-1.45 0.2-0.133 0.55 0.1 1.05 0.7s0.833 1.233 1 1.9c-0.1-0.7-0.317-1.383-0.65-2.05-0.3-0.7-0.717-1.117-1.25-1.25l0.15-3.45c0.6 0.1 1.15 0.533 1.65 1.3s0.883 1.533 1.15 2.3c-0.433-1.7-0.883-2.9-1.35-3.6z" clip-rule="evenodd" fill-rule="evenodd"/>
</symbol>
<symbol id="w" viewBox="0 -20.55 13.75 20.55">
		<path d="m12.55-1.65c-0.133-0.833-0.4-1.65-0.8-2.45-0.367-0.8-0.867-1.283-1.5-1.45l0.1-2.75c0-0.467 0.033-0.9 0.1-1.3 0.7 0.1 1.35 0.6 1.95 1.5s1.05 1.817 1.35 2.75c-0.5-2.033-1.033-3.45-1.6-4.25-0.533-0.833-1.1-1.2-1.7-1.1l-1.1-3.8c-0.167-0.3 0.267-0.05 1.3 0.75 0.757 0.605 1.374 1.214 1.85 1.825-1.226-1.726-2.109-2.784-2.65-3.175-0.6-0.433-1-0.65-1.2-0.65-0.733-1.1-1.917-2.083-3.55-2.95-1.667-0.9-3.367-1.517-5.1-1.85 2.333 0.633 4.217 1.65 5.65 3.05l2.2 2.1c-1.467 0.066-2.667 0.483-3.6 1.25-0.567 0.467-1.05 1.05-1.45 1.75l-0.4 0.85 0.7-0.8c0.566-0.566 1.117-0.967 1.65-1.2 0.867-0.4 2.017-0.7 3.45-0.9 0.3 0.467 0.6 1.167 0.9 2.1l0.45 1.7c-1.833 0.3-3.15 0.833-3.95 1.6-0.5 0.467-0.95 1.017-1.35 1.65l-0.5 0.75c1.033-1.3 2.183-2.15 3.45-2.55 1.267-0.367 2.066-0.5 2.4-0.4 0.033 1.267 0.033 2.233 0 2.9l-0.05 1c-1.2 0-2.133 0.233-2.8 0.7l-1.55 1.3 0.9-0.45c0.733-0.333 1.333-0.533 1.8-0.6 0.767-0.1 1.267-0.133 1.5-0.1-0.167 0.533-0.167 1.317 0 2.35s0.517 1.867 1.05 2.5c-0.333-1.167-0.5-2.167-0.5-3 0-0.867 0.05-1.45 0.15-1.75 0.233-0.167 0.65 0.117 1.25 0.85 0.567 0.733 0.967 1.483 1.2 2.25z" clip-rule="evenodd" fill-rule="evenodd"/>
</symbol>
<symbol id="x" viewBox="0 -22.35 14.95 22.35">
		<path d="m11.35 0c-0.367-1.233-0.55-2.317-0.55-3.25s0.067-1.55 0.2-1.85c0.233-0.2 0.667 0.1 1.3 0.9 0.633 0.767 1.067 1.567 1.3 2.4-0.133-0.867-0.4-1.733-0.8-2.6-0.433-0.9-1-1.434-1.7-1.6l0.15-3c0-0.5 0.033-0.983 0.1-1.45 0.767 0.133 1.483 0.7 2.15 1.7 0.633 0.967 1.117 1.95 1.45 2.95-0.567-2.2-1.15-3.75-1.75-4.65-0.6-0.867-1.217-1.25-1.85-1.15l-1.2-4.15c-0.167-0.333 0.3-0.067 1.4 0.8 0.945 0.773 1.695 1.531 2.25 2.275-1.437-2.042-2.47-3.284-3.1-3.725-0.633-0.434-1.067-0.65-1.3-0.65-0.8-1.2-2.1-2.284-3.9-3.25-1.8-0.967-3.633-1.65-5.5-2.05 2.533 0.7 4.583 1.817 6.15 3.35l2.35 2.25c-1.567 0.1-2.867 0.567-3.9 1.4-0.633 0.533-1.15 1.167-1.55 1.9l-0.45 0.95 0.75-0.9c0.633-0.633 1.233-1.067 1.8-1.3 0.934-0.433 2.184-0.75 3.75-0.95 0.333 0.467 0.667 1.217 1 2.25l0.45 1.85c-1.967 0.333-3.4 0.917-4.3 1.75-0.533 0.533-1.033 1.117-1.5 1.75l-0.5 0.85c1.133-1.433 2.383-2.35 3.75-2.75 1.4-0.4 2.284-0.566 2.65-0.5 0.033 1.4 0.033 2.467 0 3.2l-0.1 1.1c-1.267 0-2.283 0.25-3.05 0.75-0.466 0.3-0.883 0.633-1.25 1l-0.4 0.4 1-0.5c0.733-0.333 1.367-0.533 1.9-0.6 0.833-0.133 1.383-0.183 1.65-0.15-0.167 0.6-0.167 1.45 0 2.55 0.2 1.1 0.583 2 1.15 2.7z" clip-rule="evenodd" fill-rule="evenodd"/>
</symbol>
		<path d="m45.261 38.897c0.271-0.523 0.756-0.854 1.454-0.989 0.349-0.058 0.669-0.067 0.959-0.028-0.136 0.019-0.28 0.048-0.436 0.087-0.271 0.077-0.417 0.194-0.437 0.349 0 0.136 0.029 0.311 0.087 0.523 0.039 0.271-0.029 0.621-0.203 1.048-0.233 0.562-0.61 1.075-1.135 1.541-0.581 0.523-1.192 0.833-1.832 0.931 0.602-1.474 1.116-2.629 1.543-3.462z" clip-rule="evenodd" fill="#3C571C" fill-rule="evenodd"/>
		<path d="m44.358 40.41c0.602 0.174 1.231 0.058 1.891-0.35 0.349-0.213 0.63-0.445 0.844-0.698-0.039 0.427-0.194 0.883-0.466 1.367-0.523 0.97-1.318 1.639-2.385 2.007-0.931 0.31-2.161 0.427-3.693 0.349-1.57-0.097-2.016-0.223-1.337-0.378 0.116-0.02 0.843-0.465 2.181-1.338 1.395-0.814 2.384-1.134 2.965-0.959z" clip-rule="evenodd" fill="#446120" fill-rule="evenodd"/>
		<path d="m36.681 41.573c3.257 0.427 4.808 0.746 4.653 0.959-0.232 0.252-0.552 0.446-0.959 0.582-0.775 0.213-1.968 0.291-3.577 0.232-0.834-0.02-1.6-0.184-2.298-0.494-1.241-0.484-2.365-1.328-3.374-2.53l-0.233-0.291 0.96 0.523c0.717 0.35 1.289 0.515 1.716 0.495 0.814-0.02 1.338-0.02 1.571 0 0.601 0.058 1.114 0.233 1.541 0.524z" clip-rule="evenodd" fill="#6E9C33" fill-rule="evenodd"/>
		<path d="m30.516 36.483l1.193 2.269c0.988 1.629 1.938 2.753 2.85 3.373 0.892 0.621 2.491 1.019 4.799 1.192-0.698 0.116-1.513 0.146-2.443 0.088-1.861-0.136-3.393-0.659-4.595-1.57-1.008-0.737-1.609-1.852-1.803-3.345v-2.007z" clip-rule="evenodd" fill="#6B9631" fill-rule="evenodd"/>
		<path d="m43.951 33.546c0.02 0.175-0.436 0.301-1.366 0.379-0.931 0.058-1.483-0.02-1.658-0.233-0.155-0.174-0.31-0.475-0.465-0.901l-0.174-0.553c0.271-0.097 0.533-0.31 0.785-0.639 0.116-0.155 0.262-0.369 0.437-0.64 0.097-0.097 0.252-0.078 0.465 0.058 0.116 0.078 0.243 0.165 0.379 0.262 0.058 0 0.154 0.087 0.29 0.262 0.078 0.097 0.185 0.252 0.32 0.465 0.155 0.175 0.329 0.106 0.523-0.204l0.116 0.204c0.097 0.116 0.213 0.136 0.349 0.059l0.64-0.524c-0.115 0.271-0.232 0.563-0.349 0.873-0.214 0.618-0.31 0.997-0.292 1.132z" clip-rule="evenodd" fill="#6B9630" fill-rule="evenodd"/>
		<path d="m34.878 42.3c-0.232-0.02-0.504-0.146-0.814-0.378-0.621-0.466-1.134-1.202-1.542-2.21-0.756-1.842-1.192-2.918-1.309-3.229-0.271-0.814-0.243-1.212 0.087-1.192 0.31 0.02 0.542-0.077 0.698-0.291l0.349-0.756c0.349-0.368 0.844-0.185 1.483 0.553 0.37 0.427 0.719 2.928 1.048 7.503z" clip-rule="evenodd" fill="#5C822A" fill-rule="evenodd"/>
		<path d="m34.064 33.372l0.668-1.019c0.679-0.698 1.629-1.124 2.85-1.279 1.512-0.213 2.821-0.097 3.926 0.349 1.163 0.465 1.948 1.221 2.355 2.268 0.504 1.222 0.397 2.628-0.32 4.217-0.795 1.765-1.986 2.676-3.577 2.734-1.726 0.058-3.286-0.756-4.682-2.443-1.394-1.725-1.802-3.334-1.22-4.827z" clip-rule="evenodd" fill="#89BF3F" fill-rule="evenodd"/>
		<path d="m41.684 35.088c0.601-0.388 1.037-0.814 1.309-1.28 0.291 1.59 0.242 3.063-0.146 4.421-0.232 0.854-0.708 1.338-1.425 1.454-1.202 0-2.336 0.059-3.403 0.175-1.318 0.154-2.143-0.185-2.472-1.019-0.116-0.949-0.223-1.492-0.32-1.628-0.349-0.563-0.485-1.009-0.407-1.338 0.136-0.602 1.018-0.688 2.646-0.262 1.61 0.408 3.015 0.233 4.218-0.523z" clip-rule="evenodd" fill="#7BAB38" fill-rule="evenodd"/>
		<path d="m34.005 33.721c0.078-0.116 0.136-0.31 0.175-0.581l1.076 0.174c0.795 0.214 1.425 0.523 1.891 0.931 0.31 0.271 0.456 0.494 0.436 0.669l0.553 1.367c0.504 0.969 1.066 1.6 1.687 1.89 0.446 0.214 0.854-0.126 1.221-1.018 0.136 1.066 0 1.735-0.407 2.007-0.407 0.252-2.695-0.756-6.863-3.024 0.02-0.368 0.049-0.746 0.087-1.135 0.057-0.776 0.106-1.202 0.144-1.28z" clip-rule="evenodd" fill="#689131" fill-rule="evenodd"/>
		<path d="m42.235 33.808c0.175 0.505 0.165 1.058-0.028 1.658-0.117 0.311-0.242 0.563-0.378 0.756 0.136-0.717 0.136-1.396 0-2.035-0.117-0.505-0.281-0.854-0.495-1.047-0.136-0.136-0.291-0.253-0.465-0.35l-0.204-0.087c-0.621-0.039-1.202-0.02-1.745 0.059-0.33 0.038-0.708 0.184-1.134 0.436l-0.523 0.378 0.349-0.319c0.271-0.252 0.523-0.437 0.756-0.553 0.369-0.175 0.97-0.252 1.803-0.232-0.155-0.136-0.358-0.271-0.61-0.407l-0.378-0.204c-0.892 0.02-1.57 0.223-2.036 0.611l-1.076 0.93 0.203-0.319c0.194-0.271 0.427-0.504 0.698-0.698 0.407-0.329 1.076-0.572 2.006-0.727-0.31-0.135-0.572-0.213-0.785-0.232-0.232-0.039-0.591 0.039-1.076 0.232-0.582 0.233-0.979 0.543-1.192 0.931l-0.437 0.843c0-0.154 0.097-0.436 0.291-0.843 0.252-0.505 0.523-0.814 0.814-0.931 0.446-0.213 0.863-0.339 1.25-0.378-0.562-0.078-0.94-0.087-1.134-0.029l-0.291 0.058 0.582-0.146c0.427-0.097 0.766-0.126 1.018-0.087l0.204 0.029 0.756-0.146c0.194 0 0.349 0.01 0.465 0.029l-1.018 0.204 0.552 0.262 0.291 0.174v-0.088c0.078-0.077 0.271-0.155 0.582-0.232 0.485-0.136 0.999-0.126 1.542 0.029-0.679-0.039-1.096-0.029-1.25 0.029l-0.611 0.436 0.553 0.32c0.136 0.078 0.242 0.175 0.32 0.291l0.204-0.232c0.174-0.175 0.378-0.281 0.61-0.32 0.368-0.077 0.805-0.058 1.309 0.059-0.775-0.059-1.231 0-1.366 0.174-0.098 0.117-0.155 0.233-0.175 0.35v0.146l0.466 0.175c0.348 0.19 0.61 0.539 0.783 1.043z" clip-rule="evenodd" fill="#A5E64C" fill-rule="evenodd"/>
			<radialGradient id="m" cx="25.3" cy="11.05" r="9.225" gradientTransform="matrix(.5816 0 0 -.5667 20.25 43.588)" gradientUnits="userSpaceOnUse">
			<stop stop-color="#A9E858" offset="0"/>
			<stop stop-color="#77A63A" offset="1"/>
		</radialGradient>
		<path d="m33.002 33.313c0.059-0.01 0.122-0.02 0.189-0.029h0.029c0.108-0.181 0.185-0.2 0.233-0.058 4e-3 0.012 9e-3 0.021 0.015 0.029 0.278-0.011 0.564 0.027 0.858 0.116 0.155 0.058 0.649 0.271 1.483 0.64 0.698 0.311 1.192 0.669 1.483 1.076 0.039 0.038 0.204 0.388 0.494 1.047 0.271 0.563 0.63 1.104 1.076 1.628 0.543 0.621 1.105 1.066 1.687 1.338 0.543 0.252 0.882 0.824 1.018 1.716 0.117 0.679 0.641 0.97 1.571 0.873-0.485 0.484-1.416 0.882-2.792 1.192-0.775 0.155-1.647 0.213-2.617 0.174-1.919-0.077-3.315-0.601-4.188-1.57-1.125-1.26-1.609-2.733-1.454-4.42 0.058-0.795 0.349-1.881 0.873-3.258 0.068-0.167 0.131-0.303 0.188-0.407-0.016-9e-3 -0.03-0.019-0.043-0.028-0.042-0.029-0.076-0.049-0.103-0.059zm-0.102 0.117c-0.019 0.175-0.068 0.262-0.145 0.262-0.097 0-0.291 0.098-0.582 0.291-0.232 0.155-0.32 0.165-0.262 0.029 0.15-0.334 0.49-0.562 1.018-0.684-0.019 0.024-0.029 0.057-0.029 0.102z" clip-rule="evenodd" fill="url(#m)" fill-rule="evenodd"/>
			<radialGradient id="n" cx="24.2" cy="10.55" r="10.3" gradientTransform="matrix(.5816 0 0 -.5668 20.25 43.016)" gradientUnits="userSpaceOnUse">
			<stop stop-color="#A9E858" offset=".3255"/>
			<stop stop-color="#77A63A" offset="1"/>
		</radialGradient>
		<path d="m35.111 34.273c0.116-0.175 0.233-0.339 0.349-0.494l-0.552 1.366-0.116 0.728 0.756-0.204c0.233-0.097 0.611-0.368 1.134-0.814-0.136 0.194-0.388 0.466-0.756 0.814-0.233 0.233-0.504 0.388-0.814 0.466l-0.407 0.029-0.146 1.599 0.291-0.028c0.232-0.059 0.456-0.136 0.669-0.232 0.349-0.155 0.621-0.311 0.814-0.466l0.087-0.814 0.262-0.581-0.029 0.552c0 0.233 0.029 0.427 0.087 0.582l0.407-0.262 0.523-0.437c-0.213 0.446-0.717 0.883-1.512 1.309-0.504 0.271-0.931 0.466-1.28 0.582l-0.349 0.087 0.029 0.814c0 0.388 0.126 0.921 0.378 1.6h0.437c0.368-0.02 0.766-0.087 1.192-0.203 0.659-0.175 1.085-0.359 1.279-0.553l-0.029-0.728 0.146-0.872 0.087 0.698c0.059 0.349 0.184 0.571 0.378 0.669l0.145-0.146 1.105-0.901c-0.465 0.853-1.134 1.512-2.007 1.978-0.562 0.29-1.163 0.484-1.803 0.581l-0.786 0.029 0.146 0.262c0.136 0.213 0.33 0.455 0.582 0.727 0.388 0.446 1.047 0.747 1.978 0.901l-0.901 0.029c-0.368 0-0.737-0.106-1.105-0.319-0.233-0.136-0.485-0.437-0.756-0.901l-0.349-0.669c-0.756-0.446-1.337-1.028-1.745-1.745-0.233-0.466-0.407-0.97-0.523-1.513l-0.087-0.697 0.204 0.843c0.078 0.311 0.213 0.572 0.407 0.785l0.058-0.64c0.019-0.213 0.019-0.397 0-0.553l-0.029-0.174 0.145 0.203c0.078 0.194 0.126 0.397 0.146 0.61 0.02 0.35-0.029 0.641-0.146 0.873l0.32 0.407c0.194 0.252 0.563 0.601 1.105 1.047l-0.174-0.523c-0.077-0.214-0.136-0.611-0.174-1.192l-0.029-0.785c-0.659-0.446-1.085-0.901-1.279-1.367-0.116-0.291-0.184-0.553-0.204-0.785v-0.291l0.087 0.495c0.039 0.193 0.126 0.368 0.262 0.523l0.087-0.35c0.059-0.136 0.097-0.388 0.116-0.756v0.814l-0.058 0.494 0.465 0.494c0.213 0.233 0.407 0.378 0.582 0.437 0-0.194 0.029-0.446 0.087-0.756l0.175-0.814c-0.524-0.291-0.853-0.649-0.989-1.076-0.078-0.271-0.126-0.504-0.146-0.698v-0.203l0.058 0.407c0.058 0.31 0.184 0.581 0.378 0.814 0.291 0.368 0.543 0.533 0.756 0.494l0.175-0.844c0.037-0.155 0.173-0.407 0.406-0.756z" clip-rule="evenodd" fill="url(#n)" fill-rule="evenodd"/>
		<path d="m37.815 36.6c0.465 0.757 0.863 1.299 1.192 1.629 0.562 0.504 0.999 0.834 1.309 0.988-0.291 0.737-0.543 1.212-0.756 1.426-0.194 0.213-2.724-0.262-7.591-1.426l0.117-2.035 0.349 0.116c0.329 0.02 0.756-0.077 1.279-0.291 0.504-0.213 1.144-0.281 1.919-0.203 0.426 0.039 0.892 0.097 1.396 0.175 0.291 0.019 0.456 0.019 0.494 0 0.078-0.059 0.068-0.224-0.029-0.495l-0.262-0.901 0.583 1.017z" clip-rule="evenodd" fill="#6F9C32" fill-rule="evenodd"/>
		<path d="m46.017 39.188c-0.33 1.066-1.163 1.822-2.501 2.268-2.056 0.718-4.43 1.193-7.125 1.426l1.687-0.757c1.202-0.833 2.016-2.035 2.443-3.605 0.349-1.299 0.514-2.414 0.495-3.345 0-0.717 0.01-1.096 0.028-1.134 0.117-0.136 0.271-0.233 0.466-0.291 0.097-0.039 0.446-0.097 1.047-0.175 0.465-0.077 0.814-0.232 1.047-0.465 0.136-0.136 0.281-0.407 0.437-0.814 0.155-0.446 0.339-0.698 0.552-0.756-0.154 0.233-0.271 0.485-0.349 0.756-0.174 0.581-0.097 1.008 0.233 1.279 0.406 0.33 0.766 0.814 1.075 1.454 0.349 0.64 0.533 1.241 0.553 1.804 0.076 1.105 0.047 1.89-0.088 2.355z" clip-rule="evenodd" fill="#90CC3F" fill-rule="evenodd"/>
		<path d="m46.19 39.188c-0.329 1.066-1.153 1.822-2.472 2.268-2.055 0.718-4.439 1.193-7.154 1.426l1.687-0.757c1.202-0.833 2.017-2.035 2.443-3.605 0.349-1.299 0.523-2.414 0.523-3.345-0.02-0.717-0.02-1.096 0-1.134 0.116-0.155 0.271-0.252 0.466-0.291 0.116-0.039 0.475-0.097 1.076-0.175 0.465-0.077 0.795-0.213 0.988-0.407 0.136-0.136 0.281-0.388 0.437-0.756 0.155-0.446 0.291-0.737 0.406-0.873-0.115 0.233-0.203 0.485-0.261 0.756-0.116 0.581-0.01 1.008 0.319 1.279 0.407 0.33 0.775 0.814 1.105 1.454 0.329 0.64 0.514 1.241 0.552 1.804 0.08 1.086 0.041 1.871-0.115 2.356z" clip-rule="evenodd" fill="#6A9431" fill-rule="evenodd"/>
		<path d="m44.649 33.575c0.349 0.271 0.669 0.669 0.96 1.192 0.311 0.523 0.514 1.047 0.61 1.57-0.058 0.155-0.154 0.34-0.29 0.553-0.271 0.407-0.796 0.543-1.571 0.407-0.795-0.155-1.027-0.465-0.697-0.931 0.31-0.465 0.445-0.911 0.407-1.338-0.059-0.407-0.281-0.698-0.669-0.872-0.252-0.136-0.35-0.358-0.291-0.669 0.329-0.077 0.571-0.204 0.727-0.378 0.098-0.136 0.214-0.369 0.35-0.698 0.155-0.446 0.291-0.737 0.406-0.873-0.115 0.233-0.203 0.485-0.261 0.756-0.116 0.583-0.01 1.01 0.319 1.281z" clip-rule="evenodd" fill="#658C2D" fill-rule="evenodd"/>
		<path d="m30.952 35.611c0.097-0.136 0.165-0.136 0.204 0 0.097 0.252 0.475 1.356 1.134 3.315 0.368 1.047 1.105 2.025 2.21 2.937 0.543 0.446 1.057 0.786 1.542 1.019-0.33-0.098-0.727-0.271-1.192-0.523-0.931-0.523-1.697-1.202-2.297-2.036-0.718-1.008-1.231-1.938-1.542-2.792-0.292-0.873-0.311-1.512-0.059-1.92z" clip-rule="evenodd" fill="#8CC63F" fill-rule="evenodd"/>
		<path d="m46.424 36.92c0.019 0.775-0.049 1.425-0.204 1.948-0.311 1.047-0.94 1.958-1.89 2.733-1.086 0.873-2.356 1.367-3.81 1.483-1.532 0.155-2.802 0.155-3.81 0l-1.047-0.262 0.465 0.059c0.407 0 0.824-0.039 1.251-0.116 1.047-0.214 1.919-0.659 2.617-1.338 0.775-0.775 1.27-1.784 1.483-3.024 0.291-1.92 0.572-2.831 0.844-2.734 0.058 0.02 0.213 0.078 0.465 0.175 0.271 0.097 0.456 0.126 0.553 0.087 0.02 0 0.136-0.126 0.349-0.378 0.194-0.232 0.427-0.358 0.698-0.378 0.543-0.077 0.921-0.185 1.135-0.32 0.213-0.116 0.532-0.174 0.959-0.174 0.485 0.02 0.757 0.174 0.814 0.465 0.058 0.388 0.049 0.611-0.029 0.669-0.058 0.039-0.154 0-0.29-0.116-0.33-0.252-0.524-0.242-0.582 0.029-0.02 0.077-0.01 0.474 0.029 1.192z" clip-rule="evenodd" fill="#86C236" fill-rule="evenodd"/>
		<path d="m46.627 36.92c0 0.795-0.077 1.444-0.232 1.948-0.311 1.047-0.94 1.958-1.891 2.733-1.066 0.873-2.326 1.367-3.78 1.483-2.462 0.232-4.091 0.146-4.886-0.262l0.494 0.059c0.407 0 0.824-0.039 1.25-0.116 1.028-0.214 1.891-0.659 2.588-1.338 0.776-0.775 1.27-1.784 1.483-3.024 0.175-1.086 0.397-1.688 0.669-1.804 0.155-0.077 0.388-0.106 0.697-0.087 0.602-0.368 0.912-0.553 0.931-0.553 0.078-0.02 0.263-0.146 0.553-0.378 0.311-0.232 0.602-0.358 0.873-0.378 0.252-0.039 0.358-0.078 0.319-0.116-0.077-0.098-0.077-0.175 0-0.233 0.431-0.281 0.838-0.049 1.222 0.698-0.171-0.064-0.278-7e-3 -0.32 0.175l0.03 1.193zm0.291-1.367c0.068 0.032 0.146 0.08 0.232 0.146 0.146 0.109 0.199-0.046 0.16-0.465 0.126 1.068 0.179 1.64 0.16 1.716 0 0.038-0.068-0.146-0.204-0.553-0.113-0.328-0.229-0.609-0.348-0.844z" clip-rule="evenodd" fill="#60872C" fill-rule="evenodd"/>
		<path d="m46.598 35.728l0.029 1.192c0 0.795-0.077 1.444-0.232 1.948-0.311 1.047-0.94 1.958-1.891 2.733-1.066 0.873-2.326 1.367-3.78 1.483l-0.32 0.029c1.532-0.232 2.772-0.785 3.722-1.658 0.776-0.697 1.183-1.396 1.222-2.094 0.077-1.57-0.068-2.753-0.437-3.548v-0.087c0.02-0.078 0.126-0.146 0.32-0.203 0.155-0.059 0.368-0.146 0.64-0.263 0.252-0.097 0.485-0.106 0.698-0.028 0.271 0.077 0.358 0.155 0.262 0.232-0.059 0.039-0.126 0.087-0.204 0.146l-0.029 0.118z" clip-rule="evenodd" fill="#537526" fill-rule="evenodd"/>
			<use transform="matrix(.5816 0 0 -.5816 41.2 35.6)" y="-12.7" width="8.75" height="12.7" enable-background="new" opacity=".1992" xlink:href="#u"/>
		<path d="m32.755 33.691c-0.233-0.116-0.476-0.048-0.727 0.204-0.097 0.097-0.155 0.097-0.175 0s0.058-0.252 0.233-0.466c0.271-0.349 0.766-0.475 1.483-0.378 0.136 0.039 0.32 0.106 0.553 0.204 0.194 0.097 0.417 0.155 0.669 0.174 0.601 0.059 1.183 0.242 1.745 0.553 0.485 0.291 0.756 0.582 0.814 0.872-0.039-0.019-0.039 0.088 0 0.32 0.039 0.291 0.01 0.466-0.087 0.523-0.078 0.059-0.194-0.049-0.349-0.319-0.174-0.311-0.31-0.476-0.407-0.495-0.136-0.019-0.243 0.02-0.32 0.116-0.077 0.136-0.136 0.233-0.174 0.291-0.058 0.116-0.194 0.126-0.407 0.029-0.193-0.077-0.358-0.223-0.494-0.437-0.039-0.038-0.116-0.184-0.233-0.436-0.058-0.117-0.155-0.214-0.291-0.291-0.116-0.098-0.291-0.155-0.523-0.175h-0.32l-0.146 0.059c-0.02 2e-3 -0.301-0.114-0.844-0.348z" clip-rule="evenodd" fill="#94D142" fill-rule="evenodd"/>
		<path d="m45.405 42.678c-1.531 0.775-2.879 1.009-4.042 0.698-1.241-0.33-1.803-0.514-1.687-0.553 0.097-0.039 0.659-0.058 1.687-0.058 0.911-0.02 1.755-0.233 2.53-0.641 0.388-0.193 0.785-0.29 1.192-0.29 0.543 0 0.892-0.02 1.047-0.059 0.504-0.136 0.901-0.262 1.192-0.378-0.522 0.466-1.162 0.893-1.919 1.281z" clip-rule="evenodd" fill="#39521A" fill-rule="evenodd"/>
		<path d="m63.731 44.685c0.368-0.717 1.019-1.163 1.948-1.338 0.484-0.077 0.921-0.087 1.309-0.029-0.193 0.02-0.388 0.049-0.581 0.088-0.388 0.116-0.592 0.281-0.61 0.494-0.02 0.175 9e-3 0.427 0.086 0.756 0.059 0.368-0.028 0.834-0.261 1.396-0.291 0.775-0.785 1.483-1.483 2.123-0.775 0.717-1.6 1.144-2.473 1.279 0.214-0.504 0.456-1.076 0.728-1.716 0.543-1.299 0.989-2.316 1.337-3.053z" clip-rule="evenodd" fill="#3C571C" fill-rule="evenodd"/>
		<path d="m65.069 46.284c0.465-0.271 0.844-0.582 1.135-0.931-0.059 0.582-0.271 1.202-0.641 1.861-0.698 1.338-1.765 2.259-3.199 2.763-1.24 0.427-2.879 0.581-4.915 0.465-2.132-0.136-2.732-0.31-1.803-0.522 0.136-0.02 1.105-0.631 2.908-1.833 1.9-1.124 3.229-1.561 3.984-1.309 0.796 0.252 1.64 0.088 2.531-0.494z" clip-rule="evenodd" fill="#446120" fill-rule="evenodd"/>
		<path d="m48.114 47.68c1.027-0.038 1.726-0.038 2.095 0 0.775 0.078 1.454 0.311 2.035 0.698 4.362 0.602 6.437 1.037 6.224 1.309-0.252 0.35-0.679 0.61-1.279 0.785-1.027 0.311-2.627 0.427-4.799 0.35-1.105-0.059-2.123-0.281-3.054-0.67-1.744-0.717-3.238-1.87-4.479-3.46l-0.319-0.437 1.279 0.728c0.969 0.484 1.735 0.716 2.297 0.697z" clip-rule="evenodd" fill="#6E9C33" fill-rule="evenodd"/>
		<path d="m43.985 41.398l1.628 3.111c1.338 2.249 2.608 3.8 3.81 4.653 0.737 0.523 2.026 0.95 3.868 1.279 0.911 0.155 1.755 0.262 2.53 0.32-0.911 0.155-1.997 0.194-3.257 0.116-2.481-0.175-4.537-0.882-6.166-2.123-1.338-1.027-2.142-2.559-2.413-4.595v-2.761z" clip-rule="evenodd" fill="#6B9631" fill-rule="evenodd"/>
		<path d="m59.34 33.896l0.523 0.349c0.117 0 0.389 0.34 0.814 1.018 0.194 0.233 0.427 0.136 0.698-0.29l0.146 0.29c0.116 0.175 0.262 0.194 0.436 0.059 0.291-0.194 0.582-0.437 0.873-0.727-0.155 0.388-0.311 0.795-0.466 1.221-0.291 0.834-0.427 1.357-0.407 1.57 0.039 0.253-0.562 0.417-1.803 0.495-1.261 0.077-2.007-0.029-2.239-0.32-0.194-0.252-0.388-0.659-0.581-1.222l-0.262-0.756c0.367-0.136 0.717-0.427 1.047-0.872 0.174-0.233 0.368-0.533 0.581-0.902 0.136-0.137 0.349-0.108 0.64 0.087z" clip-rule="evenodd" fill="#6B9630" fill-rule="evenodd"/>
		<path d="m49.83 49.396c-0.31-0.038-0.669-0.223-1.075-0.552-0.834-0.621-1.522-1.619-2.065-2.996-1.086-2.753-1.667-4.236-1.745-4.449-0.368-1.124-0.339-1.677 0.088-1.657 0.445 0.038 0.766-0.088 0.96-0.379l0.436-1.047c0.484-0.504 1.154-0.252 2.007 0.756 0.502 0.581 0.968 4.023 1.394 10.324z" clip-rule="evenodd" fill="#5C822A" fill-rule="evenodd"/>
		<path d="m48.755 37.152l0.872-1.396c0.911-0.97 2.19-1.57 3.839-1.804 2.017-0.271 3.771-0.097 5.264 0.523 1.531 0.641 2.578 1.668 3.141 3.083 0.64 1.687 0.484 3.625-0.465 5.816-1.048 2.424-2.627 3.664-4.74 3.723-2.308 0.077-4.392-1.047-6.253-3.374-1.882-2.325-2.434-4.516-1.658-6.571z" clip-rule="evenodd" fill="#89BF3F" fill-rule="evenodd"/>
		<path d="m60.707 37.763l0.203 1.979c0.059 1.551-0.067 2.897-0.378 4.042-0.329 1.183-0.979 1.852-1.948 2.007-1.609 0.02-3.121 0.106-4.537 0.262-1.764 0.213-2.879-0.262-3.344-1.425-0.136-1.28-0.262-2.017-0.379-2.211-0.484-0.756-0.668-1.366-0.552-1.832 0.193-0.854 1.376-0.988 3.548-0.407 2.133 0.582 4.004 0.359 5.613-0.669 0.814-0.525 1.406-1.106 1.774-1.746z" clip-rule="evenodd" fill="#7BAB38" fill-rule="evenodd"/>
		<path d="m52.651 43.173l-4.275-2.269c0.039-0.504 0.078-1.018 0.117-1.542 0.077-1.065 0.145-1.647 0.203-1.745 0.097-0.174 0.174-0.436 0.232-0.784l1.426 0.232c1.065 0.271 1.909 0.688 2.529 1.25 0.407 0.388 0.61 0.708 0.61 0.96l0.728 1.861c0.659 1.318 1.396 2.172 2.21 2.56 0.388 0.174 0.785 0 1.193-0.523 0.193-0.271 0.349-0.563 0.465-0.873l0.029 1.163c-0.039 0.834-0.233 1.367-0.582 1.6-0.328 0.213-1.957-0.417-4.885-1.89z" clip-rule="evenodd" fill="#689131" fill-rule="evenodd"/>
		<path d="m59.253 35.117c-0.563 0.019-0.901 0.106-1.018 0.262-0.116 0.154-0.194 0.31-0.233 0.465v0.204l0.641 0.232c0.465 0.271 0.813 0.756 1.047 1.454 0.252 0.698 0.232 1.454-0.059 2.268-0.136 0.408-0.301 0.747-0.494 1.019 0.174-0.989 0.165-1.92-0.029-2.792-0.155-0.698-0.368-1.173-0.64-1.425-0.175-0.175-0.378-0.33-0.611-0.466l-0.29-0.116c-0.814-0.058-1.58-0.038-2.298 0.059-0.446 0.058-0.95 0.262-1.512 0.61l-0.698 0.523 0.436-0.465c0.369-0.33 0.708-0.572 1.019-0.728 0.504-0.252 1.309-0.358 2.414-0.319-0.194-0.194-0.466-0.378-0.814-0.553l-0.523-0.291c-1.184 0.02-2.095 0.301-2.733 0.844l-1.396 1.279 0.262-0.466c0.252-0.368 0.553-0.688 0.901-0.959 0.563-0.446 1.464-0.775 2.705-0.989-0.427-0.193-0.776-0.301-1.047-0.319-0.33-0.039-0.814 0.067-1.454 0.319-0.776 0.33-1.299 0.757-1.57 1.28-0.194 0.388-0.369 0.756-0.524 1.104-0.058 0.116-0.087 0.136-0.087 0.059 0-0.194 0.136-0.572 0.407-1.135 0.35-0.679 0.717-1.114 1.105-1.309 0.601-0.271 1.153-0.445 1.657-0.523-0.756-0.097-1.26-0.106-1.512-0.029l-0.379 0.088 0.757-0.204c0.582-0.136 1.037-0.174 1.366-0.116l0.291 0.029 0.32-0.087c0.271-0.059 0.494-0.088 0.669-0.088l0.61 0.029-1.339 0.292 0.728 0.319 0.407 0.262v-0.116c0.097-0.097 0.349-0.203 0.756-0.319 0.659-0.194 1.348-0.175 2.064 0.058-0.911-0.077-1.474-0.067-1.687 0.029l-0.814 0.582 0.756 0.465c0.175 0.097 0.32 0.223 0.437 0.378l0.262-0.319c0.232-0.233 0.504-0.378 0.814-0.437 0.504-0.097 1.086-0.068 1.745 0.087-0.253-0.02-0.524-0.029-0.815-0.029z" clip-rule="evenodd" fill="#A5E64C" fill-rule="evenodd"/>
			<radialGradient id="o" cx="58.45" cy="20.05" r="12.338" gradientTransform="matrix(.5816 0 0 -.5816 15.95 54.223)" gradientUnits="userSpaceOnUse">
			<stop stop-color="#A9E858" offset="0"/>
			<stop stop-color="#77A63A" offset="1"/>
		</radialGradient>
		<path d="m57.421 44.976c0.736 0.349 1.201 1.144 1.396 2.385 0.136 0.931 0.824 1.328 2.065 1.192-0.155 0.155-0.427 0.339-0.814 0.552-0.795 0.446-1.774 0.806-2.938 1.077-1.047 0.213-2.21 0.29-3.49 0.232-2.559-0.097-4.41-0.814-5.554-2.152-1.513-1.726-2.172-3.752-1.979-6.078 0.078-1.124 0.476-2.607 1.193-4.449 0.093-0.236 0.175-0.426 0.247-0.567-0.013-0.015-0.027-0.029-0.044-0.044-0.046-0.037-0.085-0.065-0.116-0.087 0.054-9e-3 0.111-0.019 0.174-0.029 0.029-5e-3 0.059-0.011 0.088-0.015 0.138-0.21 0.234-0.224 0.291-0.043v0.014c0.383-0.023 0.771 0.03 1.163 0.16 0.232 0.078 0.901 0.379 2.007 0.902 0.93 0.426 1.59 0.911 1.977 1.454 0.214 0.329 0.427 0.804 0.641 1.425 0.349 0.756 0.834 1.492 1.454 2.21 0.717 0.871 1.464 1.492 2.239 1.861zm-10.237-7.794c-0.019 0.252-0.077 0.378-0.174 0.378-0.116 0-0.378 0.146-0.785 0.437-0.311 0.213-0.427 0.223-0.35 0.029 0.2-0.451 0.646-0.766 1.338-0.945-0.016 0.026-0.025 0.06-0.029 0.101z" clip-rule="evenodd" fill="url(#o)" fill-rule="evenodd"/>
			<radialGradient id="p" cx="57" cy="19.35" r="13.775" gradientTransform="matrix(.5816 0 0 -.5811 15.95 53.399)" gradientUnits="userSpaceOnUse">
			<stop stop-color="#A9E858" offset=".3255"/>
			<stop stop-color="#77A63A" offset="1"/>
		</radialGradient>
		<path d="m51.924 41.021c0.039-0.175 0.107-0.35 0.204-0.523l0.116-0.232-0.029 0.727c0 0.311 0.039 0.582 0.116 0.814l0.553-0.378c0.252-0.194 0.484-0.397 0.698-0.611-0.291 0.621-0.97 1.231-2.036 1.833-0.679 0.368-1.24 0.63-1.687 0.784l-0.465 0.117 0.028 1.134c0 0.504 0.165 1.231 0.495 2.182h0.583c0.503-0.039 1.037-0.136 1.599-0.291 0.873-0.233 1.444-0.485 1.716-0.757l-0.029-0.959 0.204-1.222 0.116 0.96c0.077 0.465 0.232 0.766 0.466 0.901l0.203-0.204c0.136-0.136 0.64-0.542 1.512-1.221-0.155 0.29-0.387 0.62-0.697 0.988-0.602 0.737-1.271 1.309-2.007 1.716s-1.532 0.669-2.385 0.785l-1.076 0.059 0.175 0.349c0.194 0.311 0.455 0.649 0.785 1.019 0.543 0.601 1.425 1.008 2.646 1.221l-1.192 0.029c-0.485 0-0.989-0.146-1.513-0.437-0.31-0.174-0.64-0.581-0.988-1.222l-0.437-0.901c-1.027-0.62-1.813-1.425-2.355-2.413-0.33-0.621-0.572-1.309-0.728-2.065l-0.116-0.959 0.291 1.163c0.097 0.427 0.281 0.785 0.553 1.076l0.087-0.873c0.039-0.291 0.049-0.543 0.029-0.756l-0.058-0.262 0.174 0.291c0.097 0.252 0.155 0.533 0.175 0.843 0.038 0.485-0.01 0.883-0.146 1.192l0.378 0.523c0.271 0.35 0.775 0.834 1.513 1.454l-0.262-0.727c-0.097-0.311-0.165-0.854-0.204-1.629l-0.059-1.076c-0.892-0.601-1.454-1.221-1.687-1.861-0.154-0.406-0.252-0.766-0.29-1.076v-0.378l0.116 0.641c0.058 0.271 0.174 0.514 0.349 0.727l0.146-0.494 0.116-0.989-0.059 1.774 0.611 0.669c0.291 0.329 0.543 0.523 0.756 0.581l0.378-2.123c-0.697-0.387-1.144-0.882-1.338-1.482-0.116-0.368-0.184-0.688-0.203-0.96v-0.291l0.087 0.553c0.098 0.427 0.262 0.805 0.495 1.135 0.407 0.504 0.746 0.736 1.018 0.697l0.262-1.192c0.058-0.213 0.242-0.563 0.552-1.047 0.155-0.252 0.312-0.475 0.466-0.669l-0.32 0.728c-0.232 0.543-0.377 0.931-0.436 1.163l-0.175 1.018 0.35-0.059c0.291-0.077 0.522-0.154 0.697-0.232 0.291-0.136 0.785-0.504 1.483-1.104-0.155 0.252-0.494 0.62-1.018 1.104-0.311 0.311-0.669 0.514-1.076 0.611l-0.523 0.058-0.232 2.211 0.407-0.059c0.329-0.077 0.63-0.185 0.901-0.319 0.465-0.214 0.834-0.417 1.105-0.611 0.019-0.507 0.058-0.895 0.116-1.166z" clip-rule="evenodd" fill="url(#p)" fill-rule="evenodd"/>
		<path d="m57.101 45.121c-0.368 1.027-0.698 1.687-0.988 1.978-0.271 0.31-3.655-0.35-10.15-1.978l0.146-2.792 0.466 0.175c0.446 0.038 1.009-0.088 1.687-0.379 0.698-0.29 1.561-0.388 2.589-0.29 0.562 0.038 1.183 0.126 1.861 0.262 0.407 0.019 0.63 0.019 0.668 0 0.098-0.078 0.078-0.311-0.058-0.698l-0.322-1.252 0.785 1.426c0.602 1.027 1.135 1.764 1.6 2.21 0.737 0.717 1.308 1.163 1.716 1.338z" clip-rule="evenodd" fill="#5B8029" fill-rule="evenodd"/>
		<path d="m64.72 45.121c-0.427 1.454-1.531 2.491-3.314 3.111-1.726 0.602-3.829 1.105-6.312 1.513l-3.228 0.437 2.239-1.048c1.629-1.124 2.724-2.772 3.286-4.943 0.465-1.784 0.688-3.315 0.669-4.595-0.02-0.97-0.01-1.483 0.029-1.542 0.155-0.193 0.358-0.329 0.61-0.407 0.116-0.038 0.592-0.126 1.425-0.262 0.621-0.097 1.076-0.3 1.367-0.61 0.194-0.213 0.388-0.591 0.581-1.134 0.233-0.582 0.485-0.931 0.757-1.047l-0.466 1.075c-0.232 0.775-0.136 1.348 0.291 1.716 0.543 0.466 1.037 1.135 1.483 2.007 0.445 0.892 0.688 1.726 0.727 2.501 0.117 1.473 0.07 2.549-0.144 3.228z" clip-rule="evenodd" fill="#90CC3F" fill-rule="evenodd"/>
		<path d="m64.981 45.121c-0.445 1.454-1.55 2.491-3.315 3.111-1.725 0.602-3.828 1.105-6.311 1.513l-3.228 0.437 2.239-1.048c1.609-1.124 2.695-2.772 3.258-4.943 0.465-1.784 0.697-3.315 0.697-4.595-0.02-0.989-0.01-1.503 0.029-1.542 0.155-0.193 0.358-0.329 0.61-0.407 0.117-0.038 0.592-0.126 1.426-0.262 0.62-0.097 1.065-0.271 1.337-0.523 0.155-0.174 0.34-0.523 0.553-1.047 0.213-0.601 0.397-1.008 0.553-1.221l-0.35 1.075c-0.154 0.775-9e-3 1.348 0.437 1.716 0.543 0.446 1.027 1.115 1.454 2.007 0.446 0.892 0.698 1.726 0.756 2.501 0.079 1.532 0.03 2.607-0.145 3.228z" clip-rule="evenodd" fill="#6A9431" fill-rule="evenodd"/>
		<path d="m64.197 39.043c0.407 0.717 0.688 1.435 0.843 2.152l-0.407 0.756c-0.368 0.563-1.076 0.746-2.123 0.553-1.047-0.214-1.356-0.641-0.931-1.28 0.427-0.64 0.602-1.24 0.523-1.803-0.077-0.563-0.358-0.97-0.843-1.222-0.368-0.155-0.514-0.455-0.437-0.901 0.446-0.097 0.775-0.271 0.988-0.523 0.136-0.175 0.291-0.494 0.466-0.96 0.213-0.601 0.397-1.008 0.553-1.221l-0.35 1.075c-0.154 0.775-9e-3 1.348 0.437 1.716 0.447 0.388 0.874 0.94 1.281 1.658z" clip-rule="evenodd" fill="#658C2D" fill-rule="evenodd"/>
		<path d="m44.625 40.177c0.038-0.058 0.077-0.136 0.116-0.232 0.02-0.02 0.067 0.077 0.146 0.291 0.116 0.329 0.62 1.832 1.512 4.508 0.485 1.435 1.464 2.772 2.938 4.013 0.737 0.62 1.425 1.096 2.065 1.426-0.446-0.136-0.979-0.379-1.6-0.728-1.241-0.718-2.259-1.639-3.054-2.763-0.97-1.396-1.658-2.676-2.064-3.839-0.389-1.203-0.408-2.094-0.059-2.676z" clip-rule="evenodd" fill="#8CC63F" fill-rule="evenodd"/>
		<path d="m64.981 44.655c-0.407 1.435-1.25 2.686-2.529 3.752-1.416 1.202-3.103 1.89-5.061 2.064-2.055 0.175-3.752 0.175-5.089 0l-1.426-0.349 0.641 0.028c0.542 0.021 1.104-0.028 1.687-0.145 1.377-0.291 2.54-0.902 3.489-1.832 1.047-1.047 1.706-2.424 1.978-4.13 0.408-2.617 0.785-3.878 1.135-3.78 0.077 0.038 0.291 0.136 0.64 0.29 0.329 0.136 0.563 0.175 0.698 0.116 0.058-0.019 0.223-0.193 0.494-0.523 0.252-0.329 0.563-0.514 0.931-0.552 0.756-0.098 1.26-0.233 1.512-0.407 0.271-0.175 0.698-0.262 1.28-0.262 0.659 0.02 1.018 0.232 1.075 0.64 0.078 0.523 0.068 0.824-0.028 0.901-0.078 0.058-0.213 0.01-0.407-0.146-0.155-0.136-0.311-0.203-0.466-0.203-0.154 0-0.252 0.077-0.29 0.232-0.02 0.116-0.01 0.659 0.028 1.628 0.019 1.088-0.078 1.981-0.292 2.678z" clip-rule="evenodd" fill="#86C236" fill-rule="evenodd"/>
		<path d="m66.262 40.322c0.173 0.139 0.24-0.051 0.203-0.567 0.155 1.447 0.233 2.198 0.233 2.254 0 0.059-0.098-0.193-0.291-0.756-0.147-0.434-0.298-0.802-0.451-1.105-0.054-0.019-0.106-0.028-0.159-0.028-0.155 0-0.253 0.077-0.291 0.232-0.02 0.116-0.01 0.659 0.028 1.628 0.02 1.086-0.077 1.979-0.29 2.676-0.427 1.435-1.271 2.686-2.53 3.752-1.415 1.202-3.103 1.89-5.061 2.064-2.055 0.175-3.752 0.175-5.089 0l-1.426-0.349 0.64 0.028c0.524 0.021 1.086-0.028 1.688-0.145 1.376-0.291 2.529-0.902 3.461-1.832 1.047-1.047 1.706-2.424 1.977-4.13 0.233-1.493 0.534-2.326 0.902-2.501 0.193-0.097 0.504-0.136 0.931-0.116 0.64-0.427 1.047-0.669 1.221-0.728 0.021 0 0.271-0.175 0.757-0.523 0.427-0.329 0.823-0.514 1.192-0.553 0.329-0.038 0.465-0.097 0.407-0.174-0.098-0.098-0.098-0.185 0-0.262 0.581-0.389 1.129-0.068 1.643 0.959 0.101 0.029 0.202 0.087 0.305 0.176z" clip-rule="evenodd" fill="#60872C" fill-rule="evenodd"/>
		<path d="m65.563 40.235l-0.058 0.116c-0.02 0.116-0.01 0.659 0.028 1.628 0.02 1.086-0.077 1.979-0.29 2.676-0.427 1.435-1.271 2.686-2.53 3.752-1.415 1.202-3.103 1.89-5.061 2.064l-0.407 0.029c2.036-0.35 3.693-1.105 4.973-2.269 1.028-0.969 1.571-1.929 1.629-2.879 0.059-1.338-0.02-2.55-0.232-3.635l-0.35-1.222c-0.038-0.039-0.048-0.078-0.028-0.116 0.038-0.116 0.184-0.224 0.436-0.32 0.214-0.059 0.505-0.174 0.873-0.349 0.349-0.116 0.669-0.126 0.96-0.029 0.329 0.097 0.427 0.204 0.291 0.319-0.059 0.08-0.137 0.157-0.234 0.235z" clip-rule="evenodd" fill="#537526" fill-rule="evenodd"/>
			<use transform="matrix(.5816 0 0 -.5816 58.35 40.1)" y="-17.45" width="11.65" height="17.45" enable-background="new" opacity=".1992" xlink:href="#v"/>
		<path d="m52.069 37.967c0.659 0.388 1.027 0.785 1.105 1.192-0.058-0.039-0.067 0.106-0.029 0.437 0.039 0.406 0.01 0.659-0.087 0.756-0.116 0.077-0.281-0.077-0.494-0.465-0.233-0.427-0.417-0.65-0.553-0.67-0.175-0.038-0.311 0.011-0.407 0.146-0.116 0.175-0.203 0.311-0.262 0.407-0.077 0.155-0.242 0.175-0.494 0.059-0.271-0.136-0.504-0.34-0.698-0.611-0.039-0.077-0.146-0.271-0.32-0.581-0.097-0.175-0.223-0.32-0.378-0.437-0.175-0.116-0.406-0.193-0.697-0.232h-0.407l-0.204 0.087c-0.077 0.02-0.252-0.028-0.523-0.146-0.291-0.174-0.494-0.291-0.61-0.349-0.291-0.136-0.611-0.049-0.96 0.262-0.136 0.136-0.213 0.146-0.232 0.029-0.039-0.116 0.067-0.33 0.32-0.64 0.213-0.291 0.601-0.466 1.163-0.523 0.291-0.02 0.552-0.02 0.785 0 0.154 0.038 0.407 0.135 0.756 0.291 0.252 0.116 0.553 0.193 0.901 0.232 0.484 0.058 0.862 0.126 1.134 0.203 0.349 0.097 0.746 0.281 1.191 0.553z" clip-rule="evenodd" fill="#94D142" fill-rule="evenodd"/>
		<path d="m63.906 49.891c-2.036 1.066-3.839 1.386-5.409 0.959-1.648-0.445-2.395-0.698-2.239-0.756 0.136-0.058 0.882-0.078 2.239-0.058 0.678-0.039 1.24-0.107 1.687-0.204 0.523-0.136 1.105-0.368 1.745-0.698 0.504-0.271 1.027-0.397 1.57-0.378 0.679 0 1.134-0.029 1.366-0.087 0.698-0.194 1.241-0.368 1.629-0.523-0.697 0.62-1.56 1.202-2.588 1.745z" clip-rule="evenodd" fill="#39521A" fill-rule="evenodd"/>
		<path d="m40.059 48.64c0.427-0.854 1.018-1.648 1.774-2.385 0.368-0.368 0.698-0.659 0.989-0.872-0.039 0.039-0.088 0.097-0.146 0.175-0.098 0.174-0.155 0.388-0.175 0.64-0.02 0.213 0.02 0.756 0.116 1.628 0.039 0.931-0.077 1.735-0.349 2.414-0.369 0.911-0.96 1.745-1.774 2.501-0.911 0.854-1.871 1.357-2.879 1.513 0.951-2.386 1.765-4.257 2.444-5.614z" clip-rule="evenodd" fill="#3C571C" fill-rule="evenodd"/>
		<path d="m41.804 53.06c0.504-0.31 0.921-0.648 1.25-1.018-0.406 0.505-0.93 1.058-1.569 1.658-1.28 1.183-2.531 1.978-3.752 2.385-1.474 0.504-3.422 0.679-5.846 0.523-2.481-0.136-3.189-0.329-2.123-0.582 0.174-0.038 1.483-0.563 3.926-1.57 2.559-0.911 4.294-1.221 5.206-0.931 0.93 0.311 1.9 0.156 2.908-0.465z" clip-rule="evenodd" fill="#446120" fill-rule="evenodd"/>
		<path d="m17.055 52.188l-0.378-0.494c1.745 1.144 3.15 1.696 4.217 1.657 1.183-0.038 1.997-0.038 2.443 0 0.95 0.098 1.764 0.379 2.443 0.844 5.138 0.698 7.581 1.212 7.329 1.541-0.31 0.427-0.814 0.747-1.512 0.96-1.202 0.35-3.083 0.476-5.642 0.378-1.28-0.058-2.482-0.319-3.606-0.785-2.133-0.873-3.898-2.24-5.294-4.101z" clip-rule="evenodd" fill="#6E9C33" fill-rule="evenodd"/>
		<path d="m16.038 45.964l1.919 3.665c1.551 2.655 3.043 4.488 4.479 5.496 0.872 0.62 2.394 1.124 4.566 1.513 1.085 0.193 2.084 0.319 2.995 0.378-1.086 0.193-2.365 0.232-3.839 0.116-2.947-0.214-5.37-1.047-7.271-2.501-1.57-1.202-2.52-3.005-2.85-5.409v-3.258z" clip-rule="evenodd" fill="#6B9631" fill-rule="evenodd"/>
		<path d="m34.737 37.53c0.155 0 0.485 0.397 0.989 1.192 0.233 0.291 0.504 0.175 0.814-0.349l0.175 0.349c0.135 0.214 0.31 0.242 0.523 0.088 0.329-0.233 0.659-0.514 0.988-0.844l-0.523 1.425c-0.329 0.989-0.484 1.6-0.465 1.832 0.039 0.311-0.669 0.514-2.123 0.611-1.474 0.077-2.356-0.049-2.646-0.379-0.233-0.31-0.465-0.795-0.698-1.454l-0.291-0.901c0.426-0.136 0.833-0.465 1.221-0.988 0.213-0.291 0.446-0.649 0.698-1.076 0.136-0.175 0.378-0.146 0.727 0.087l0.611 0.407z" clip-rule="evenodd" fill="#6B9630" fill-rule="evenodd"/>
		<path d="m18.422 43.551c0.077-0.523 0.251-0.94 0.523-1.251 0.543-0.581 1.318-0.271 2.327 0.931 0.369 0.446 0.756 2.607 1.164 6.485 0.213 1.938 0.378 3.839 0.494 5.7-0.368-0.059-0.795-0.271-1.28-0.64-0.988-0.757-1.803-1.948-2.442-3.577-1.28-3.258-1.949-5.002-2.007-5.235-0.446-1.318-0.417-1.968 0.087-1.948 0.504 0.039 0.882-0.117 1.134-0.465z" clip-rule="evenodd" fill="#5C822A" fill-rule="evenodd"/>
		<path d="m21.679 40.962c0.155-0.523 0.495-1.075 1.018-1.657 1.066-1.144 2.569-1.842 4.508-2.094 2.404-0.33 4.478-0.136 6.223 0.581 1.803 0.757 3.034 1.978 3.693 3.664 0.776 1.959 0.591 4.236-0.552 6.835-1.241 2.869-3.102 4.333-5.584 4.392-2.714 0.096-5.176-1.222-7.387-3.956-2.209-2.753-2.849-5.341-1.919-7.765z" clip-rule="evenodd" fill="#89BF3F" fill-rule="evenodd"/>
		<path d="m35.755 41.66l0.233 2.355c0.077 1.822-0.078 3.412-0.466 4.77-0.388 1.376-1.144 2.152-2.268 2.326-1.9 0.02-3.684 0.127-5.351 0.32-2.094 0.232-3.402-0.33-3.926-1.687-0.174-1.513-0.33-2.375-0.465-2.589-0.562-0.911-0.785-1.638-0.668-2.181 0.232-0.989 1.628-1.135 4.188-0.437 2.501 0.679 4.711 0.407 6.631-0.814 0.948-0.619 1.646-1.307 2.092-2.063z" clip-rule="evenodd" fill="#7BAB38" fill-rule="evenodd"/>
		<path d="m22.901 39.246l0.058-0.116 1.542 0.64c1.105 0.621 1.871 1.426 2.297 2.414 0.252 0.62 0.397 1.037 0.436 1.25l0.873 2.211c0.775 1.551 1.648 2.559 2.617 3.024 0.446 0.213 0.902 0.01 1.367-0.61 0.252-0.311 0.446-0.65 0.582-1.019l0.029 1.367c-0.058 0.969-0.281 1.59-0.669 1.861-0.407 0.271-2.336-0.466-5.787-2.21-1.726-0.854-3.412-1.745-5.06-2.676 0.252-0.97 0.514-1.958 0.785-2.967 0.542-1.996 0.852-3.053 0.93-3.169z" clip-rule="evenodd" fill="#689131" fill-rule="evenodd"/>
		<path d="m28.223 37.269l0.407-0.116c0.291-0.077 0.543-0.116 0.756-0.116 0.329 0 0.582 0.02 0.756 0.059-0.543 0.077-0.94 0.154-1.192 0.232l-0.407 0.116 0.844 0.378 0.494 0.291 0.029-0.116c0.097-0.116 0.388-0.252 0.873-0.407 0.776-0.214 1.59-0.194 2.443 0.058-1.085-0.077-1.754-0.058-2.006 0.059-0.155 0.077-0.359 0.213-0.611 0.407l-0.32 0.262 0.872 0.553c0.213 0.116 0.378 0.262 0.495 0.436l0.32-0.378c0.271-0.252 0.592-0.417 0.96-0.494 0.601-0.116 1.289-0.078 2.064 0.116-0.31-0.02-0.63-0.029-0.959-0.029-0.659 0.02-1.066 0.116-1.222 0.291-0.136 0.194-0.223 0.388-0.262 0.582v0.203l0.756 0.262c0.563 0.35 0.979 0.931 1.25 1.745 0.271 0.795 0.242 1.677-0.087 2.646-0.155 0.484-0.349 0.892-0.582 1.222 0.213-1.145 0.204-2.239-0.029-3.286-0.174-0.795-0.426-1.367-0.756-1.717-0.213-0.213-0.446-0.378-0.698-0.494l-0.349-0.145c-0.97-0.078-1.88-0.059-2.734 0.058-0.523 0.058-1.115 0.291-1.774 0.698-0.33 0.213-0.611 0.417-0.843 0.61 0.136-0.155 0.31-0.329 0.523-0.523 0.446-0.388 0.853-0.669 1.222-0.843 0.582-0.311 1.522-0.446 2.821-0.407-0.213-0.214-0.523-0.437-0.931-0.669l-0.611-0.32c-0.349 0.02-0.747 0.067-1.192 0.146-0.892 0.175-1.57 0.456-2.036 0.844l-1.687 1.512c0.271-0.601 0.736-1.153 1.396-1.657 0.679-0.523 1.735-0.922 3.17-1.192-0.485-0.214-0.892-0.34-1.222-0.379-0.368-0.038-0.931 0.098-1.687 0.407-0.931 0.388-1.551 0.883-1.861 1.483-0.233 0.466-0.446 0.901-0.64 1.309-0.058 0.136-0.087 0.165-0.087 0.088 0-0.233 0.165-0.679 0.494-1.338 0.407-0.814 0.833-1.338 1.28-1.57 0.698-0.33 1.347-0.533 1.948-0.611-0.892-0.097-1.483-0.106-1.774-0.028l-0.436 0.087 0.901-0.232c0.659-0.155 1.192-0.204 1.6-0.146l0.321 0.053z" clip-rule="evenodd" fill="#A5E64C" fill-rule="evenodd"/>
			<radialGradient id="q" cx="12.55" cy="25.4" r="15.388" gradientTransform="matrix(.5816 0 0 -.5812 15.95 60.435)" gradientUnits="userSpaceOnUse">
			<stop stop-color="#A9E858" offset="0"/>
			<stop stop-color="#77A63A" offset="1"/>
		</radialGradient>
		<path d="m18.8 39.362c-0.078 0.136-0.068 0.088 0.029-0.146 0.174-0.445 0.32-0.736 0.436-0.872 0.232-0.271 0.611-0.455 1.134-0.553 0.485-0.097 0.999 0.088 1.542 0.553 0.853 0.718 1.561 1.212 2.123 1.483 1.066 0.484 1.9 1.415 2.501 2.792 0.31 0.736 0.63 1.657 0.96 2.763 0.426 0.892 0.999 1.764 1.716 2.617 0.853 1.008 1.735 1.735 2.646 2.182 0.854 0.426 1.386 1.366 1.6 2.82 0.175 1.086 0.999 1.552 2.472 1.396-0.194 0.193-0.523 0.416-0.989 0.668-0.911 0.505-2.055 0.922-3.432 1.251-1.241 0.252-2.607 0.349-4.101 0.291-3.024-0.136-5.215-0.989-6.572-2.56-1.765-2.036-2.54-4.42-2.327-7.154 0.097-1.376 0.562-3.121 1.396-5.234 0.504-1.105 0.805-1.784 0.901-2.036 0.097-0.29-0.039-0.581-0.407-0.872-0.291-0.213-0.552-0.301-0.785-0.262-0.213 0.039-0.388 0.155-0.523 0.349-0.019 0.04-0.126 0.215-0.32 0.524z" clip-rule="evenodd" fill="url(#q)" fill-rule="evenodd"/>
			<radialGradient id="r" cx="10.5" cy="27.45" r="16.25" gradientTransform="matrix(.5816 0 0 -.5812 15.95 62.82)" gradientUnits="userSpaceOnUse">
			<stop stop-color="#A9E858" offset=".3255"/>
			<stop stop-color="#77A63A" offset="1"/>
		</radialGradient>
		<path d="m19.44 44.917v-0.436l0.146 0.756c0.078 0.329 0.223 0.62 0.436 0.872l0.146-0.581 0.146-1.192-0.087 2.123 0.756 0.785c0.349 0.368 0.649 0.591 0.901 0.669 0-0.271 0.048-0.659 0.146-1.164l0.262-1.337c-0.814-0.466-1.328-1.048-1.542-1.745-0.136-0.427-0.223-0.795-0.262-1.105v-0.349l0.087 0.64c0.116 0.523 0.32 0.97 0.611 1.338 0.485 0.601 0.882 0.872 1.192 0.814l0.32-1.396c0.058-0.252 0.271-0.659 0.64-1.222l0.523-0.785-0.378 0.844c-0.271 0.64-0.436 1.096-0.495 1.367-0.097 0.445-0.155 0.843-0.174 1.192l0.407-0.059c0.31-0.077 0.572-0.165 0.785-0.262 0.349-0.155 0.94-0.601 1.774-1.338-0.194 0.311-0.591 0.757-1.192 1.338-0.601 0.563-1.231 0.824-1.89 0.785l-0.262 2.589c0.484-0.039 0.999-0.185 1.541-0.437 0.524-0.252 0.95-0.494 1.28-0.728 0.02-0.601 0.068-1.057 0.146-1.366 0.039-0.194 0.116-0.397 0.232-0.611l0.146-0.29-0.058 0.843c0 0.388 0.048 0.718 0.146 0.989 0.174-0.098 0.397-0.252 0.669-0.466l0.814-0.698c-0.349 0.718-1.153 1.426-2.414 2.123-1.26 0.698-2.104 1.066-2.53 1.105l0.029 1.338c0 0.602 0.194 1.454 0.582 2.559 0.659 0.059 1.512-0.058 2.559-0.349 1.047-0.271 1.726-0.571 2.036-0.901l-0.029-1.134c0-0.214 0.039-0.515 0.116-0.902l0.116-0.523 0.146 1.135c0.097 0.542 0.281 0.892 0.553 1.047l2.006-1.658c-0.174 0.35-0.446 0.737-0.814 1.163-0.717 0.873-1.502 1.542-2.355 2.007-0.872 0.485-1.813 0.805-2.821 0.96l-1.28 0.059 0.233 0.407c0.213 0.368 0.514 0.766 0.901 1.191 0.64 0.698 1.687 1.173 3.141 1.426l-1.427 0.057c-0.562 0-1.144-0.175-1.745-0.523-0.368-0.213-0.766-0.697-1.192-1.454l-0.523-1.076c-0.291-0.174-0.63-0.427-1.018-0.756-0.756-0.659-1.337-1.356-1.745-2.094-0.408-0.717-0.688-1.521-0.844-2.414l-0.146-1.134 0.32 1.367c0.136 0.504 0.358 0.93 0.669 1.279l0.087-1.019c0.058-0.329 0.068-0.63 0.029-0.901l-0.058-0.29 0.204 0.349c0.116 0.291 0.184 0.61 0.203 0.96 0.039 0.581-0.019 1.057-0.174 1.425l0.465 0.64c0.33 0.407 0.921 0.97 1.774 1.687l-0.291-0.844c-0.117-0.349-0.213-0.988-0.291-1.919l-0.058-1.279c-1.027-0.698-1.687-1.435-1.978-2.21-0.174-0.467-0.29-0.893-0.348-1.281z" clip-rule="evenodd" fill="url(#r)" fill-rule="evenodd"/>
		<path d="m40.495 50.327c-0.523 1.725-1.832 2.956-3.926 3.692-2.017 0.737-4.498 1.338-7.445 1.803-1.473 0.233-2.743 0.398-3.81 0.495 0.814-0.155 1.696-0.563 2.646-1.222 1.919-1.318 3.208-3.267 3.868-5.846 0.543-2.094 0.814-3.887 0.814-5.38-0.02-1.163-0.01-1.773 0.029-1.832 0.174-0.252 0.417-0.427 0.727-0.523 0.155-0.039 0.708-0.126 1.658-0.262 0.736-0.116 1.279-0.358 1.628-0.728 0.213-0.232 0.446-0.678 0.698-1.337 0.252-0.698 0.533-1.105 0.843-1.222l-0.552 1.25c-0.271 0.931-0.146 1.609 0.378 2.036 0.64 0.543 1.222 1.328 1.745 2.355 0.523 1.047 0.814 2.026 0.872 2.938 0.118 1.786 0.06 3.046-0.173 3.783z" clip-rule="evenodd" fill="#90CC3F" fill-rule="evenodd"/>
		<path d="m40.786 50.327c-0.504 1.725-1.803 2.956-3.897 3.692-2.036 0.737-4.518 1.338-7.445 1.803-1.474 0.233-2.744 0.398-3.81 0.495 0.814-0.155 1.697-0.563 2.646-1.222 1.9-1.318 3.18-3.267 3.839-5.846 0.543-2.094 0.814-3.887 0.814-5.38-0.02-1.163-0.01-1.773 0.029-1.832 0.174-0.252 0.417-0.427 0.727-0.523 0.155-0.039 0.708-0.126 1.658-0.262 0.756-0.116 1.29-0.329 1.6-0.64 0.213-0.213 0.427-0.62 0.64-1.222 0.271-0.717 0.485-1.192 0.64-1.425l-0.407 1.25c-0.175 0.931 0 1.609 0.523 2.036 0.64 0.523 1.221 1.309 1.745 2.355 0.524 1.047 0.814 2.026 0.873 2.938 0.116 1.786 0.058 3.046-0.175 3.783z" clip-rule="evenodd" fill="#6A9431" fill-rule="evenodd"/>
		<path d="m39.855 43.201c0.485 0.854 0.814 1.697 0.989 2.53-0.078 0.214-0.232 0.514-0.465 0.901-0.427 0.659-1.26 0.863-2.501 0.611-1.241-0.232-1.609-0.728-1.105-1.483 0.504-0.756 0.717-1.474 0.64-2.152-0.078-0.64-0.417-1.104-1.018-1.396-0.407-0.194-0.572-0.553-0.494-1.076 0.523-0.136 0.901-0.349 1.134-0.64 0.155-0.194 0.339-0.563 0.552-1.105 0.271-0.717 0.485-1.192 0.64-1.425l-0.407 1.25c-0.175 0.931 0 1.609 0.523 2.036 0.543 0.447 1.047 1.097 1.512 1.949z" clip-rule="evenodd" fill="#658C2D" fill-rule="evenodd"/>
		<path d="m16.765 44.539c0.058-0.175 0.106-0.271 0.145-0.291 0.02-0.02 0.078 0.098 0.175 0.35 0.135 0.388 0.727 2.161 1.774 5.322 0.582 1.706 1.745 3.285 3.49 4.739 0.853 0.718 1.658 1.271 2.414 1.658-0.523-0.155-1.153-0.437-1.89-0.844-1.435-0.853-2.627-1.948-3.577-3.286-1.163-1.629-1.978-3.131-2.443-4.508-0.467-1.395-0.496-2.442-0.088-3.14z" clip-rule="evenodd" fill="#8CC63F" fill-rule="evenodd"/>
		<path d="m40.815 49.803c-0.504 1.707-1.502 3.18-2.995 4.421-1.687 1.415-3.684 2.229-5.991 2.442-2.404 0.214-4.411 0.214-6.02 0l-1.658-0.407c0.737 0.116 1.658 0.068 2.763-0.146 1.628-0.329 2.995-1.047 4.101-2.151 1.221-1.241 1.997-2.869 2.326-4.886 0.485-3.083 0.94-4.557 1.367-4.421 0.078 0.02 0.32 0.116 0.727 0.291 0.388 0.155 0.669 0.204 0.843 0.146 0.039-0.02 0.233-0.232 0.582-0.64 0.291-0.368 0.65-0.572 1.076-0.611 0.543-0.058 0.921-0.116 1.134-0.174 0.213-0.059 0.426-0.165 0.64-0.32 0.33-0.213 0.833-0.31 1.513-0.291 0.794 0.02 1.23 0.271 1.309 0.757 0.077 0.64 0.058 0.998-0.059 1.075-0.077 0.059-0.232 0-0.466-0.174-0.193-0.155-0.377-0.232-0.552-0.232-0.194-0.02-0.311 0.067-0.35 0.262-0.019 0.136 0 0.766 0.059 1.89 0.02 1.279-0.097 2.336-0.349 3.169z" clip-rule="evenodd" fill="#86C236" fill-rule="evenodd"/>
		<path d="m41.105 49.803c-0.503 1.707-1.502 3.18-2.995 4.421-1.687 1.415-3.674 2.229-5.961 2.442-2.404 0.214-4.411 0.214-6.02 0l-1.687-0.407c0.737 0.116 1.658 0.068 2.763-0.146 1.628-0.329 2.995-1.047 4.1-2.151 1.241-1.241 2.017-2.869 2.327-4.886 0.485-3.083 0.94-4.557 1.367-4.421 0.078 0.02 0.32 0.116 0.727 0.291 0.388 0.155 0.669 0.204 0.844 0.146 0.058-0.02 0.252-0.232 0.582-0.64 0.291-0.368 0.649-0.572 1.076-0.611 0.563-0.058 0.94-0.116 1.134-0.174 0.213-0.059 0.427-0.165 0.64-0.32 0.33-0.213 0.795-0.31 1.396-0.291 0.698 0.02 1.076 0.271 1.135 0.757 0.058 0.562 0.077 0.892 0.058 0.988-0.02 0.078-0.116 0.049-0.291-0.087-0.193-0.155-0.368-0.232-0.522-0.232-0.194-0.02-0.32 0.067-0.379 0.262-0.02 0.136 0 0.766 0.059 1.89 0.017 1.279-0.1 2.336-0.353 3.169z" clip-rule="evenodd" fill="#60872C" fill-rule="evenodd"/>
		<path d="m41.396 44.743c-0.02 0.136 0 0.766 0.059 1.89 0.02 1.28-0.097 2.337-0.35 3.17-0.503 1.707-1.502 3.18-2.995 4.421-1.687 1.415-3.674 2.229-5.961 2.442-0.117 0.02-0.281 0.029-0.495 0.029 2.404-0.388 4.362-1.279 5.875-2.676 1.222-1.144 1.861-2.269 1.919-3.373 0.078-1.59-0.048-3.063-0.378-4.421l-0.523-1.541 0.698-0.291c0.271-0.097 0.494-0.116 0.669-0.058 0.252 0.077 0.504 0.116 0.756 0.116 0.408 0 0.679 0.039 0.815 0.116l-0.089 0.176z" clip-rule="evenodd" fill="#537526" fill-rule="evenodd"/>
			<use transform="matrix(.5816 0 0 -.5816 32.95 44.5)" y="-20.55" width="13.75" height="20.55" enable-background="new" opacity=".1992" xlink:href="#w"/>
		<path d="m19.382 37.908c0.368-0.232 0.873-0.28 1.512-0.146 0.33 0.078 0.621 0.175 0.873 0.291 0.155 0.116 0.397 0.33 0.727 0.64 0.232 0.214 0.533 0.407 0.901 0.582 0.524 0.232 0.931 0.455 1.222 0.669 0.31 0.232 0.679 0.592 1.105 1.076 0.388 0.445 0.649 0.892 0.785 1.338 0.155 0.445 0.155 0.581 0 0.407-0.058-0.059-0.126 0.106-0.204 0.494-0.097 0.445-0.223 0.698-0.378 0.756-0.155 0.059-0.271-0.165-0.349-0.669-0.116-0.563-0.242-0.882-0.378-0.96-0.174-0.097-0.397 0.088-0.669 0.553-0.349 0.659-0.533 0.989-0.553 0.989-0.135 0.136-0.32 0.039-0.552-0.291-0.194-0.311-0.349-0.669-0.465-1.076-0.039-0.193-0.058-0.601-0.058-1.221 0.019-0.505-0.039-0.854-0.175-1.048-0.136-0.193-0.368-0.358-0.698-0.494l-0.465-0.175h-0.233c-0.155 0-0.349-0.048-0.582-0.145-0.271-0.117-0.485-0.252-0.64-0.408-0.136-0.135-0.369-0.058-0.698 0.233-0.175 0.136-0.397 0.319-0.669 0.553-0.193 0.097-0.232-0.136-0.116-0.698 0.117-0.581 0.369-0.997 0.757-1.25z" clip-rule="evenodd" fill="#94D142" fill-rule="evenodd"/>
		<g clip-rule="evenodd" fill="#7DB038" fill-rule="evenodd">
			<path d="m21.33 39.624c-0.155 0-0.349-0.048-0.582-0.145-0.271-0.117-0.485-0.252-0.64-0.408-0.136-0.135-0.369-0.058-0.698 0.233-0.175 0.136-0.397 0.319-0.669 0.553-0.135 0.058-0.184-0.088-0.145-0.437 0.233-0.078 0.446-0.204 0.64-0.378l0.523-0.494 0.32-0.059c0.213 0 0.329 0.087 0.349 0.262 0.02 0.194 0.155 0.388 0.407 0.582 0.21 0.178 0.414 0.274 0.611 0.29h-0.116z"/>
			<path d="m25.634 43.667c0.097 0 0.213-0.155 0.349-0.466 0.136-0.388 0.291-0.727 0.465-1.018 0.077 0.232 0.126 0.407 0.145 0.523 0 0.116-0.029 0.136-0.087 0.059-0.058-0.059-0.126 0.106-0.204 0.494-0.097 0.445-0.223 0.698-0.378 0.756-0.134 0.059-0.232-0.057-0.29-0.348z"/>
			<path d="m24.18 42.91c0.155-0.388 0.359-0.649 0.611-0.785 0.252-0.135 0.388-0.048 0.407 0.262-0.174-0.097-0.397 0.088-0.669 0.553-0.349 0.659-0.533 0.989-0.553 0.989-0.097 0.136-0.262 0.067-0.494-0.204 0.194 0.02 0.33-0.028 0.407-0.146 0.039-0.038 0.136-0.262 0.291-0.669z"/>
		</g>
		<path d="m20.08 37.821c-0.078-0.097 0.029-0.106 0.319-0.029 0.213 0.059 0.476 0.262 0.786 0.611 0.116 0.174 0.61 0.417 1.483 0.727 0.233 0.136 0.388 0.252 0.465 0.35 0.097 0.097 0.155 0.242 0.174 0.436 0.02 0.136 0.126 0.242 0.32 0.32 0.252 0.097 0.417 0.184 0.494 0.262 0.407 0.329 0.737 0.484 0.989 0.465 0.174 0 0.369 0.262 0.582 0.785-0.097-0.193-0.213-0.358-0.349-0.494-0.059-0.039-0.213-0.068-0.465-0.087-0.233-0.02-0.417-0.088-0.553-0.204-0.155-0.155-0.271-0.262-0.349-0.319-0.078-0.059-0.232-0.106-0.465-0.146-0.232-0.039-0.397-0.155-0.494-0.35-0.078-0.232-0.146-0.406-0.204-0.523-0.116-0.29-0.649-0.571-1.6-0.843-0.116-0.02-0.232-0.126-0.349-0.32-0.117-0.174-0.243-0.291-0.378-0.349-0.213-0.079-0.348-0.175-0.406-0.292z" clip-rule="evenodd" fill="#C1FA73" fill-rule="evenodd"/>
	<path d="m57.392 58.876c1.008 0.33 2.064 0.155 3.17-0.522 0.563-0.33 1.018-0.698 1.367-1.105-0.446 0.563-1.019 1.163-1.717 1.803-1.414 1.279-2.781 2.143-4.1 2.588-1.59 0.543-3.693 0.737-6.311 0.582-2.695-0.155-3.461-0.368-2.298-0.64 0.175-0.038 1.59-0.601 4.246-1.687 2.773-1.009 4.653-1.348 5.643-1.019z" clip-rule="evenodd" fill="#446120" fill-rule="evenodd"/>
	<path d="m40.524 58.673c1.008 0.116 1.881 0.427 2.617 0.931 5.604 0.757 8.26 1.318 7.969 1.687-0.35 0.446-0.901 0.785-1.658 1.019-1.318 0.388-3.363 0.523-6.136 0.407-1.26-0.02-2.559-0.301-3.897-0.844-2.269-0.931-4.188-2.414-5.758-4.45l-0.407-0.552 1.628 0.931c1.241 0.62 2.229 0.911 2.966 0.872 1.319-0.039 2.211-0.039 2.676-1e-3z" clip-rule="evenodd" fill="#6E9C33" fill-rule="evenodd"/>
		<path d="m60.591 50.966c0.407-0.407 0.766-0.727 1.075-0.959-0.038 0.039-0.087 0.106-0.145 0.203-0.116 0.194-0.185 0.427-0.204 0.698-0.019 0.232 0.029 0.824 0.146 1.774 0.039 1.008-0.087 1.88-0.378 2.617-0.388 0.988-1.027 1.899-1.919 2.733-1.009 0.911-2.065 1.454-3.171 1.629 1.048-2.599 1.939-4.634 2.676-6.107 0.466-0.91 1.105-1.773 1.92-2.588z" clip-rule="evenodd" fill="#3C571C" fill-rule="evenodd"/>
		<path d="m33.021 54.049l1.076 2.53c1.008 1.9 2.297 3.402 3.868 4.508 0.95 0.679 2.297 1.163 4.042 1.454 0.893 0.155 1.678 0.232 2.356 0.232-0.854 0.078-1.852 0.02-2.995-0.175-2.289-0.388-4.188-1.23-5.701-2.529-1.628-1.396-2.559-2.821-2.792-4.275l0.146-1.745z" clip-rule="evenodd" fill="#83B83C" fill-rule="evenodd"/>
		<path d="m52.215 41.05l0.669 0.436c0.078 0 0.291-0.067 0.64-0.203 0.35-0.116 0.602-0.077 0.757 0.116 0.271 0.311 0.455 0.649 0.552 1.018l0.175 0.379c0.175 0.213 0.378 0.242 0.611 0.087 0.349-0.271 0.707-0.582 1.075-0.931l-0.581 1.541c-0.368 1.086-0.533 1.755-0.494 2.007 0.038 0.329-0.737 0.543-2.327 0.64-1.609 0.116-2.568-0.02-2.879-0.407-0.252-0.31-0.504-0.833-0.756-1.57l-0.32-0.988c0.484-0.155 0.931-0.515 1.338-1.076 0.232-0.311 0.484-0.698 0.756-1.164 0.154-0.196 0.416-0.157 0.784 0.115z" clip-rule="evenodd" fill="#6B9630" fill-rule="evenodd"/>
		<path d="m38.256 47.68c0.388 0.485 0.805 2.841 1.25 7.067 0.213 2.094 0.388 4.149 0.524 6.165-0.388-0.058-0.854-0.291-1.396-0.697-1.047-0.814-1.919-2.104-2.617-3.868-0.892-2.288-1.406-4.44-1.542-6.456-0.136-1.939 0.116-2.89 0.756-2.851 0.562 0.039 0.824 0.146 0.785 0.32l0.61-0.494c0.505-0.194 1.048 0.077 1.63 0.814z" clip-rule="evenodd" fill="#5C822A" fill-rule="evenodd"/>
		<path d="m40.786 53.642c-2.424-3.005-3.122-5.816-2.094-8.434l1.105-1.774c1.163-1.26 2.801-2.025 4.915-2.297 2.579-0.349 4.828-0.136 6.747 0.64 1.958 0.814 3.296 2.133 4.014 3.955 0.834 2.152 0.64 4.634-0.582 7.445-1.357 3.103-3.383 4.701-6.078 4.798-2.947 0.097-5.624-1.347-8.027-4.333z" clip-rule="evenodd" fill="#89BF3F" fill-rule="evenodd"/>
		<path d="m40.35 42.939l1.28 0.873c1.065 0.601 2.19 0.959 3.373 1.075 1.861 0.194 3.044 0.417 3.548 0.67v1.832c0.038 1.318 0.174 2.229 0.407 2.733 0.349 0.775 0.911 1.338 1.687 1.687l0.029 1.513c-0.059 1.046-0.301 1.716-0.727 2.006-0.427 0.291-2.521-0.503-6.282-2.384l-5.496-2.908c0.271-1.066 0.552-2.143 0.843-3.229 0.582-2.19 0.912-3.345 0.989-3.461 0.135-0.232 0.252-0.367 0.349-0.407z" clip-rule="evenodd" fill="#689131" fill-rule="evenodd"/>
		<path d="m52.128 42.62c-0.718 0-1.153 0.106-1.309 0.319-0.155 0.214-0.252 0.417-0.291 0.611-0.02 0.097-0.028 0.174-0.028 0.232l0.813 0.291c0.601 0.368 1.057 0.998 1.367 1.89 0.311 0.873 0.281 1.843-0.088 2.908-0.174 0.523-0.388 0.96-0.64 1.31 0.252-1.28 0.252-2.473 0-3.577-0.193-0.873-0.475-1.493-0.843-1.861-0.214-0.214-0.466-0.397-0.756-0.553l-0.379-0.175c-1.047-0.077-2.035-0.048-2.966 0.088-0.582 0.077-1.222 0.339-1.92 0.784l-0.901 0.641 0.582-0.582c0.445-0.407 0.872-0.718 1.279-0.931 0.64-0.311 1.667-0.446 3.083-0.407-0.253-0.252-0.602-0.494-1.047-0.727l-0.64-0.35c-0.389 0.02-0.824 0.068-1.309 0.146-0.97 0.194-1.707 0.504-2.211 0.931l-1.803 1.629 0.349-0.582c0.33-0.465 0.717-0.872 1.163-1.222 0.718-0.562 1.861-0.988 3.432-1.279-0.523-0.232-0.96-0.368-1.309-0.407-0.427-0.038-1.037 0.107-1.832 0.437-1.009 0.407-1.687 0.94-2.036 1.6-0.251 0.504-0.484 0.979-0.697 1.425-0.059 0.136-0.088 0.165-0.088 0.087 0-0.252 0.175-0.736 0.524-1.454 0.445-0.892 0.911-1.454 1.396-1.687 0.775-0.368 1.482-0.591 2.123-0.669-0.97-0.116-1.619-0.136-1.949-0.058l-0.465 0.116 0.96-0.262c0.736-0.175 1.318-0.223 1.745-0.146l0.378 0.059 0.407-0.117c0.329-0.077 0.61-0.116 0.843-0.116l0.814 0.029-1.716 0.378 1.454 0.728v-0.146c0.116-0.116 0.437-0.252 0.96-0.407 0.853-0.232 1.734-0.214 2.646 0.058-1.163-0.077-1.881-0.048-2.152 0.088-0.174 0.077-0.407 0.213-0.698 0.407l-0.349 0.29 0.988 0.611c0.214 0.116 0.389 0.281 0.524 0.494l0.349-0.407c0.29-0.29 0.64-0.475 1.047-0.553 0.64-0.136 1.386-0.097 2.239 0.117-0.325-0.039-0.675-0.048-1.043-0.029z" clip-rule="evenodd" fill="#A5E64C" fill-rule="evenodd"/>
			<radialGradient id="s" cx="42.05" cy="33.4" r="16.725" gradientTransform="matrix(.5816 0 0 -.5812 15.95 69.739)" gradientUnits="userSpaceOnUse">
			<stop stop-color="#A9E858" offset="0"/>
			<stop stop-color="#77A63A" offset="1"/>
		</radialGradient>
		<path d="m50.703 56.899c0.601 2.112 1.773 3.082 3.519 2.908-0.213 0.213-0.572 0.455-1.076 0.727-1.008 0.563-2.249 1.018-3.723 1.367-1.337 0.271-2.83 0.368-4.479 0.29-3.276-0.136-5.661-1.057-7.154-2.763-1.919-2.21-2.763-4.798-2.53-7.765 0.116-1.454 0.63-3.354 1.541-5.7 0.563-1.201 0.882-1.938 0.96-2.21 0.116-0.329-0.029-0.649-0.437-0.959-0.582-0.446-1.057-0.408-1.425 0.115-0.02 0.039-0.136 0.224-0.349 0.553-0.078 0.155-0.068 0.098 0.029-0.174 0.232-0.505 0.397-0.814 0.494-0.931 0.252-0.311 0.659-0.514 1.222-0.611 0.523-0.097 1.085 0.116 1.687 0.64 0.912 0.757 1.677 1.28 2.297 1.571 1.861 0.853 4.101 1.435 6.718 1.744-0.155-0.02-0.136 0.854 0.059 2.618 0.174 1.841 0.514 3.063 1.018 3.664 0.388 0.465 0.718 1.211 0.989 2.239 0.136 0.583 0.349 1.475 0.64 2.677z" clip-rule="evenodd" fill="url(#s)" fill-rule="evenodd"/>
			<radialGradient id="t" cx="39.85" cy="35.6" r="17.65" gradientTransform="matrix(.5816 0 0 -.5812 15.95 72.297)" gradientUnits="userSpaceOnUse">
			<stop stop-color="#A9E858" offset=".3255"/>
			<stop stop-color="#77A63A" offset="1"/>
		</radialGradient>
		<path d="m41.077 45.906l-0.437 0.931c-0.291 0.679-0.465 1.173-0.523 1.483-0.097 0.484-0.165 0.911-0.204 1.279l0.437-0.088c0.349-0.058 0.639-0.145 0.873-0.262 0.387-0.174 1.027-0.659 1.919-1.454-0.213 0.35-0.64 0.834-1.279 1.454-0.659 0.621-1.348 0.901-2.065 0.844l-0.291 2.82 0.493-0.085c0.427-0.078 0.824-0.204 1.193-0.379 0.582-0.271 1.037-0.543 1.366-0.813 0.039-0.621 0.098-1.105 0.175-1.454 0.039-0.214 0.116-0.446 0.232-0.698l0.175-0.291-0.058 0.931c0 0.407 0.048 0.756 0.146 1.047l0.727-0.466 0.901-0.784c-0.097 0.193-0.271 0.436-0.523 0.727-0.543 0.601-1.24 1.135-2.094 1.6-1.377 0.756-2.298 1.153-2.763 1.192l0.058 1.425c0 0.659 0.204 1.59 0.611 2.792h0.756c0.64-0.039 1.318-0.155 2.036-0.349 1.124-0.311 1.86-0.641 2.21-0.989l-0.059-1.251c0-0.232 0.049-0.563 0.146-0.988l0.116-0.553 0.175 1.251c0.097 0.581 0.3 0.959 0.611 1.134l0.261-0.262c0.175-0.175 0.805-0.688 1.891-1.541-0.194 0.368-0.484 0.785-0.873 1.25-0.756 0.95-1.608 1.678-2.559 2.182-0.95 0.523-1.978 0.862-3.082 1.018l-1.368 0.087 0.233 0.437c0.232 0.407 0.563 0.844 0.989 1.309 0.445 0.466 1.153 0.863 2.122 1.192 0.485 0.175 0.922 0.291 1.309 0.349l-1.57 0.059c-0.62 0-1.25-0.194-1.891-0.581-0.406-0.233-0.842-0.757-1.308-1.571l-0.553-1.163c-0.329-0.193-0.698-0.465-1.105-0.814-0.833-0.718-1.463-1.474-1.89-2.268-0.427-0.796-0.737-1.678-0.931-2.646l-0.146-1.222 0.349 1.482c0.136 0.563 0.378 1.027 0.727 1.396l0.087-1.135c0.058-0.367 0.068-0.688 0.029-0.959l-0.058-0.32 0.204 0.378c0.155 0.33 0.242 0.688 0.262 1.076 0.019 0.621-0.058 1.135-0.232 1.542l0.523 0.669c0.349 0.445 0.989 1.065 1.92 1.86l-0.32-0.931c-0.116-0.388-0.213-1.085-0.291-2.093l-0.059-1.396c-1.124-0.756-1.851-1.552-2.181-2.385-0.193-0.504-0.31-0.97-0.349-1.396v-0.465l0.146 0.814c0.078 0.349 0.232 0.659 0.465 0.931l0.146-0.61 0.174-1.31-0.087 2.298 0.814 0.872c0.368 0.407 0.688 0.649 0.96 0.728 0.019-0.311 0.077-0.737 0.174-1.279l0.291-1.454c-0.892-0.485-1.454-1.105-1.687-1.861-0.155-0.466-0.243-0.873-0.262-1.222v-0.378l0.087 0.697c0.117 0.543 0.339 1.019 0.669 1.426 0.504 0.659 0.93 0.959 1.279 0.901l0.349-1.513c0.058-0.271 0.291-0.717 0.698-1.338 0.196-0.313 0.39-0.594 0.584-0.846z" clip-rule="evenodd" fill="url(#t)" fill-rule="evenodd"/>
		<path d="m55.764 43.289c0.174-0.485 0.387-0.854 0.639-1.105 0.117-0.116 0.214-0.193 0.291-0.232l-0.61 1.366c-0.291 0.989-0.155 1.726 0.407 2.211 0.698 0.581 1.328 1.425 1.891 2.53 0.563 1.144 0.872 2.22 0.93 3.228 0.136 1.9 0.078 3.276-0.174 4.13-0.563 1.86-1.978 3.199-4.246 4.013-2.21 0.776-4.915 1.426-8.114 1.949l-4.129 0.523c0.892-0.155 1.852-0.602 2.879-1.338 2.074-1.435 3.47-3.548 4.188-6.34 0.601-2.269 0.892-4.217 0.872-5.846 0-1.279 0.02-1.948 0.059-2.007 0.194-0.271 0.456-0.455 0.785-0.553 0.175-0.038 0.775-0.136 1.803-0.29 0.796-0.116 1.387-0.378 1.774-0.785 0.23-0.252 0.482-0.737 0.755-1.454z" clip-rule="evenodd" fill="#90CC3F" fill-rule="evenodd"/>
		<path d="m55.995 43.492l0.698-1.541-0.465 1.366c-0.175 0.989 0.02 1.726 0.581 2.211 0.698 0.581 1.328 1.425 1.891 2.53 0.563 1.144 0.882 2.22 0.96 3.228 0.116 1.939 0.049 3.315-0.204 4.13-0.563 1.86-1.977 3.199-4.245 4.013-2.211 0.776-4.915 1.426-8.114 1.949l-4.13 0.523c0.893-0.155 1.853-0.602 2.88-1.338 2.074-1.435 3.479-3.548 4.217-6.34 0.581-2.269 0.862-4.217 0.843-5.846 0-1.279 0.02-1.948 0.059-2.007 0.193-0.271 0.455-0.455 0.785-0.553 0.174-0.038 0.775-0.136 1.803-0.29 0.814-0.116 1.387-0.35 1.716-0.698 0.231-0.212 0.474-0.658 0.725-1.337z" clip-rule="evenodd" fill="#6A9431" fill-rule="evenodd"/>
		<path d="m56.693 41.951l-0.465 1.366c-0.175 0.989 0.02 1.726 0.581 2.211 0.602 0.504 1.154 1.212 1.658 2.122 0.504 0.912 0.853 1.823 1.047 2.734-0.097 0.291-0.262 0.62-0.494 0.989-0.466 0.717-1.377 0.939-2.734 0.668-1.338-0.252-1.735-0.785-1.192-1.6 0.563-0.833 0.796-1.608 0.698-2.326-0.097-0.717-0.465-1.231-1.105-1.541-0.445-0.233-0.62-0.621-0.522-1.163 0.562-0.155 0.969-0.389 1.221-0.698 0.194-0.214 0.397-0.621 0.61-1.222l0.697-1.54z" clip-rule="evenodd" fill="#658C2D" fill-rule="evenodd"/>
		<path d="m33.777 47.215c0.388-0.484 0.63-0.708 0.727-0.669 0.097 0.059 0.174 0.407 0.232 1.047 0.194 2.889 0.495 5.342 0.902 7.357 0.368 1.92 1.551 3.655 3.548 5.206 1.008 0.775 1.968 1.357 2.879 1.745-0.581-0.155-1.27-0.466-2.065-0.931-1.57-0.911-2.869-2.095-3.896-3.549-1.202-1.687-2.036-3.645-2.501-5.874-0.466-2.151-0.407-3.596 0.174-4.332z" clip-rule="evenodd" fill="#8CC63F" fill-rule="evenodd"/>
		<path d="m59.863 51.402c0.02 1.396-0.106 2.54-0.378 3.432-0.542 1.842-1.629 3.441-3.257 4.799-1.823 1.531-3.984 2.413-6.485 2.646-2.617 0.252-4.789 0.252-6.514 0l-1.833-0.465 0.814 0.058c0.679 0.02 1.396-0.049 2.152-0.203 1.783-0.35 3.276-1.125 4.479-2.327 1.337-1.357 2.181-3.121 2.53-5.293 0.523-3.354 1.018-4.963 1.483-4.827 0.096 0.039 0.358 0.154 0.784 0.349 0.427 0.155 0.728 0.204 0.901 0.146 0.04-0.02 0.253-0.252 0.641-0.698 0.329-0.388 0.727-0.61 1.192-0.669 0.601-0.077 1.008-0.146 1.221-0.203 0.233-0.059 0.466-0.165 0.698-0.32 0.35-0.252 0.901-0.368 1.658-0.349 0.853 0.02 1.318 0.301 1.396 0.844 0.097 0.678 0.078 1.065-0.058 1.163-0.098 0.058-0.271-0.01-0.524-0.204-0.213-0.154-0.407-0.242-0.581-0.262-0.194 0-0.32 0.098-0.378 0.291-0.037 0.154-0.018 0.851 0.059 2.092z" clip-rule="evenodd" fill="#86C236" fill-rule="evenodd"/>
		<path d="m60.184 51.402c0.02 1.396-0.107 2.54-0.378 3.432-0.543 1.842-1.629 3.441-3.258 4.799-1.822 1.531-3.983 2.413-6.484 2.646-2.617 0.252-4.789 0.252-6.515 0l-1.832-0.465 0.814 0.058c0.698 0.02 1.415-0.049 2.152-0.203 1.783-0.35 3.275-1.125 4.478-2.327 1.339-1.357 2.182-3.121 2.53-5.293 0.523-3.354 1.019-4.963 1.483-4.827 0.097 0.039 0.358 0.154 0.785 0.349 0.427 0.155 0.727 0.204 0.901 0.146 0.039-0.02 0.252-0.252 0.64-0.698 0.33-0.388 0.728-0.61 1.192-0.669 0.602-0.077 1.009-0.146 1.222-0.203 0.232-0.059 0.466-0.165 0.698-0.32 0.349-0.252 0.853-0.368 1.512-0.349 0.757 0.02 1.164 0.301 1.222 0.844 0.059 0.62 0.078 0.969 0.059 1.047-0.02 0.077-0.126 0.048-0.32-0.088-0.193-0.154-0.378-0.242-0.553-0.262-0.213 0-0.349 0.098-0.407 0.291-0.038 0.154-0.019 0.851 0.059 2.092z" clip-rule="evenodd" fill="#60872C" fill-rule="evenodd"/>
		<path d="m60.125 49.309c-0.038 0.155-0.019 0.853 0.059 2.094 0.02 1.396-0.107 2.54-0.378 3.432-0.543 1.842-1.629 3.441-3.258 4.799-1.822 1.531-3.983 2.413-6.484 2.646l-0.523 0.058c2.617-0.427 4.74-1.396 6.368-2.908 1.338-1.26 2.036-2.491 2.094-3.693 0.078-1.726-0.058-3.324-0.407-4.798l-0.552-1.658 0.756-0.319c0.311-0.116 0.543-0.146 0.698-0.088 0.31 0.078 0.591 0.117 0.843 0.117 0.388 0 0.679 0.048 0.872 0.145l-0.088 0.173z" clip-rule="evenodd" fill="#537526" fill-rule="evenodd"/>
			<use transform="matrix(.5816 0 0 -.5816 51 49.1)" y="-22.35" width="14.95" height="22.35" enable-background="new" opacity=".1992" xlink:href="#x"/>
		<path d="m40.873 43.579c0.33 0.175 0.854 0.407 1.57 0.698 0.834 0.368 2.686 0.844 5.555 1.425-0.175 0.039-0.378 0.185-0.61 0.437-0.427 0.504-0.747 1.261-0.96 2.269-0.136 0.679-0.358 1.037-0.669 1.076l-0.407-0.175c-0.504-0.193-0.717-0.591-0.64-1.192l0.262-0.844-0.553 0.757c-0.31 0.445-0.475 0.679-0.494 0.697-0.252 0.214-0.697 0.35-1.338 0.407-0.601 0.078-1.027-0.494-1.279-1.716-0.175-1.299-0.311-2.025-0.407-2.181-0.136-0.214-0.465-0.358-0.989-0.437-0.426-0.077-0.902-0.087-1.425-0.029-0.369 0.039-0.659-0.203-0.873-0.727l-0.204-0.814c-0.252 0-0.563 0.194-0.931 0.582-0.233 0.252-0.437 0.388-0.611 0.407l-0.174-0.029c-0.116-0.214-0.155-0.514-0.116-0.901 0.058-0.407 0.145-0.718 0.262-0.931 0.194-0.33 0.514-0.553 0.959-0.669 0.931-0.271 1.813 0.029 2.646 0.901 0.389 0.389 0.864 0.719 1.426 0.989z" clip-rule="evenodd" fill="#94D142" fill-rule="evenodd"/>
		<g clip-rule="evenodd" fill="#7DB038" fill-rule="evenodd">
			<path d="m37.471 42.766l-0.087 0.465c-0.232 0-0.533 0.194-0.901 0.582-0.233 0.252-0.437 0.388-0.611 0.407l-0.174-0.029-0.116-0.407c0.155 0.058 0.378-0.029 0.668-0.262 0.522-0.466 0.93-0.718 1.221-0.756z"/>
			<path d="m46.486 46.778c0.445-0.426 0.707-0.669 0.784-0.727 0.291-0.233 0.495-0.33 0.611-0.291-0.232 0.097-0.466 0.311-0.698 0.64-0.349 0.484-0.601 1.153-0.756 2.007-0.136 0.679-0.358 1.037-0.669 1.076l-0.407-0.175c-0.445-0.193-0.668-0.543-0.668-1.047 0.077 0.601 0.367 0.843 0.872 0.728 0.193-0.059 0.329-0.359 0.406-0.902 0.099-0.62 0.272-1.057 0.525-1.309z"/>
			<path d="m40.408 44.598c0.35 0.193 0.514 0.407 0.495 0.64-0.136-0.214-0.465-0.358-0.989-0.437-0.426-0.077-0.902-0.087-1.425-0.029-0.194 0.02-0.378-0.058-0.553-0.232 0.155 0.02 0.368-0.01 0.64-0.087 0.31-0.078 0.582-0.116 0.814-0.116 0.368-1e-3 0.708 0.086 1.018 0.261z"/>
			<path d="m43.927 47.884c0.155-0.271 0.301-0.484 0.437-0.64 0.252-0.271 0.571-0.523 0.959-0.757-0.058 0.078-0.126 0.185-0.203 0.32-0.136 0.252-0.242 0.484-0.32 0.698l-0.378 0.523c-0.174 0.31-0.329 0.533-0.465 0.669-0.232 0.213-0.64 0.358-1.222 0.436 0.271-0.097 0.504-0.252 0.698-0.465 0.155-0.213 0.319-0.474 0.494-0.784z"/>
		</g>
		<path d="m40.844 43.929c0.078 0.058 0.271 0.232 0.582 0.523 0.194 0.193 0.368 0.311 0.523 0.349 0.058 0.02 0.311 0.02 0.756 0 0.369 0 0.64 0.059 0.814 0.175 0.136 0.077 0.291 0.203 0.466 0.378 0.174 0.155 0.329 0.271 0.465 0.349 0.136 0.098 0.339 0.146 0.61 0.146 0.271 0.02 0.437 0.039 0.495 0.059 0.17 0.075 0.33 0.226 0.479 0.451-0.077-0.111-0.207-0.214-0.393-0.306-0.175-0.098-0.533-0.146-1.076-0.146-0.154 0-0.358-0.078-0.61-0.232-0.232-0.155-0.417-0.33-0.553-0.523-0.116-0.175-0.358-0.243-0.727-0.204-0.582 0.039-0.883 0.059-0.901 0.059-0.233-0.02-0.495-0.165-0.786-0.437-0.271-0.311-0.456-0.504-0.552-0.582-0.136-0.116-0.378-0.242-0.727-0.378-0.368-0.136-0.659-0.203-0.873-0.203-0.194 0-0.388-0.116-0.582-0.35-0.019-0.019-0.155-0.203-0.407-0.552-0.194-0.271-0.563-0.379-1.105-0.32-0.427 0.155-0.591 0.185-0.495 0.087 0.155-0.193 0.369-0.31 0.64-0.349 0.232-0.02 0.456 0.02 0.668 0.116 0.388 0.155 0.679 0.417 0.873 0.785 0.117 0.155 0.223 0.262 0.32 0.32 0.078 0.02 0.242 0.048 0.494 0.087 0.546 0.096 1.079 0.33 1.602 0.698z" clip-rule="evenodd" fill="#C1FA73" fill-rule="evenodd"/>
</svg>
