<?xml version="1.0" encoding="UTF-8"?>
<svg enable-background="new 0 0 271.902 232.168" viewBox="0 0 271.902 232.168" xmlns="http://www.w3.org/2000/svg">
 <path d="m69.7,226.603c16.435,7.304 34.014,7.857 50.067-.972 7.043-3.873 15.957-9.21 19.993-16.47 4.213-7.578 2.628-14.209-1.756-21.369-1.442,5.731-2.361,13.695-10.476,12.419-6.679-1.051-11.783-7.521-16.327-12.056-1.117-1.114-5.418-5.578-5.019-7.351 .445-1.978 4.999-2.455 6.595-3.104 6.252-2.538 11.875-7.425 16.849-11.903 4.247-3.824 10.102-12.771 4.688-18.183-5.993-5.989-11.847-8.629-19.983-10.738-13.534-3.509-30.601.209-43.402,5.065-5.513,2.092-11.189,4.197-16.368,7.039-4.231,2.321-11.562,6.443-13.798,10.91-1.578,3.152-2.083,4.947 1.221,7.259 2.26,1.581 4.514,3.182 6.854,4.644 4.414,2.758 9.09,5.315 13.486,7.848-5.559,5.442-8.943,18.102-7.996,25.682 .578,4.618 1.28,9.39 4.547,12.907 1.667,1.796 3.084,3.477 5.125,4.804 1.47.955 2.939,1.91 4.409,2.865 .732.476 1.673,1.642 1.291.704" fill="#b8b8b8"/>
 <path d="m107.35 56.222c-14.148-6.13-39.583-20.082-27.558-39.197l-18.237-15.525c4.519 29.49-31.483 49.753-45.841 71.282-8.632 12.944-14.257 26.061-15.077 41.729-0.676 12.913 8.928 28.173 18.928 35.677 2.945 2.21 5.698 4.128 9 5.779l-0.391 0.776c2.08 1.715 4.79 1.875 7.376 2.521 4.171 1.043 5.84 2.83 9.055 5.779 5.316 4.877 12.442 7.282 19.037 9.847 13.768 5.353 29.751 5.349 43.448 0.021 14.342-5.578 16.351-21.15 7.59-32.846-2.571-3.433 1.822-5.509 4.502-8.323 2.704-2.839 4.753-6.154 6.991-9.372 3.871-5.565 6.907-13.702 7.956-20.411 1.353-8.653 0.471-20.263-4.409-27.773-3.34-5.14-6.116-8.637-10.653-12.719-3.368-3.029-9.01-4.137-11.717-7.245" fill="#661a00"/>
 <path d="m107.35 56.222c-14.148-6.13-39.583-20.082-27.558-39.197l-18.237-15.525c4.519 29.49-31.483 49.753-45.841 71.282-8.632 12.944-14.257 26.061-15.077 41.729-0.676 12.913 8.928 28.173 18.928 35.677 2.945 2.21 5.698 4.128 9 5.779l-0.391 0.776c2.08 1.715 4.79 1.875 7.376 2.521 4.171 1.043 5.84 2.83 9.055 5.779 5.316 4.877 12.442 7.282 19.037 9.847 13.768 5.353 29.751 5.349 43.448 0.021 14.342-5.578 16.351-21.15 7.59-32.846-2.571-3.433 1.822-5.509 4.502-8.323 2.704-2.839 4.753-6.154 6.991-9.372 3.871-5.565 6.907-13.702 7.956-20.411 1.353-8.653 0.471-20.263-4.409-27.773-6.153-9.469-12.402-14.393-22.369-19.577" fill="none" stroke="#661a00" stroke-linecap="square" stroke-miterlimit="10" stroke-width="1.2"/>
 <path d="m104.243,132.68c12.635,7.898 21.167,23.792 11.169,37.11-7.577,10.094-30.136,9.288-40.818,6.503-15.002-3.911-29.684-8.736-38.853-21.988-4.858-7.021 3.693-14.255 8.6-17.525 5.472-3.647 12.893-5.614 19.35-6.39 6.738-.809 13.406-1.107 20.195-.64 3.088.213 6.434.068 9.457.773 2.849.666 8.752,2.96 10.9,2.157" fill="#f2efdb"/>
 <path d="m61.552 1.5 18.237 15.524c-9.133 14.517 4.855 26.255 15.725 34.017 5.855 4.181 14.092 6.849 20.458 10.457 5.987 3.394 10.74 9.001 13.79 15.101 14.035 28.074-5.562 61.239-31.841 73.651-25.977 12.27-61.417 18.543-83.269-4.862-9.837-10.535-16.312-25.304-13.246-39.846 3.186-15.109 9.991-27.862 19.77-39.744 14.784-17.963 44.407-37.993 40.376-64.298" fill="#f2efdb"/>
 <path d="m70.477,159.848c3.408-.172 8.858.159 10.48,3.881 1.956,4.488-4.49,5.045-7.82,5.045-2.234,0-11.22.425-11.585-3.104-.393-3.801 7.524-4.393 8.925-5.822" fill="#b39940"/>
 <path d="m9.156,94.258c10.781-1.66 21.562,3.021 31.74,6.293 10.738,3.452 21.81,7.833 33.04,9.33 11.932,1.59 23.492,2.704 34.948-1.878 8.679-3.472 18.285-7.355 26.018-12.581 0,30.779-25.583,53.896-54.355,60.29-7.472,1.66-14.971,4.053-22.643,4.228-9.215.209-15.6-.361-24.506-2.65-14.914-3.834-24.341-17.63-28.744-31.396-3.317-10.372-2.911-23.403 4.502-31.636" fill="#b8b8b8"/>
 <path d="m12.648,78.345c12.711-7.147 28.089-5.887 42.292-4.635 15.276,1.347 30.542,3.083 45.882,3.083 6.958,0 13.896-.293 20.647-1.979 4.075-1.018 5.395-2.623 7.525.93 1.809,3.016 3.396,6.725 4.084,10.161 .543,2.715 3.951,19.775-.331,20.485-6.976,1.157-13.859,2.862-20.873,3.958-23.353,3.649-46.434,3.661-69.875,1.056-11.776-1.309-22.753-5.356-33.65-9.767-2.208-.894-3.257-.815-3.85-2.723-.533-1.715.428-4.983.898-6.633 1.534-5.39 3.571-9.639 7.251-13.936" fill="#e6cf95"/>
 <path d="m90.269,55.059c4.688.956 9.537,5.228 13.672,7.591 4.267,2.438 8.881,6.039 12.342,9.499 8.383,8.382 14.122,15.924 11.788,28.385-4.502,24.038-21.016,38.695-42.07,49.224 9.65-14.418 13.198-29.535 14.269-46.659 .532-8.506-.987-16.949-2.644-25.234-.739-3.692-1.574-6.983-2.786-10.54-1.174-3.448-2.214-9.867-4.571-12.266" fill="#fff"/>
 <path d="m75.135,151.309c7.71-6.707 11.665-21.793 13.386-31.436 2.002-11.209 2.819-23.811.242-34.983-2.72-11.794-6.389-23.058-11.475-34.086-5.303-11.501-8.64-20.044-4.872-32.616-10.843,7.333-8.484,23.108-10.609,34.249-2.645,13.866-5.856,27.727-7.723,41.715-1.85,13.867-4.246,27.774-.8,41.561 1.398,5.595 4.224,12.299 7.1,17.343 1.957,3.434 3.429,3.968 7.157,2.725 1.743-.582 7.331-3.921 7.594-4.472" fill="#fff"/>
 <path d="m49.131,153.638c-4.519-8.892-7.678-17.181-8.166-27.447-.495-10.436.804-20.734 3.344-30.894 2.561-10.242 4.736-20.563 7.181-30.83 2.167-9.1 5.131-19.1 5.789-28.425-15.622,18.848-27.241,39.137-35.216,62.272-1.78,5.164-3.102,10.876-3.291,16.338-.192,5.525-1.177,14.369 1.744,19.375l5.221,8.948c1.347,2.309 5.98,4.344 8.161,5.89 2.274,1.611 5.151,2.049 7.806,2.838 1.934.575 3.868,1.149 5.802,1.725 1.234.366 1.755.965 1.625.21" fill="#fff"/>
 <path d="m12.648,131.904c-.216-11.647-.218-23.563 2.76-34.967 3.291-12.602 8.603-23.5 15.481-34.505-9.792,9.728-17.432,18.645-21.553,32.177-1.829,6.006-1.86,12.395-1.219,18.601 .497,4.809 1.778,16.409 4.531,18.694" fill="#fff"/>
 <path d="m99.585,168.386c-3.86,2.664-11.887,4.031-14.748-.776-1.127-1.896-.378-3.48-1.94-5.045-.969-.971-3.5-1.442-4.658-1.939 4.001-1.672 7.872-4.068 12.032-5.629 3.705-1.39 8.699-4.94 12.735-4.362 5.044.723 8.245,4.088 6.79,9.177-.863,3.017-7.891,8.963-10.211,8.574" fill="#661a00"/>
 <path d="m98.421,167.61c-3.854,2.66-11.896,4.024-14.751-.777-1.128-1.897-.375-3.479-1.94-5.044-.947-.946-3.417-1.45-4.655-1.94 4-1.673 7.87-4.068 12.03-5.627 3.705-1.39 8.698-4.94 12.734-4.363 5.042.722 8.248,4.088 6.792,9.177-.861,3.013-7.894,8.967-10.21,8.574" fill="#fff"/>
 <path d="m94.15 152.86c4.043-2.161 9.507-2.01 11.643 2.716 2.41 5.33-1.817 8.453-6.21 10.283-3.174 1.323-10.782 3.142-12.032-1.744-0.986-3.858 4.218-8.977 6.599-11.255" fill="#b39940"/>
 <path d="m53.789,40.311c3.615-4.531 5.199-10.514 7.565-15.719 2.272-4.998 5.292-12.14 4.078-17.659 0,6.361-.767,12.583-2.946,18.573-1.437,3.952-5.326,13.733-8.697,14.805" fill="#802600"/>
 <path d="m69.7,7.708c-.259,6.34-.519,12.679-.778,19.019 2.922,0 2.931-.534 3.688,1.746 .731,2.199 1.148,4.552 1.747,6.792 1.287,4.816 3.205,9.128 5.432,13.584-3.032-6.18-3.801-14.279-5.345-20.972-.796-3.449-1.569-6.951-2.026-10.465-.438-3.358.64-7.921-2.718-9.704" fill="#b39940"/>
 <path d="m58.056 154.8c7.35 11.572 21.442-2.743 26.391-8.928-4.657 9.01-20.367 25.958-26.391 8.928" fill="#802600"/>
 <path d="m73.581 157.91c14.21-4.743 27.597-8.259 39.588-17.854-12.034 6.472-25.996 15.499-39.588 17.854" fill="#661a00"/>
 <path d="m105.41 165.67 9.703 4.271-12.42 6.209-2.227-6.687c-0.276-0.826 4.119-3.221 4.944-3.793" fill="#fff"/>
 <path d="m109.288,152.475 8.925-3.882-8.539,5.821c-.197-.588-.414-1.313-.386-1.939" fill="#e6cc99"/>
 <path d="m110.451,155.967c3.105-.518 6.211-1.035 9.316-1.553l-9.316,3.882c0-.721-.163-1.622 0-2.329" fill="#e6cc99"/>
 <path d="m109.674,161.011 10.093,1.166-11.643.388c.739-.335 1.162-1.249 1.55-1.554" fill="#e6cc99"/>
 <path d="m108.12 150.53 7.762-7.374-9.317 6.598 1.555 0.776" fill="#e6cc99"/>
 <path d="m100.36 169.16 2.327 6.986-3.881-6.209 1.554-0.777" fill="#b8b8b8"/>
 <path d="m122.48 71.36c-6.335-6.867-13.195-12.422-22.164-16.158-4.168-1.736-8.464-3.918-11.989-6.743-3.629-2.909-5.599-6.767-8.732-9.896 5.349 5.342 11.206 13.299 18.889 17.566 4.522 2.512 9.08 4.63 13.326 7.661 2.958 2.113 8.204 6.977 10.67 7.57" fill="#fff"/>
 <path d="m125.59 187.02v-6.21l-3.494 4.659 3.494 1.551" fill="#661a00"/>
 <path d="m112 197.88c-9.245-13.853-23.047-22.904-38.811-27.554-4.861-1.434-7.318 0.68-11.643 4.268-4.854 4.026-10.923 10.921-10.093 17.854-0.035-2.235 1.022-5.106 2.331-6.984-10.958 23.393 15.427 40.96 35.703 42.302 11.134 0.737 22.464-2.999 27.642-13.368 2.205-4.415 2.541-10.541 3.797-15.351 1.075-4.115 1.745-8.373 2.718-12.42-2.742 4.064-7.247 9.166-11.644 11.253" fill="#661a00"/>
 <path d="m112 197.88c-9.245-13.853-23.047-22.904-38.811-27.554-4.861-1.434-7.318 0.68-11.643 4.268-4.854 4.026-10.923 10.921-10.093 17.854-0.035-2.235 1.022-5.106 2.331-6.984-10.958 23.393 15.427 40.96 35.703 42.302 11.134 0.737 22.464-2.999 27.642-13.368 2.205-4.415 2.541-10.541 3.797-15.351 1.075-4.115 1.745-8.373 2.718-12.42-2.742 4.064-7.247 9.166-11.644 11.253" fill="none" stroke="#661a00" stroke-linecap="square" stroke-miterlimit="10" stroke-width="1.2"/>
 <path d="m51.458 192.06" fill="#661a00"/>
 <path d="m51.458,192.06v.389" fill="none" stroke="#661a00" stroke-linecap="square" stroke-miterlimit="10" stroke-width=".7"/>
 <path d="m54.562,182.747c2.674-3.116 4.941-6.694 8.153-9.315 1.028-.839 6.042-4.59 7.109-4.227 8.4,2.863 16.279,4.968 23.514,10.135 5.86,4.185 12.54,9.36 16.579,15.413 2.739,4.104 3.314,2.64 6.743-.363 2.602-2.278 5.043-4.877 6.989-7.762-.973,4.047-1.643,8.305-2.718,12.42-1.256,4.81-1.592,10.936-3.797,15.351-5.247,10.507-17.461,14.726-28.796,13.214-11.32-1.509-23.929-5.079-30.863-14.98-3.099-4.425-5.145-9.064-5.916-14.433-.418-2.912.256-5.87.615-8.758 .262-2.098 3.044-4.979 2.388-6.695" fill="#b39940"/>
 <path d="m70.864,175.761c0,8.572-.54,19.21 6.985,25.227 6.673,5.335 20.541,3.502 27.73-.087 3.197-1.596 4.327-2.582 2.932-5.347-1.953-3.871-7.59-7.57-10.797-10.487-7.172-6.524-17.387-9.306-26.85-9.306" fill="#e6cf95"/>
 <path d="m111.23 199.05c-8.807 12.372-28.41 22.366-43.627 17.282-8.978-2.999-14.202-10.696-14.202-20.338 0-4.425 0.256-8.665 2.717-12.469 2.644-4.086 6.97-6.112 10.089-9.703 0 8.972 1.03 26.868 11.602 30.388 11.806 3.93 23.154 1.6 33.421-5.16" fill="#f2efdb"/>
 <path d="m83.67 174.98-12.807-4.271c1.686 3.95 10.177 4.271 12.807 4.271" fill="#e6cf95"/>
 <path d="m121.71 191.29c-2.807 5.979-4.781 12.075-5.721 18.7-1.048 7.384-6.561 12.561-13.515 14.878-12.53 4.175-29.271-0.503-39.371-8.352 23.051 11.86 45.029-9.378 58.607-25.226" fill="#fafafa"/>
 <path d="m73.194 177.31c3.445 7.923 8.006 16.825 15.525 21.734l-9.736-1.343c-2.503-0.346-2.48-2.134-3.938-4.076-3.051-4.065-3.386-11.707-1.851-16.315" fill="#f2efdb"/>
 <path d="m75.908 178.48c6.892 5.019 11.261 19.405 20.572 19.405l-10.091-9.703c-3.14-3.019-6.691-7.736-10.481-9.702" fill="#f2efdb"/>
 <path d="m80.179 179.64 13.079 11.819c4.573 4.132 5.7 6.537 11.759 6.033l-24.838-17.852" fill="#f2efdb"/>
 <path d="m63.492,176.536c0,6.474.437,11.997 3.491,17.854 3.773,7.235 10.313,9.146 17.854,10.48-5.55-.08-14.139-2.95-17.395-7.605-5.026-7.189-4.499-12.309-3.95-20.729" fill="#e6cc99"/>
 <path d="m63.492 176.54c-5.999 10.563-4.96 21.655 5.821 27.944-5.542-1.685-10.257-5.769-11.522-11.485-1.42-6.413 3.83-11.128 5.701-16.459" fill="#e6cc99"/>
 <path d="m113.17 216.12c3.029-1.39 2.83-6.464 3.491-9.313 1.249-5.386 3.324-10.342 5.048-15.524-7.157 8.544-16.425 16.791-25.618 23.286 4.113-3.219 9-7.774 14.245-8.828 4.559-0.916 3.98 7.99 2.834 10.379" fill="#f2efdb"/>
 <path d="m95.313,216.512c-8.999,3.764-23.73,5.306-32.212,0 5.311,3.881 8.43,5.175 15.081,5.781 5.84.532 12.144-3.287 17.131-5.781" fill="#fafafa"/>
 <path d="m66.205,173.82c-.166,6.556 1.104,12.836 3.333,18.962 2.571,7.066 7.014,10.058 14.132,11.698-15.21-5.673-15.601-20.035-13.583-34.152l-3.882,3.492" fill="#661a00"/>
 <path d="m105.79 206.03c3.93-4.018 7.422-8.657 11.256-12.807-5.88 0.274-7.646 10.022-11.256 12.807" fill="#661a00"/>
 <path d="m89.882,179.252c-4.702-1.979-15.833-6.358-19.795-1.551 .101-1.409-.432-5.434 1.165-5.434 1.917,0 4.177,1.067 6.094,1.451 5.361,1.074 8.049,2.244 12.536,5.534" fill="#ff8099"/>
 <path d="m73.194,152.475c6.901-4.302 11.625-16.395 13.808-23.822 1.472-5.01 2.721-9.985 3.269-15.184 .386-3.658 1.645-9.854-.001-13.001-2.297,3.195-2.541,10.916-7.762,11.644-5.442.758-7.272-6.717-7.858-10.613-.564-3.748-1.446-14.923-6.229-15.88-6.308-1.263-8.545,8.694-9.5,13.152-2.603,12.144-6.191,24.87-4.357,37.403 .824,5.634 2.208,12.082 5.822,16.689 1.572,2.005 4.315,4.406 7.102,3.291 1.595-.64 5.827-2.517 5.706-3.679" fill="#e6e6e6"/>
 <path d="m49.131 153.64c-4.31-13.167-8.709-25.184-7.957-39.393 0.358-6.768 3.061-13.66 1.947-20.333-1.263-7.568-10.549-6.493-14.789-1.726-7.98 8.972-9.922 26.206-6.837 37.766 1.81 6.779 4.148 12.465 9.783 16.894 2.161 1.7 18.033 8.548 17.853 6.792" fill="#e6e6e6"/>
 <path d="m86.001,149.757c16.036-5.179 30.302-19.508 37.931-33.999 1.692-3.215 7.576-21.614 1.266-22.277-6.388-.672-9.646,14.664-14.748,16.301 .142-3.371-2.855-13.224-7.762-10.868-4.006,1.923-4.602,13.262-5.246,17.121-1.09,6.534-2.693,12.875-3.989,19.345-.793,3.962-4.47,11.649-7.452,14.377" fill="#e6e6e6"/>
 <path d="m92.986 145.49c5.467-2.848 10.604-9.567 14.361-14.358 4.354-5.553 9.494-12.327 11.32-19.27 1.914-7.276 3.322-14.37 2.063-21.914-0.883-5.292-3.401-15.824-9.501-17.421 10.093 10.159 8.899 26.37 5.876 38.974-1.672 6.972-6.57 13.49-10.462 19.329-2.276 3.41-11.172 15.073-13.657 14.66" fill="#b8b8b8"/>
 <path d="m100.36 131.52c3.095-3.037 4.051-9.904 5.044-13.973 1.261-5.163 2.125-10.318 2.368-15.637 0.572-12.516-2.058-22.999-7.026-34.429 1.545 4.782 4.583 9.135 6.049 14.118 1.879 6.389 2.49 12.366 2.49 19.006 0 5.653-1.401 11.225-2.858 16.638-0.906 3.363-3.761 13.91-6.067 14.277" fill="#b8b8b8"/>
 <path d="m81.343 141.61c-1.379 4.292-7.216 14.749-12.576 14.749-8.321 0-10.468-7.786-13.429-14.36 2.33 4.24 6.306 9.702 11.839 9.702 5.86 0 11.984-4.776 14.166-10.091" fill="#b8b8b8"/>
 <path d="m21.187,133.458 10.174,3.634c2.923,1.044 4.412,5.073 6.904,6.844 2.629,1.867 4.329,2.183 6.208,4.27 1.72,1.91 3.102,4.097 5.044,5.821l-3.995-10.174c-.957-2.436-6.379.116-7.848-1.719-2.352-2.939-3.449-5.336-7.086-6.185-3.001-.7-6.761-1.011-9.401-2.491" fill="#b8b8b8"/>
 <path d="m58.056 154.8c-3.601 10.695-18.592 0.524-23.672-3.106 6.316 5.296 19.777 18.125 23.672 3.106" fill="#802600"/>
 <path d="m39.038,154.803c-3.575-.274-9.85-5.797-11.859-8.611-3.565-4.993-6.314-9.899-7.933-15.841-3.097-11.37-.978-23.236 2.511-34.28 3.473-10.993 7.431-20.808 13.789-30.34 2.52-3.778 3.307-8.423 5.434-12.613 2.544-5.013 6.744-8.753 10.87-12.421-9.911,2.061-13.104,16.949-18.049,23.87-7.118,9.961-12.519,21.856-16.212,33.459-3.246,10.196-5.304,23.602-.93,33.791 3.706,8.641 12.827,21.811 22.379,22.986" fill="#b39940"/>
 <path d="m44.086 159.07c-5.8 1.673-12.763-2.053-18.242-3.881 4.527 1.89 13.483 8.822 18.242 3.881" fill="#661a00"/>
 <path d="m76.298,146.264c2.541-5.104 2.968-11.989 3.9-17.583 1.093-6.559 1.621-12.97 1.888-19.605 .514-12.772-.458-25.027-1.907-37.715 3.628,10.841 4.221,24.931 3.764,36.291-.538,13.381-3.426,25.945-7.645,38.612" fill="#b8b8b8"/>
 <path d="m167.891,157.13c13.245,8.281 27.422,8.207 42.462,6.538 7.474-.829 13.564-3.021 19.636-7.313 4.85-3.428 13.687-9.186 15.523-15.136-3.11-.36-5.879,2.237-8.322,3.865-3.044,2.029-6.765,2.72-10.263,3.595-6.888,1.724-14.876,2.243-21.972,2.243-6.772,0-13.575.387-20.365.387-2.26,0-23.228,1.401-16.699,5.821" fill="#b8b8b8"/>
 <path d="m158.965,117.156c.425.385.796.086.777.777-2.808.237-5.604-.777-8.424-.777-.917,0-3.221-1.121-3.221.194 0,1.631.322,3.286.59,4.895 1.235,7.423 3.928,13.755 7.432,20.368 6.834,12.899 22.377,19.811 36.613,19.176 29.058-1.295 42.634-36.881 60.544-54.724 .508-.505.496-.654.776-1.164-6.443,4.927-13.725,12.933-21.348,15.524-7.129,2.424-15.836,2.973-23.287,4.27-18.243,3.176-33.63-2.07-50.452-8.539" fill="#661a00"/>
 <path d="m165.949,122.977c10.609,4.131 22.663,6.533 34.012,5.722 11.812-.846 23.094-3.178 34.686-5.333 .181,6.83-9.972,12.786-15.072,15.617-7.038,3.906-15.558,5.025-23.416,6.075-8.496,1.135-16.795-.009-24.579-3.414-7.551-3.305-11.797-10.727-15.718-17.503 3.257.344 6.476-1.137 3.881-4.657 1.702.902 5.887,2.863 6.206,3.493" fill="#e6cf95"/>
 <path d="m155.86 124.14c4.812 11.916 13.888 21.389 27.234 23.054 13.56 1.691 27.754-0.716 39.908-7.141-3.636 5.271-9.415 13.624-15.642 16.114-8.341 3.336-17.014 4.577-25.844 3.104-9.119-1.521-16.336-7.65-22.035-14.619-5.842-7.143-7.01-13.635-9.444-22.063l5.823 1.551" fill="#f2efdb"/>
 <path d="m170.99 141.22c-7.075-4.542-12.383-8.823-15.133-17.078 3.448 0.469 4.861-1.487 3.881-4.657 5.327 3.028 11.783 4.191 17.465 6.597-3.255-2.564-12.25-4.431-15.526-1.163-4.38 4.37 6.692 13.675 9.313 16.301" fill="#ff8099"/>
 <path d="m235.809,121.425c-.259,1.812-.519,3.622-.777,5.434 4.14-4.658 8.28-9.315 12.42-13.973-2.416,1.916-9.117,9.061-11.643,8.539" fill="#ffd9cc"/>
 <path d="m165.95 122.98c16.521 8.888 33.141 9.935 51.232 5.822-15.525 9.378-38.801 2.43-53.949-3.882 1.076-0.671 2.713-1.701 2.717-1.94" fill="#f2efdb"/>
 <path d="m164.4 126.86c5.764 6.079 15.978 8.136 23.916 9.069 10.084 1.186 18.803-0.537 28.48-3.248-8.534 2.767-17.254 5.347-26.395 5.045-8.54-0.282-21.19-3.058-26.001-10.866" fill="#f2efdb"/>
 <path d="m160.52,126.47c10.158,13.19 26.257,16.596 41.914,14.36-3.87-.051-7.62,1.164-11.549,1.164-4.113,0-7.716-.187-11.736-1.164-8.851-2.151-14.048-6.72-18.629-14.36" fill="#f2efdb"/>
 <path d="m227.271,131.904c1.059-.511 4.342-3.528 3.879-5.045-.626-2.05-4.068-1.109-5.82-.389 3.233.226 4.013,5.386 1.941,5.434" fill="#f2efdb"/>
 <path d="m150.04 122.2c2.691 12.201 13.18 22.618 23.658 28.382 11.655 6.411 24.32 3.592 36.5 0.727-10.619 8.716-25.725 11.588-38.172 4.949-7.026-3.748-12.038-8.96-16.164-15.815-3.543-5.889-4.082-11.95-5.822-18.243" fill="#e6cc99"/>
 <path d="m224.56 137.72c-4.726 11.869-18.722 19.462-30.273 22.123 5.656-3.102 11.293-6.02 16.762-9.501 4.581-2.917 11.422-7.507 13.511-12.622" fill="#fbf9f3"/>
 <path d="m154.7 123.75c2.544-4.435-5e-3 -6.365-3.883-2.717 1.189 0.95 3.265 2.721 3.883 2.717" fill="#e6cc99"/>
 <path d="m94.15,153.638c-2.258,4.085-8.815,10.305-.777,13.194-10.773-1.665-2.287-9.761.777-13.194" fill="#802600"/>
 <path d="m66.595,167.61c-2.524.753-7.352-2.713-3.494-5.433-1.268,2.439 1.333,5.948 3.494,5.433" fill="#802600"/>
 <path d="m78.239 160.62c4.792 3.732 5.48 7.352-1.941 7.761 3.862-0.932 7.466-5.741 1.941-7.761" fill="#802600"/>
 <path d="m153.529,190.119c1.521,13.609 22.477,20.597 33.963,23.095 13.814,3.003 29.718,3.201 42.473-3.891 6.051-3.363 11.732-8.454 18.167-10.87 2.471-.928 18.417-6.174 16.786-9.885-1.123-2.556-15.638,1.922-18.202,2.094-7.419.495-14.771.624-22.206.624-5.902,0-12.294.038-17.635-2.632-6.001-3.001-12.453-4.426-18.888-6.213-12.151-3.374-27.486-4.257-34.458,7.678" fill="#b8b8b8"/>
 <path d="m146.934,151.697c.089,7.605-1.012,14.272.673,21.854 1.441,6.484 4.144,13.596 8.61,18.622 10.226,11.506 24.498,15.979 39.619,17.354 16.203,1.472 27.455-3.119 40.463-12.218 5.737-4.014 10.856-8.47 16.978-12.038 3.151-1.838 6.191-3.294 9.686-4.344 .823-.247 8.538-1.642 8.554-1.674h.387c-5.53-.638-9.55-1.019-14.748,0-5.357,1.049-10.435,1.941-15.91,1.941-12.473,0-23.974-1.463-34.885-7.834-4.679-2.732-7.973-7.543-12.011-11.077-4.571-4.002-9.187-7.188-14.611-9.902-3.951-1.977-10.922-6.449-15.339-6.505-5.35-.068-12.879,7.021-17.466,5.821" fill="#661a00"/>
 <path d="m169.06 150.15c-3.61-0.102-11.254-1.924-11.254 4.075 0 5.093 6.146 9.824 9.119 13.389 7.128 8.545 17.483 15.038 27.267 19.939 8.767 4.392 24.39 6.919 34.021 4.778 10.881-2.419 21.26-7.635 31.281-12.297-15.342 2.857-33.964 4.648-48.917-1.327-4.036-1.613-7.982-3.668-10.854-7.018-2.815-3.285-5.217-7.323-8.539-10.091-2.938-2.448-6.565-5.01-10.066-6.566-3.357-1.491-9.709-2.736-12.058-4.882" fill="#e6cf95"/>
 <path d="m155.084,155.579c10.156,12.961 20.71,25.127 35.707,32.601 14.218,7.085 34.521,8.232 49.291,2.329-2.692,3.581-7.93,5.979-11.258,9.315-3.971,3.98-10.851,6.404-16.301,7.374-11.561,2.058-25.633.068-36.48-4.27-11.178-4.47-21.182-13.515-24.473-25.566-1.822-6.672-2.275-13.068-2.677-19.948-.127-2.179 1.377-3.84 3.474-3.775 1.653.05 3.265,1.599 2.717,1.94" fill="#e6e6e6"/>
 <path d="m217.568,194c-7.346,8.211-21.586,10.283-31.824,11.643 10.96,1.225 21.01,1.465 31.893-.709 4.798-.959 9.307-3.696 13.145-6.577 2.839-2.131 7.555-5.027 9.301-7.849-4.091,4.663-16.675,4.077-22.515,3.492" fill="#fbf9f3"/>
 <path d="m170.22 152.48c14.968 7.054 25.122 27.556 42.693 27.556-17.275-3.957-24.496-24.936-42.693-27.556" fill="#f2efdb"/>
 <path d="m164.01 152.48c9.344 6.525 21.179 12.176 27.559 21.733l-13.585-10.866c-4.1-3.28-9.106-8.997-13.974-10.867" fill="#f2efdb"/>
 <path d="m161.68 154.03c4.007 5.306 10.302 10.582 15.525 14.748 5.082 4.054 11.597 6.118 16.688 10.091-13.761-4.68-25.115-12.36-32.213-24.839" fill="#f2efdb"/>
 <path d="m211.75 189.73 13.584-5.047c-3.408 1.948-9.752 7.994-13.584 5.047" fill="#f2efdb"/>
 <path d="m229.21 190.12 8.93-6.207c-1.879 3.755-3.839 8.032-8.93 6.207" fill="#f2efdb"/>
 <path d="m152.76 155.97c-0.035 8.664 3.43 21.283 9.17 27.901 3.573 4.119 7.373 8.974 12.381 11.358 5.672 2.701 10.714 4.004 16.869 5.372-9.251-0.506-19.275-8.357-25.064-15.037-7.475-8.625-10.645-18.737-13.356-29.594" fill="#e6cc99"/>
 <path d="m172.94 198.27c-6.718-1.209-14.296-12.067-16.98-17.814-4.238-9.076-4.794-16.921-4.365-26.817-4.231 8.169-2.271 19.304 1.401 27.178 1.894 4.06 4.707 7.279 8.108 10.081 2.292 1.888 9.965 8.268 11.836 7.372" fill="#e6cc99"/>
 <path d="m170.994,148.205c-.996-1.073-3.693-5.229-5.045-5.433-1.165-.176-5.148,3.862-6.207,4.656 2.954.306 9.138,1.921 11.252.777" fill="#661a00"/>
 <path d="m172.936,151.309c-6.871-1.989-13.355-5.479-15.525,4.27 1.092-2.188 3.666-3.681 6.039-4.471 3.221-1.073 7.189.767 9.486.201" fill="#ff8099"/>
 <path d="m159.352,161.4c-1.1-3.048-4.391-8.885-8.344-7.567-3.894,1.296-2.484,8.833-2.131,11.837-.263-2.671.449-7.415 3.49-8.15 2.222-.538 7.071,3.189 6.985,3.88" fill="#b39940"/>
 <path d="m260.65,178.865c-5.194,5.078-17.573,8.704-24.683,11.072-7.138,2.377-15.588,4.229-23.054,2.123 4.521.091 10.166-2.436 14.345-4.106 3.094-1.237 12.216-3.65 4.671-5.983 8.027-.001 22.37,1.825 28.721-3.106" fill="#ff8099"/>
 <path d="m218.34 189.73 10.48-2.329c-4.129 1.956-6.24 3.859-10.48 2.329" fill="#f2efdb"/>
 <path d="m226.88 191.29 6.207-5.048c-1.435 2.67-2.812 6.892-6.207 5.048" fill="#f2efdb"/>
 <path d="m242.41 187.4 10.867-5.046c-4.208 1.189-7.528 1.347-10.867 5.046" fill="#f2efdb"/>
 <path d="m180.7 198.66c-8.365-0.971-17.357-12.498-22.119-18.628-0.395 4.616 3.86 9.44 7.056 12.238 2.99 2.619 11.544 7.829 15.063 6.39" fill="#fbf9f3"/>
 <path d="m166.73 166.83c8.973 8.447 18.76 17.771 30.662 21.735-5.685-2.693-11.069-6.595-16.301-10.092-4.881-3.263-9.398-9.105-14.361-11.643" fill="#fbf9f3"/>
</svg>
